<?xml version="1.0" encoding="utf-8"?>
<!-- Generator: Adobe Illustrator 27.5.0, SVG Export Plug-In . SVG Version: 6.00 Build 0)  -->
<svg version="1.1" id="Layer_1" xmlns="http://www.w3.org/2000/svg" xmlns:xlink="http://www.w3.org/1999/xlink" x="0px" y="0px"
	 viewBox="0 0 1929.9 703.7" style="enable-background:new 0 0 1929.9 703.7;" xml:space="preserve">
<style type="text/css">
	.st0{fill:#494949;stroke:#000000;stroke-miterlimit:10;}
	.st1{fill:#FFFFFF;}
	.st2{opacity:0.41;}
</style>
<rect x="-21.7" y="-11.4" class="st0" width="1980.4" height="737.8"/>
<g>
	<g>
		<g>
			<path class="st1" d="M659.5,427.2c-3.8-4.6-7.3-7.7-10.4-9.1c-3.1-1.4-6.4-2.2-10.4-2.2s-7.5,0.8-10.6,2.4
				c-3,1.6-5.9,3.8-8.6,6.5l-9.8,10.1c-3,3-5.3,5.6-6.8,7.7c-1.5,2.1-2.3,4.6-2.3,7.4c0,3.8,1.6,7,4.8,9.6c3.2,2.6,7.5,3.8,13,3.8
				c3.5-4,6.7-7.6,9.6-10.7s6.3-7,10.3-11.6l11,13.4v0c2.2,2.6,4.4,4.6,6.6,6.1c2.2,1.5,4.6,2.3,7.3,2.3c4.8,0,8.4-1.4,10.7-4.1
				c2.3-2.7,3.5-6.1,3.5-10.1L659.5,427.2z"/>
			<path class="st1" d="M655.9,491.7v99.2c-1.4,0.3-3.6,0.7-6.5,1.2c-2.9,0.5-6,0.7-9.4,0.7c-6.9,0-11.9-1.2-15-3.6
				c-3.1-2.4-4.7-6.8-4.7-13.2v-98.9c1.4-0.5,3.6-0.9,6.5-1.3c2.9-0.4,6-0.6,9.4-0.6c6.9,0,11.9,1.2,15,3.5S655.9,485.3,655.9,491.7
				z"/>
			<path class="st1" d="M753.5,527.7v11h0L753.5,527.7L753.5,527.7z M684.7,538.8L684.7,538.8l0-11l0,0V538.8z"/>
			<path class="st1" d="M858.2,515v75.6c-1.4,0.5-3.6,0.9-6.5,1.3c-2.9,0.4-6,0.6-9.4,0.6c-6.9,0-11.9-1.2-15-3.6
				c-3.1-2.4-4.7-6.7-4.7-13v-60c0-5.4-1.5-9.4-4.6-12s-7-3.8-12-3.8c-3.7,0-7.2,0.8-10.4,2.3c-2.5,1.2-4.8,2.5-6.8,4
				c0.3,1.6,0.5,3.3,0.5,4.9h0v79.2c-1.6,0.5-3.8,0.9-6.7,1.3c-2.9,0.4-6,0.6-9.4,0.6c-6.9,0-11.9-1.2-15-3.6
				c-3.1-2.4-4.7-6.7-4.7-13v-48.2l0,0V516c0-5.4-1.6-9.4-4.8-12c-3.2-2.6-7.2-3.8-12-3.8c-3.5,0-6.7,0.5-9.5,1.6
				c-2.8,1-5.2,2.1-7.1,3.2v85.7c-1.6,0.5-3.8,0.9-6.7,1.3c-2.9,0.4-6,0.6-9.4,0.6c-6.7,0-11.6-1.2-14.8-3.6
				c-3.1-2.4-4.7-6.7-4.7-13v-48.2l0,0v-26.4c0-4,0.8-7.3,2.5-10s4.1-5,7.3-7.1c5.3-3.7,11.8-6.6,19.4-8.9c7.7-2.2,15.7-3.4,24-3.4
				c7.7,0,14.9,1.2,21.6,3.6c5.2,1.8,9.9,4.5,14,7.8c4-2.6,8.3-5,12.9-7c6.7-3,15-4.4,24.7-4.4c8.3,0,16.1,1.4,23.3,4.3
				s13,7.4,17.3,13.7C856,496.3,858.2,504.6,858.2,515z"/>
			<path class="st1" d="M995.7,499.3c-5-9-11.7-15.8-20.2-20.4c-8.5-4.6-17.9-6.8-28.3-6.8l0,0c-6.6,0-12.5,0.9-17.9,2.8
				c-2.6,0.9-4.9,1.8-7.1,2.7v-28.3c0-6.4-1.6-10.8-4.7-13.2c-3.1-2.4-8.1-3.6-15-3.6c-3.4,0-6.5,0.2-9.4,0.7c-2.9,0.5-5,1-6.5,1.4
				v62.2h0v67.7c0,3.8,0.8,7.2,2.5,10.1s4.2,5.5,7.6,7.9c4.8,3.2,10.8,6,17.9,8.4c7.1,2.4,15.6,3.6,25.6,3.6
				c12.6,0,23.7-2.4,33.1-7.1c9.4-4.7,16.8-11.7,22-20.8s7.8-20.6,7.8-33.8C1003.2,519.5,1000.7,508.3,995.7,499.3z M959.4,558
				c-4.9,5.6-11.4,8.4-19.6,8.4c-3.8,0-7.3-0.5-10.3-1.4c-3-1-5.5-2-7.4-3.1v-56.1c1.6-1,3.2-1.9,5-2.7c4-1.9,8.6-2.9,13.7-2.9
				c7.8,0,14.1,2.6,18.8,7.8c4.7,5.2,7.1,13.6,7.1,24.8C966.7,544,964.3,552.4,959.4,558z"/>
			<path class="st1" d="M1025.5,527.5v9.1h0L1025.5,527.5L1025.5,527.5z"/>
			<path class="st1" d="M1104.7,488.6c0,2.6-0.4,5-1.1,7.2c-0.7,2.2-1.6,4.2-2.5,5.8c-1.6-0.3-3.6-0.6-5.9-0.8s-4.8-0.4-7.6-0.4
				c-4.8,0-9.6,0.6-14.4,1.7s-8.9,2.6-12.2,4.5v84c-1.6,0.5-3.8,0.9-6.7,1.3c-2.9,0.4-6,0.6-9.4,0.6c-6.7,0-11.6-1.2-14.8-3.6
				c-3.1-2.4-4.7-6.7-4.7-13v-48.5h0v-25.2c0-4.5,1.1-8.3,3.2-11.4s5.2-5.9,9-8.3c5.3-3.2,11.6-5.7,19.1-7.6
				c7.4-1.8,15.2-2.8,23.4-2.8C1096.6,472.3,1104.7,477.7,1104.7,488.6z"/>
			<path class="st1" d="M1165.2,472c16.6,0,29.9,3.5,39.8,10.4c9.9,7,14.9,17.7,14.9,32.3v54.5c0,4-1,7.2-3.1,9.7s-4.7,4.6-7.9,6.4
				c-4.8,2.9-10.8,5.2-17.9,6.8c-7.1,1.7-15.2,2.5-24.4,2.5c-16.3,0-29.3-3.2-39-9.6c-9.7-6.4-14.5-15.9-14.5-28.6
				c0-10.9,3.4-19.2,10.1-25.1c6.7-5.8,16.7-9.4,30-10.7l31.9-3.4v-2.9c0-5.4-2.1-9.4-6.4-11.8c-4.2-2.4-10.3-3.6-18.1-3.6
				c-6.1,0-12,0.7-17.9,2.2s-11.1,3.1-15.7,5c-1.9-1.3-3.6-3.2-4.9-5.9s-2-5.4-2-8.3c0-6.7,3.7-11.6,11-14.6
				c4.6-1.9,10-3.3,16.2-4.2C1153.5,472.5,1159.5,472,1165.2,472L1165.2,472z M1169.5,432.7c5,0,9-1.2,12.1-3.7s5.2-5.6,6.1-9.5
				c0.8-0.2,1.5-0.3,2.2-0.4s1.4-0.1,2.2-0.1c5.6,0,9.8,1.6,12.5,4.8c2.7,3.2,4.1,6.7,4.1,10.6c0,6.7-3.4,12.5-10.2,17.3
				c-6.8,4.8-16.4,7.2-28.9,7.2s-22.3-2.4-29-7.2c-6.7-4.8-10.1-10.6-10.1-17.3c0-3.8,1.4-7.4,4.2-10.6c2.8-3.2,6.9-4.8,12.4-4.8
				c0.8,0,1.5,0,2.2,0.1s1.4,0.2,2.2,0.4c0.8,3.8,2.8,7,6,9.5S1164.6,432.7,1169.5,432.7z M1166.7,568.1c3.7,0,7.3-0.4,10.9-1.1
				c3.6-0.7,6.2-1.6,7.8-2.5v-23l-20.2,1.9c-5.4,0.3-9.8,1.4-13,3.4s-4.8,4.8-4.8,8.6s1.5,6.9,4.6,9.2S1159.9,568.1,1166.7,568.1
				L1166.7,568.1z"/>
			<path class="st1" d="M1297.3,606.5c-2.8-1.8-6.4-2.6-10.9-2.6c-3,0-6,0.4-9,1.3c-3,0.9-5.6,1.9-8,3c-0.6,5.8-1.8,11.8-3.6,18
				c-1.8,6.2-4.2,12.7-7.2,19.2c3.5,3.2,8,4.8,13.4,4.8c3.2,0,6.2-0.5,9-1.6s5.3-2.8,7.6-5.4v0c1.9-2.2,3.9-5,5.9-8.4
				s3.7-6.8,5-10.4c1.4-3.6,2-6.7,2-9.2C1301.6,611.1,1300.2,608.2,1297.3,606.5z M1282.8,527.5v6h0L1282.8,527.5L1282.8,527.5z"/>
			<path class="st1" d="M1317.8,568.5c1,2.1,1.6,4.5,1.6,7.2c0,5.4-2.2,9.9-6.7,13.4c-4.5,3.5-12,5.3-22.6,5.3
				c-13.4,0-23.9-3-31.3-9.1c-7.4-6.1-11.2-16-11.2-29.8V447.3c1.6-0.5,3.8-1,6.7-1.6s5.9-0.8,9.1-0.8c6.9,0,11.8,1.2,14.9,3.6
				c3,2.4,4.6,6.8,4.6,13.2v16.6h33.4c0.8,1.3,1.6,3.1,2.4,5.5c0.8,2.4,1.2,5,1.2,7.9c0,4.8-1.1,8.3-3.2,10.6
				c-2.2,2.2-5.1,3.4-8.8,3.4h-25v27.8h0v19.7c0,4.5,1.4,7.8,4.3,9.8c2.9,2.1,7,3.1,12.2,3.1c2.4,0,5-0.3,7.8-0.8
				c2.8-0.6,5.2-1.2,7.1-2C1315.6,564.7,1316.7,566.5,1317.8,568.5z"/>
			<path class="st1" d="M1377.6,527.5V546h0L1377.6,527.5L1377.6,527.5z M1342.1,527.5V546h0L1342.1,527.5L1342.1,527.5z
				 M1374.3,428.8c-3.7-3.7-8.6-5.5-14.4-5.5s-10.5,1.8-14.3,5.5c-3.8,3.7-5.6,8.2-5.6,13.7c0,5.3,1.9,9.8,5.6,13.7
				c3.8,3.8,8.4,5.8,14.3,5.8s10.7-1.9,14.4-5.8c3.7-3.9,5.5-8.2,5.5-13.7S1378,432.5,1374.3,428.8z"/>
			<path class="st1" d="M1377.7,546v44.7c-1.4,0.5-3.6,0.9-6.5,1.3c-2.9,0.4-6,0.6-9.4,0.6c-6.9,0-11.9-1.2-15-3.6
				c-3.1-2.4-4.7-6.7-4.7-13v-48.5h0v-50.4c1.4-0.5,3.6-1,6.6-1.4c3-0.5,6.1-0.7,9.5-0.7c6.9,0,11.8,1.2,14.9,3.5
				c3,2.3,4.6,6.8,4.6,13.3L1377.7,546L1377.7,546z"/>
			<path class="st1" d="M1499.8,557.3c0,11.7-4.4,20.8-13.2,27.5c-8.8,6.6-21.6,10-38.4,10c-13.1,0-23.9-1.9-32.4-5.8
				c-8.5-3.8-12.7-9.5-12.7-17c0-3.4,0.7-6.3,2.2-8.8c1.4-2.5,3.3-4.4,5.5-5.9c4.5,2.6,9.7,4.9,15.7,7.1c6,2.2,12.8,3.2,20.5,3.2
				c11.7,0,17.5-3.4,17.5-10.1c0-2.9-1-5.2-3.1-6.8c-2.1-1.7-5.5-2.9-10.3-3.7l-10.1-2.4c-12.8-2.7-22.4-6.9-28.7-12.6
				c-6.3-5.7-9.5-13.5-9.5-23.4c0-11.2,4.5-20.1,13.6-26.8c9-6.6,21.2-10,36.6-10c7.7,0,14.7,0.8,21,2.3s11.3,3.8,15,7
				s5.5,7,5.5,11.6c0,3.2-0.6,6-1.9,8.4s-3,4.4-5,6c-1.8-1.1-4.4-2.3-8-3.6c-3.6-1.3-7.5-2.3-11.8-3.1s-8.2-1.2-11.9-1.2
				c-5.8,0-10.2,0.8-13.4,2.3s-4.8,3.9-4.8,7.1c0,2.1,0.9,3.9,2.8,5.4s5.1,2.8,9.7,3.7l9.6,2.4c14.2,3.2,24.5,7.8,30.7,13.8
				S1499.8,547.7,1499.8,557.3L1499.8,557.3z M1457.3,643.2c-2.2,2.6-4.8,4.4-7.6,5.4c-2.8,1-5.8,1.6-9,1.6c-5.4,0-9.9-1.6-13.4-4.8
				c3-6.6,5.4-13,7.2-19.2c1.8-6.2,3-12.2,3.6-18c2.4-1.1,5.1-2.1,8-3c3-0.9,6-1.3,9-1.3c4.5,0,8.1,0.9,10.9,2.6s4.2,4.6,4.2,8.6
				c0,2.6-0.7,5.6-2,9.2s-3,7.1-5,10.4S1459.2,641,1457.3,643.2L1457.3,643.2z"/>
			<path class="st1" d="M1570.1,472c16.6,0,29.9,3.5,39.8,10.4c9.9,7,14.9,17.7,14.9,32.3v54.5c0,4-1,7.2-3.1,9.7s-4.7,4.6-7.9,6.4
				c-4.8,2.9-10.8,5.2-17.9,6.8c-7.1,1.7-15.2,2.5-24.4,2.5c-16.3,0-29.3-3.2-39-9.6c-9.7-6.4-14.5-15.9-14.5-28.6
				c0-10.9,3.4-19.2,10.1-25.1c6.7-5.8,16.7-9.4,30-10.7l31.9-3.4v-2.9c0-5.4-2.1-9.4-6.4-11.8c-4.2-2.4-10.3-3.6-18.1-3.6
				c-6.1,0-12,0.7-17.9,2.2s-11.1,3.1-15.7,5c-1.9-1.3-3.6-3.2-4.9-5.9s-2-5.4-2-8.3c0-6.7,3.7-11.6,11-14.6
				c4.6-1.9,10-3.3,16.2-4.2C1558.4,472.5,1564.4,472,1570.1,472L1570.1,472z M1571.6,568.1c3.7,0,7.3-0.4,10.9-1.1
				c3.6-0.7,6.2-1.6,7.8-2.5v-23l-20.2,1.9c-5.4,0.3-9.8,1.4-13,3.4s-4.8,4.8-4.8,8.6s1.5,6.9,4.6,9.2S1564.9,568.1,1571.6,568.1
				L1571.6,568.1z"/>
			<path class="st1" d="M1652.2,527.5v9.1h0L1652.2,527.5L1652.2,527.5z"/>
			<path class="st1" d="M1731.4,488.6c0,2.6-0.4,5-1.1,7.2c-0.7,2.2-1.6,4.2-2.5,5.8c-1.6-0.3-3.6-0.6-5.9-0.8
				c-2.3-0.2-4.8-0.4-7.6-0.4c-4.8,0-9.6,0.6-14.4,1.7s-8.9,2.6-12.2,4.5v84c-1.6,0.5-3.8,0.9-6.7,1.3c-2.9,0.4-6,0.6-9.4,0.6
				c-6.7,0-11.6-1.2-14.8-3.6c-3.1-2.4-4.7-6.7-4.7-13v-48.5h0v-25.2c0-4.5,1.1-8.3,3.2-11.4c2.2-3.1,5.2-5.9,9-8.3
				c5.3-3.2,11.6-5.7,19.1-7.6c7.4-1.8,15.2-2.8,23.4-2.8C1723.3,472.3,1731.4,477.7,1731.4,488.6z"/>
			<path class="st1" d="M1849.3,534c2.7-2.5,4.1-6.3,4.1-11.3c0-9.9-2.3-18.6-7-26.2c-4.6-7.5-11.1-13.5-19.3-17.9
				c-8.2-4.4-17.9-6.6-28.9-6.6c-7.5,0-14.8,1.2-21.7,3.6c-7,2.4-13.2,6-18.7,10.9c-5.5,4.9-9.9,11.1-13.2,18.6
				c-3.3,7.5-4.9,16.4-4.9,26.7c0,13.9,2.8,25.5,8.4,34.8c5.6,9.3,13.3,16.2,23.2,20.9c9.9,4.6,20.9,7,33.2,7c8.5,0,16-0.8,22.7-2.4
				c6.6-1.6,11.8-4,15.6-7.2s5.6-7.2,5.6-12c0-2.9-0.8-5.6-2.3-8.2c-1.5-2.6-3.5-4.6-5.9-6c-3.7,2.1-8.5,4.1-14.4,6
				c-5.9,1.9-12.2,2.9-19,2.9c-8.3,0-15.5-1.9-21.6-5.6c-4.9-3-8.2-7.6-10.1-13.9l62.9-9.3C1842.8,538.1,1846.6,536.5,1849.3,534z
				 M1761.7,550.1L1761.7,550.1L1761.7,550.1L1761.7,550.1z M1772.9,524.1c0.7-7.8,3.2-13.9,7.5-18.3c4.8-4.9,11.1-7.3,18-7.3
				c6.9,0,12.1,1.9,15.6,5.8c3.5,3.8,5.4,8,5.8,12.5L1772.9,524.1z"/>
			<path class="st1" d="M1874.7,574.3c0-5.8,1.9-10.6,5.6-14.4s8.8-5.8,15.2-5.8s11.2,1.9,15,5.8s5.6,8.6,5.6,14.4
				s-1.9,10.8-5.6,14.6s-8.8,5.8-15,5.8s-11.5-1.9-15.2-5.8S1874.7,580.2,1874.7,574.3z M1913.9,455.5c0,4-0.1,9.3-0.2,16
				c-0.2,6.6-0.4,14-0.8,22c-0.4,8-0.9,15.9-1.6,23.6c-0.6,7.8-1.4,14.8-2.4,21c-1.1,1-3.1,1.7-6,2.3c-2.9,0.6-5.4,0.8-7.4,0.8
				c-3.8,0-7.2-0.7-10-2c-2.8-1.4-4.5-3.8-5.2-7.3c-0.6-4-1.2-9.6-1.8-16.7s-1-15-1.4-23.6c-0.4-8.6-0.7-17.1-0.8-25.5
				c-0.2-8.3-0.2-15.6-0.2-21.9c5.9-3.5,12.6-5.3,20.2-5.3c5.6,0,10,1.4,13.1,4.1S1913.9,449.9,1913.9,455.5L1913.9,455.5z"/>
		</g>
	</g>
	<g>
		<g>
			<path class="st1" d="M92.5,508.3v5h0L92.5,508.3L92.5,508.3z"/>
			<path class="st1" d="M92.5,513.3v-34.6c0-4.6-1.1-7.8-3.3-9.6c-2.2-1.7-5.8-2.6-10.9-2.6c-2.4,0-4.7,0.2-6.8,0.5
				c-2.1,0.3-3.7,0.7-4.7,1v29.7c-1.1-0.4-2.2-0.8-3.5-1.1c-3.2-0.9-7-1.4-11.1-1.4c-8,0-15.3,1.6-21.9,4.9
				c-6.6,3.2-11.8,8.1-15.7,14.7s-5.8,15.4-5.8,25.1s1.9,17.9,5.7,24.4c3.8,6.5,9.2,11.5,16.2,14.7c7,3.2,15.3,4.9,25,4.9
				c6.6,0,12.4-0.8,17.5-2.3c5.1-1.6,9.1-3.4,12.3-5.5c2.5-1.5,4.4-3.2,5.6-5.1c1.2-1.9,1.7-4.3,1.7-7L92.5,513.3L92.5,513.3z
				 M66.8,560.6L66.8,560.6c-1.2,0.7-2.7,1.4-4.7,2c-2,0.6-4.2,1-6.8,1c-6.3,0-11.2-1.9-14.9-5.7c-3.6-3.8-5.5-9.8-5.5-17.9
				c0-5.6,0.9-10.2,2.6-13.7c1.7-3.6,4.2-6.3,7.3-8s6.7-2.6,10.8-2.6c3.5,0,6.5,0.6,9.2,1.7c0.7,0.3,1.3,0.6,1.9,0.9V560.6z"/>
			<path class="st1" d="M113.7,535.4v13.4h0L113.7,535.4L113.7,535.4z M137,464c-2.7-2.7-6.3-4-10.4-4c-4.2,0-7.6,1.3-10.3,4
				c-2.7,2.7-4.1,6-4.1,9.9c0,3.8,1.4,7.1,4.1,9.9c2.7,2.8,6,4.2,10.3,4.2c4.3,0,7.8-1.4,10.4-4.2c2.7-2.8,4-6,4-9.9
				S139.7,466.6,137,464z"/>
			<path class="st1" d="M139.5,509.5v71.6c-1,0.3-2.6,0.7-4.7,1c-2.1,0.3-4.4,0.4-6.8,0.4c-5,0-8.6-0.9-10.9-2.6s-3.4-4.9-3.4-9.4
				v-35.1h0v-36.5c1-0.4,2.6-0.7,4.8-1c2.1-0.3,4.4-0.5,6.9-0.5c5,0,8.6,0.8,10.8,2.5C138.4,501.5,139.5,504.8,139.5,509.5z"/>
			<path class="st1" d="M240.1,527.2v53.9c-1.2,0.3-2.8,0.7-4.9,1c-2.1,0.3-4.3,0.4-6.8,0.4c-4.9,0-8.5-0.9-10.8-2.6
				s-3.5-4.9-3.5-9.4v-35l0,0v-7.5c0-4.3-1.2-7.5-3.7-9.5c-2.5-2-5.8-3-9.8-3c-2.9,0-5.6,0.4-8,1.1c-2.4,0.8-4.6,1.7-6.6,2.7v16.2h0
				v45.5c-1.2,0.3-2.8,0.7-4.9,1c-2.1,0.3-4.3,0.4-6.8,0.4c-4.9,0-8.4-0.9-10.7-2.6c-2.3-1.7-3.4-4.9-3.4-9.4v-27h0v-27.1
				c0-2.9,0.6-5.3,1.8-7.2c1.2-1.9,3-3.6,5.3-5.1c3.7-2.5,8.5-4.7,14.2-6.3c5.8-1.7,12.2-2.5,19.1-2.5c12.5,0,22.2,2.8,29,8.3
				C236.7,509,240.1,516.9,240.1,527.2L240.1,527.2z"/>
			<path class="st1" d="M311.3,565.1c0.8,1.5,1.1,3.2,1.1,5.2c0,3.9-1.6,7.2-4.9,9.7c-3.2,2.6-8.7,3.8-16.3,3.8
				c-9.7,0-17.3-2.2-22.7-6.6c-5.4-4.4-8.1-11.6-8.1-21.6v-78.4c1.2-0.4,2.8-0.7,4.9-1.1c2.1-0.4,4.3-0.6,6.6-0.6
				c5,0,8.6,0.9,10.8,2.6c2.2,1.7,3.3,4.9,3.3,9.6v12h24.2c0.6,0.9,1.2,2.3,1.7,4c0.6,1.7,0.9,3.6,0.9,5.7c0,3.5-0.8,6-2.3,7.6
				c-1.6,1.6-3.7,2.4-6.3,2.4H286v20.2h0V554c0,3.2,1,5.6,3.1,7.1c2.1,1.5,5,2.3,8.9,2.3c1.7,0,3.6-0.2,5.6-0.6
				c2-0.4,3.7-0.9,5.1-1.5C309.7,562.3,310.6,563.6,311.3,565.1z"/>
			<path class="st1" d="M385.6,507.2c0,1.9-0.3,3.6-0.8,5.2c-0.5,1.6-1.1,3-1.8,4.2c-1.2-0.2-2.6-0.4-4.3-0.6
				c-1.7-0.2-3.5-0.3-5.5-0.3c-3.5,0-7,0.4-10.4,1.2c-3.5,0.8-6.4,1.9-8.9,3.3l0,0v60.9c-1.2,0.3-2.8,0.7-4.9,1
				c-2.1,0.3-4.3,0.4-6.8,0.4c-4.9,0-8.4-0.9-10.7-2.6s-3.4-4.9-3.4-9.4v-53.4c0-3.2,0.8-6,2.3-8.3c1.6-2.3,3.7-4.3,6.5-6
				c3.8-2.3,8.4-4.1,13.8-5.5c5.4-1.3,11-2,17-2C379.7,495.4,385.6,499.4,385.6,507.2z"/>
			<path class="st1" d="M433.1,547.2h-38.2c-0.7-1.2-1.3-2.6-1.9-4.4c-0.6-1.8-0.9-3.7-0.9-5.8c0-3.7,0.9-6.4,2.6-8.1
				c1.7-1.7,4.1-2.5,7-2.5h38.2c0.6,1,1.2,2.5,1.8,4.3c0.6,1.9,1,3.8,1,5.7c0,3.7-0.9,6.4-2.7,8.2
				C438.2,546.4,435.9,547.2,433.1,547.2L433.1,547.2z"/>
			<path class="st1" d="M543.6,539.6c0,9-1.8,16.9-5.5,23.6c-3.7,6.7-8.8,11.8-15.4,15.4c-6.6,3.6-14.4,5.4-23.3,5.4
				s-16.7-1.8-23.3-5.3c-6.6-3.5-11.7-8.6-15.4-15.3c-3.6-6.7-5.5-14.6-5.5-23.7s1.9-16.9,5.6-23.5c3.7-6.6,8.9-11.7,15.6-15.4
				c6.7-3.6,14.4-5.5,23.2-5.5s16.5,1.8,23,5.5c6.5,3.6,11.7,8.8,15.4,15.5C541.8,522.9,543.6,530.7,543.6,539.6L543.6,539.6z
				 M499.5,515.6c-5.5,0-9.8,2.1-13,6.3s-4.8,10.1-4.8,17.7s1.6,13.7,4.7,17.8c3.1,4.1,7.5,6.2,13,6.2s9.9-2.1,13-6.3
				s4.7-10.1,4.7-17.7s-1.6-13.4-4.7-17.7C509.4,517.7,505.1,515.6,499.5,515.6L499.5,515.6z"/>
		</g>
	</g>
	<g>
		<g>
			<path class="st1" d="M157.1,212.9c0,4.5-1.2,8.4-3.5,11.7c-2.3,3.3-5,5.9-7.9,7.9c-4.9-3.3-10.4-6.2-16.5-8.8
				c-6.1-2.5-13.4-3.8-21.7-3.8c-10.3,0-19.2,2.2-26.8,6.7s-13.4,11-17.3,19.5c-4,8.6-6,19-6,31.2c0,18.7,4.7,32.9,14,42.6
				c9.3,9.7,22.2,14.6,38.5,14.6c8.3,0,15.6-1.2,21.6-3.5c6-2.3,11.6-5,16.6-7.9c2.9,2.1,5.3,4.9,7.1,8.3c1.8,3.4,2.8,7.3,2.8,11.8
				c0,3.9-1,7.5-3.1,10.8c-2,3.3-5.5,6.1-10.4,8.5c-3.7,2-8.9,3.8-15.7,5.5c-6.8,1.8-15.1,2.6-24.8,2.6c-17.1,0-32.7-3.4-46.8-10.1
				c-14.1-6.7-25.2-16.9-33.4-30.6s-12.2-31.2-12.2-52.6c0-20.2,4-37.3,12.1-51.2c8.1-13.9,18.9-24.4,32.5-31.6
				c13.6-7.2,28.7-10.8,45.2-10.8c11.5,0,21.4,1.3,29.7,3.9c8.4,2.6,14.8,6.1,19.2,10.5C154.9,202.6,157.2,207.5,157.1,212.9
				L157.1,212.9z"/>
			<path class="st1" d="M240.2,221.4c20.2,0,36.4,4.2,48.4,12.7s18.1,21.5,18.1,39.2v66.2c0,4.9-1.3,8.8-3.8,11.8
				c-2.5,3-5.7,5.6-9.6,7.7c-5.8,3.5-13.1,6.3-21.7,8.3s-18.5,3.1-29.6,3.1c-19.8,0-35.6-3.9-47.4-11.7C182.9,351,177,339.4,177,324
				c0-13.2,4.1-23.4,12.2-30.5c8.2-7.1,20.3-11.4,36.4-13l38.8-4.1V273c0-6.6-2.6-11.4-7.7-14.3c-5.1-2.9-12.5-4.4-22-4.4
				c-7.4,0-14.6,0.9-21.7,2.6c-7.1,1.8-13.5,3.8-19.1,6.1c-2.3-1.5-4.3-3.9-6-7.1c-1.6-3.2-2.5-6.6-2.5-10.1
				c0-8.2,4.5-14.1,13.4-17.8c5.6-2.3,12.2-4,19.7-5.1C226,221.9,233.3,221.4,240.2,221.4L240.2,221.4z M257.7,200.1l-13.4-16.3
				c-4.9,5.6-9,10.4-12.5,14.1s-7.3,8.1-11.4,13c-6.6,0-11.9-1.6-15.9-4.7c-4-3.1-6-7-6-11.7c0-3.5,1-6.5,2.9-9
				c1.9-2.5,4.8-5.6,8.5-9.3l11.7-12.2c3.5-3.3,7-5.9,10.6-7.9c3.6-1.9,7.8-2.9,12.7-2.9s8.9,0.9,12.7,2.6c3.8,1.8,8,5.4,12.7,11.1
				l21.6,26.2c0,4.9-1.4,8.9-4.2,12.2s-7,5-12.7,5c-3.5,0-6.6-0.9-9.2-2.8S260.5,203.2,257.7,200.1z M242,338
				c4.5,0,8.9-0.4,13.3-1.3c4.4-0.9,7.5-1.9,9.5-3.1v-28l-24.5,2.3c-6.6,0.4-11.9,1.8-15.7,4.1c-3.9,2.3-5.8,5.8-5.8,10.5
				s1.9,8.4,5.5,11.2C227.9,336.6,233.8,338,242,338L242,338z"/>
			<path class="st1" d="M453.4,324.9c0,14.2-5.4,25.3-16,33.4s-26.2,12.1-46.6,12.1c-15.9,0-29.1-2.3-39.4-7
				c-10.3-4.7-15.5-11.6-15.5-20.7c0-4.1,0.9-7.6,2.6-10.6c1.8-3,4-5.4,6.7-7.1c5.4,3.1,11.8,6,19.1,8.6s15.6,3.9,24.9,3.9
				c14.2,0,21.3-4.1,21.3-12.2c0-3.5-1.3-6.3-3.8-8.3c-2.5-2-6.7-3.5-12.5-4.5l-12.2-2.9c-15.5-3.3-27.2-8.4-34.8-15.3
				c-7.7-6.9-11.5-16.4-11.5-28.4c0-13.6,5.5-24.4,16.5-32.5c11-8.1,25.8-12.1,44.5-12.1c9.3,0,17.8,0.9,25.5,2.8
				c7.7,1.9,13.8,4.7,18.2,8.5c4.5,3.8,6.7,8.5,6.7,14.1c0,3.9-0.8,7.3-2.3,10.2c-1.6,2.9-3.6,5.4-6.1,7.3c-2.1-1.4-5.4-2.8-9.8-4.4
				c-4.4-1.5-9.1-2.8-14.3-3.8c-5.1-1-10-1.5-14.4-1.5c-7,0-12.4,0.9-16.3,2.8c-3.9,1.9-5.8,4.7-5.8,8.6c0,2.5,1.1,4.7,3.4,6.6
				c2.2,1.9,6.2,3.4,11.8,4.5l11.7,2.9c17.3,3.9,29.7,9.5,37.3,16.8C449.6,303.8,453.4,313.2,453.4,324.9L453.4,324.9z M401.8,429.3
				c-2.7,3.1-5.8,5.3-9.2,6.6c-3.4,1.3-7,1.9-10.9,1.9c-6.6,0-12-2-16.3-5.8c3.7-8,6.6-15.8,8.8-23.3s3.6-14.9,4.4-21.9
				c2.9-1.4,6.2-2.6,9.8-3.6c3.6-1.1,7.2-1.6,10.9-1.6c5.4,0,9.9,1.1,13.3,3.2c3.4,2.1,5.1,5.6,5.1,10.5c0,3.1-0.8,6.9-2.5,11.2
				c-1.6,4.4-3.7,8.6-6.1,12.7C406.5,423.2,404.1,426.6,401.8,429.3L401.8,429.3z"/>
			<path class="st1" d="M480.5,288.7v7.3h0L480.5,288.7L480.5,288.7z"/>
			<path class="st1" d="M565.8,338.6c1.3,2.5,1.9,5.4,1.9,8.8c0,6.6-2.7,12.1-8.2,16.3s-14.6,6.4-27.4,6.4c-16.3,0-29-3.7-38-11.1
				c-9-7.4-13.6-19.4-13.6-36.2v-34.1l0,0v-97.4c1.9-0.6,4.7-1.2,8.2-1.9c3.5-0.7,7.2-1,11.1-1c8.4,0,14.4,1.5,18.1,4.4
				c3.7,2.9,5.5,8.3,5.5,16V229h40.5c1,1.6,1.9,3.8,2.9,6.7c1,2.9,1.5,6.1,1.5,9.6c0,5.8-1.3,10.1-3.9,12.8
				c-2.6,2.7-6.2,4.1-10.6,4.1h-30.3v57.7c0,5.4,1.8,9.4,5.2,12c3.5,2.5,8.5,3.8,14.9,3.8c2.9,0,6.1-0.3,9.5-1
				c3.4-0.7,6.3-1.5,8.6-2.5C563.1,333.9,564.5,336.1,565.8,338.6z"/>
			<path class="st1" d="M634.4,168.9c-4.5-4.5-10.5-6.7-17.5-6.7s-12.8,2.2-17.3,6.7c-4.6,4.5-6.9,10-6.9,16.6
				c0,6.4,2.3,12,6.9,16.6c4.6,4.7,10.2,7,17.3,7s13-2.3,17.5-7c4.5-4.7,6.7-10,6.7-16.6C641.1,178.9,638.9,173.4,634.4,168.9z"/>
			<path class="st1" d="M638.5,245.3v65.9l0,0v54.2c-1.8,0.6-4.4,1.1-7.9,1.6c-3.5,0.5-7.3,0.7-11.4,0.7c-8.4,0-14.4-1.5-18.2-4.4
				c-3.8-2.9-5.7-8.2-5.7-15.8V227.5c1.8-0.6,4.4-1.2,8-1.8c3.6-0.6,7.4-0.9,11.5-0.9c8.4,0,14.4,1.4,18.1,4.2
				C636.7,231.9,638.5,237.3,638.5,245.3z"/>
			<path class="st1" d="M799.2,243.1c-2.1-3.2-5-6-8.5-8.3c-5.1-3.3-12.1-6.4-21.1-9.2s-18.8-4.2-29.3-4.2c-14.6,0-27.4,2.7-38.5,8
				c-11.1,5.3-19.7,13.2-25.8,23.6c-6.1,10.4-9.2,23.3-9.2,38.6c0,16.5,3,29.9,8.9,40.1c5.9,10.2,13.8,17.5,23.6,21.9
				s20.5,6.6,31.9,6.6h0c8.4,0,15.5-0.9,21.3-2.6c3.3-1,6.3-2.1,9-3.3v10c0,8.9-3.2,15.4-9.6,19.4c-6.4,4-15.1,6-26,6
				c-8,0-15.5-1.1-22.7-3.4c-7.2-2.2-13.4-4.9-18.7-8c-2.3,1.5-4.3,3.9-6,7.1c-1.7,3.2-2.5,6.9-2.5,10.9c0,7.8,3.3,13.8,9.9,18.1
				c4.1,2.7,10.1,5,17.9,6.7s16.9,2.6,27,2.6c13.4,0,25.5-2,36.3-6.1c10.8-4.1,19.3-10.4,25.7-19s9.5-19.6,9.5-33.2V255.2
				C802.4,250.4,801.3,246.3,799.2,243.1z M760.7,320.9c-1.7,1.1-3.6,2.2-5.5,3.2c-4.3,2.2-9.6,3.4-16,3.4c-8.4,0-15.3-2.6-20.8-7.7
				c-5.5-5.1-8.3-14.5-8.3-28.1c0-12.4,3-21.6,8.9-27.4s13.6-8.8,22.9-8.8c4.5,0,8.2,0.5,11.2,1.5c3,1,5.6,2,7.7,3.2V320.9z"/>
			<path class="st1" d="M891.9,221.4c20.2,0,36.3,4.2,48.4,12.7c12,8.5,18.1,21.5,18.1,39.2v66.2c0,4.9-1.3,8.8-3.8,11.8
				c-2.5,3-5.7,5.6-9.6,7.7c-5.8,3.5-13.1,6.3-21.7,8.3c-8.7,2-18.5,3.1-29.6,3.1c-19.8,0-35.6-3.9-47.4-11.7s-17.6-19.3-17.6-34.7
				c0-13.2,4.1-23.4,12.2-30.5c8.2-7.1,20.3-11.4,36.5-13l38.8-4.1V273c0-6.6-2.6-11.4-7.7-14.3c-5.2-2.9-12.5-4.4-22-4.4
				c-7.4,0-14.6,0.9-21.7,2.6c-7.1,1.8-13.5,3.8-19.1,6.1c-2.3-1.5-4.3-3.9-6-7.1c-1.7-3.2-2.5-6.6-2.5-10.1
				c0-8.2,4.5-14.1,13.4-17.8c5.6-2.3,12.2-4,19.7-5.1S884.9,221.4,891.9,221.4L891.9,221.4z M897.1,173.6c6,0,10.9-1.5,14.7-4.5
				c3.8-3,6.3-6.9,7.4-11.5c1-0.2,1.8-0.3,2.6-0.4c0.8-0.1,1.7-0.1,2.6-0.1c6.8,0,11.8,1.9,15.2,5.8c3.3,3.9,5,8.2,5,12.8
				c0,8.2-4.1,15.2-12.4,21c-8.3,5.8-20,8.8-35.1,8.8s-27.1-2.9-35.3-8.8s-12.2-12.8-12.2-21c0-4.7,1.7-8.9,5.1-12.8
				c3.4-3.9,8.4-5.8,15-5.8c1,0,1.8,0.1,2.6,0.1c0.8,0.1,1.7,0.2,2.6,0.4c1,4.7,3.4,8.5,7.3,11.5
				C886.1,172.1,891.1,173.6,897.1,173.6L897.1,173.6z M893.6,338c4.5,0,8.9-0.4,13.3-1.3c4.4-0.9,7.5-1.9,9.5-3.1v-28l-24.5,2.3
				c-6.6,0.4-11.9,1.8-15.7,4.1c-3.9,2.3-5.8,5.8-5.8,10.5s1.8,8.4,5.5,11.2S885.5,338,893.6,338L893.6,338z"/>
		</g>
	</g>
	<g>
		<g>
			<path class="st1" d="M1053.1,281.3c-4.2,0-7.8,1.4-10.8,4.1c-3,2.8-4.5,6.8-4.5,12.1s1.4,9.2,4.3,11.8c2.9,2.6,6.5,4,10.9,4
				c2.6,0,4.8-0.3,6.7-1c1.9-0.7,3.6-1.4,5-2.2c1.3,0.9,2.3,2,3,3.1c0.7,1.1,1.1,2.5,1.1,4.1c0,2.9-1.6,5.2-4.7,7
				c-3.1,1.8-7.4,2.7-13,2.7c-6.2,0-11.6-1.1-16.3-3.3s-8.3-5.6-10.9-10s-3.9-9.9-3.9-16.3c0-6.8,1.4-12.4,4.2-16.8
				c2.8-4.4,6.5-7.7,11.2-9.9s9.7-3.3,15.2-3.3s9.6,1,12.7,2.9c3.1,2,4.6,4.4,4.6,7.2c0,1.4-0.3,2.7-1,3.8c-0.7,1.1-1.4,2.1-2.3,3
				c-1.5-0.8-3.2-1.5-5.1-2.2C1057.7,281.6,1055.5,281.3,1053.1,281.3L1053.1,281.3z"/>
			<path class="st1" d="M1133.3,295.1v18.7c0,1.9-0.4,3.5-1.1,4.8s-1.9,2.5-3.6,3.5c-2.5,1.6-5.6,2.8-9.2,3.7
				c-3.6,0.9-7.7,1.3-12.1,1.3c-5.5,0-10.4-0.8-14.6-2.5c-4.2-1.6-7.4-4.2-9.7-7.7c-2.3-3.5-3.4-8-3.4-13.5l0,0v-34
				c0.7-0.2,1.8-0.5,3.2-0.7c1.4-0.2,2.9-0.4,4.6-0.4c3.3,0,5.8,0.6,7.3,1.7c1.5,1.1,2.3,3.3,2.3,6.5v26.8c0,3.6,0.9,6.2,2.8,7.7
				c1.8,1.6,4.4,2.3,7.8,2.3c2.1,0,3.9-0.2,5.3-0.6c1.4-0.4,2.5-0.8,3.2-1.2v-11.4h0v-30.9c0.8-0.2,1.9-0.5,3.3-0.7
				c1.4-0.2,2.9-0.4,4.6-0.4c3.4,0,5.8,0.6,7.3,1.7s2.3,3.3,2.3,6.5L1133.3,295.1L1133.3,295.1z"/>
		</g>
	</g>
	<g id="XMLID_00000137131990390174483650000011618340072678571402_" class="st2">
		<path class="st1" d="M1594,38.2c-7-17.6-36.8-40.7-60.4-38c-0.6,0.1-0.9,0.7-0.6,1.2c0.9,1.5,2.4,4.8,2.1,10.9
			c-0.7,14.8-24,29-27.9,35.9l0,0c-3.4,4-6.2,8.5-8.2,13.3c-6.1,14.1-4.7,28.3,0.5,42.4c1.7,4.5,3.8,8.9,5.7,13.4
			c-0.3,0.2-0.3,0.2-0.5,0.4c-2.6-1.9-5.2-3.9-8-5.5c-11-6.4-22.4-9.2-34.4-2.9c-17.1,9.1-22.8,29.4-12.2,45.8
			c8.3,12.8,23.8,17.1,39.6,16.8c0,0,39.8,4.5,78.5-35.8c2-2,3.8-4,5.4-5.8v0c0,0,0,0,0,0c6.5-7.3,10.9-13.3,13.6-19.1
			C1604.5,81.6,1602.4,55.7,1594,38.2z"/>
	</g>
	<path class="st1" d="M1566,234.7V277c0,4.6-0.4,9.2-1.3,13.6c-0.9,4.4-2.3,8.4-4.4,11.9c-2.1,3.5-4.8,6.3-8.2,8.4
		c-3.4,2.1-7.8,3.2-13.1,3.2c-6.2,0-11.4-1.5-15.6-4.4c-4.2-2.9-7.3-6.5-9.3-10.8c-2.1-4.3-3-9-3-14c0.1-5,1.2-9.7,3.3-14
		c2.1-4.3,5.2-7.9,9.3-10.8c4.1-2.9,9.2-4.4,15.3-4.4c1.9,0,3.8,0.1,5.9,0.4c2.1,0.3,4,0.7,6,1.4c1.9,0.7,3.7,1.6,5.4,2.7
		c1.7,1.1,3.1,2.5,4.3,4.1c1.2-2.1,1.8-5,1.7-8.5c-0.1-3.6-1-7.1-2.8-10.4c-1.8-3.4-4.6-6.4-8.4-8.9c-3.8-2.6-8.9-4-15.3-4.3
		c-6.5-0.3-12.7,0.8-18.8,3.2c-6,2.4-11.4,5.8-16.1,10.3c-4.7,4.5-8.4,10-11.2,16.5c-2.8,6.5-4.2,13.7-4.2,21.6
		c0,8.2,1.3,15.6,3.9,22.2c2.6,6.6,6,12.2,10.3,16.9c4.3,4.6,9.3,8.2,14.9,10.8c5.6,2.6,11.4,4,17.4,4.2c6,0.2,11.9-0.8,17.8-3
		c5.9-2.2,11.4-5.8,16.4-10.8c0,3.7,1.7,20.3-5.7,28.8c-2.3,2.6-5.2,5-9,6.7c-3.8,1.7-8.8,2.7-14.9,3c-3.3,0.1-6.9-0.2-10.8-1
		c-3.9-0.8-7.7-1.9-11.5-3.3c-3.8-1.4-7.3-3.1-10.7-5.1c-3.4-2-6.1-4.2-8.2-6.6c-2,6.9-2.1,12.8-0.2,17.8c1.9,5,5,9.1,9.3,12.3
		c4.4,3.2,9.6,5.7,15.8,7.2c6.2,1.6,12.5,2.4,19.2,2.4c8.6,0,16.2-1.2,22.7-3.6c6.6-2.4,12-5.8,16.5-10.3c4.4-4.5,7.8-9.9,10-16.3
		c2.3-6.4,3.4-22.1,3.4-29.9v-65.5C1591.8,246.3,1580.2,234.7,1566,234.7z M1696.6,239.9c-4.8-3.6-11.2-5.2-18.9-4.9l0,0v49.2
		c0,2.4,0,4.9-0.1,7.6c-0.1,2.7-0.3,5.4-0.8,7.9c-0.5,2.6-1.3,5-2.4,7.2c-1.1,2.3-2.8,4.2-5.1,5.8c-1.5,1.1-3.1,1.9-5.1,2.4
		c-1.9,0.5-3.9,0.8-5.9,0.8c-2,0-3.9-0.3-5.8-0.8c-1.9-0.5-3.6-1.3-5.2-2.4c-2.2-1.5-3.9-3.3-5.1-5.5c-1.1-2.2-1.9-4.5-2.4-7.1
		c-0.5-2.5-0.7-5.1-0.7-7.7v-37.1c0.1-7.1-2.2-12.5-7-16c-4.8-3.5-11-5.1-18.7-4.9v43.7c-0.1,9,0.2,16.5,0.9,22.5
		c0.7,6,1.8,10.8,3.3,14.2c3.8,8.9,9.3,15.2,16.3,19.1c7,3.8,15.2,5.8,24.6,5.8c10.2,0,18.9-2.2,26.2-6.8
		c7.3-4.5,12.5-11.7,15.7-21.6c0.9-3,1.7-7.2,2.2-12.4c0.5-5.2,0.8-11,0.8-17.2l0-24.7v-1C1703.8,248.9,1701.4,243.4,1696.6,239.9z
		 M1441.6,234.7V277c0,4.6-0.4,9.3-1.3,14c-0.9,4.7-2.3,8.9-4.4,12.7c-2.1,3.8-4.8,6.9-8.2,9.2c-3.4,2.4-7.8,3.6-13.1,3.6
		c-6.2,0-11.4-1.5-15.6-4.5c-4.2-3-7.3-6.7-9.3-11.3c-2.1-4.5-3-9.4-3-14.6c0.1-5.2,1.2-10.1,3.3-14.6c2.1-4.5,5.2-8.3,9.3-11.3
		c4.1-3,9.2-4.5,15.3-4.5c3.8,0,7.8,0.6,11.9,1.7c4.1,1.2,7.3,3.4,9.5,6.8c1.2-2.1,1.8-4.9,1.7-8.4c-0.1-3.5-1-7-2.8-10.4
		c-1.8-3.4-4.6-6.5-8.4-9c-3.8-2.6-8.9-4-15.3-4.3c-6.5-0.3-12.7,0.9-18.8,3.5c-6,2.6-11.4,6.3-16.1,11c-4.7,4.8-8.4,10.5-11.2,17.3
		c-2.8,6.8-4.2,14.1-4.2,22c0,8.3,1.3,15.8,3.9,22.3c2.6,6.6,6,12.2,10.3,16.9c4.3,4.7,9.3,8.3,14.9,10.8c5.6,2.5,11.4,3.9,17.4,4.1
		c6,0.2,11.9-0.8,17.8-3.1c5.9-2.2,11.4-5.8,16.4-10.7v11.3h25.8v-77.1C1467.5,246.3,1455.9,234.7,1441.6,234.7z M1340.8,260.7
		c-3.2-9.9-8.4-17.1-15.7-21.6c-7.3-4.5-16-6.8-26.2-6.8h-0.2c-9.8,0-19.9,2.2-30,12.8l-0.1,0.1c-2.1-2.4-4.4-4.5-7.1-6.2
		c-7.3-4.5-16-6.8-26.2-6.8h-0.2c-9.2,0-18,3-25.5,8.3c-0.3-0.3-0.5-0.6-0.9-0.8c-4.8-3.5-11-5.1-18.7-4.9v102.6h25.8l0.1-60.5
		l0,0.2c0.1-1.8,0.3-3.6,0.6-5.4c0.5-2.5,1.3-4.9,2.4-7.1c1.1-2.2,2.8-4,5.1-5.5c1.6-1.1,3.3-1.9,5.2-2.4c1.9-0.5,3.8-0.8,5.8-0.8
		c2,0,3.9,0.3,5.9,0.8c1.9,0.5,3.6,1.3,5.1,2.4c2.3,1.6,3.9,3.5,5.1,5.8c1.1,2.3,1.9,4.7,2.4,7.2c0.5,2.6,0.7,5.2,0.8,7.9
		c0.1,2.7,0.1,5.3,0.1,7.6v49.6h26v-47.3c0-5-0.2-9.5-0.5-13.8c0.1-1.6,0.3-3.1,0.5-4.7c0.5-2.5,1.3-4.9,2.4-7.1
		c1.1-2.2,2.8-4,5.1-5.5c1.6-1.1,3.3-1.9,5.2-2.4c1.9-0.5,3.8-0.8,5.8-0.8c2,0,3.9,0.3,5.9,0.8c1.9,0.5,3.6,1.3,5.1,2.4
		c2.3,1.6,3.9,3.5,5.1,5.8c1.1,2.3,1.9,4.7,2.4,7.2c0.5,2.6,0.7,5.2,0.8,7.9c0.1,2.7,0.1,5.3,0.1,7.6v49.6h26v-47.3
		c0-6.2-0.3-11.9-0.8-17.2C1342.5,267.9,1341.7,263.8,1340.8,260.7z M1894,234.7V277c0,4.6-0.4,9.3-1.3,14
		c-0.9,4.7-2.3,8.9-4.4,12.7c-2.1,3.8-4.8,6.9-8.2,9.2c-3.4,2.4-7.8,3.6-13.1,3.6c-6.2,0-11.4-1.5-15.6-4.5c-4.2-3-7.3-6.7-9.3-11.3
		c-2.1-4.5-3-9.4-3-14.6c0.1-5.2,1.2-10.1,3.3-14.6c2.1-4.5,5.2-8.3,9.3-11.3c4.1-3,9.2-4.5,15.3-4.5c3.8,0,7.8,0.6,11.9,1.7
		c4.1,1.2,7.3,3.4,9.5,6.8c1.2-2.1,1.8-4.9,1.7-8.4c-0.1-3.5-1-7-2.8-10.4c-1.8-3.4-4.6-6.5-8.4-9c-3.8-2.6-8.9-4-15.3-4.3
		c-6.5-0.3-12.7,0.9-18.8,3.5c-6,2.6-11.4,6.3-16.1,11c-4.7,4.8-8.4,10.5-11.2,17.3c-2.8,6.8-4.2,14.1-4.2,22
		c0,8.3,1.3,15.8,3.9,22.3c2.6,6.6,6,12.2,10.3,16.9c4.3,4.7,9.3,8.3,14.9,10.8c5.6,2.5,11.4,3.9,17.4,4.1c6,0.2,11.9-0.8,17.8-3.1
		c5.9-2.2,11.4-5.8,16.4-10.7v11.3h25.8v-77.1C1919.8,246.3,1908.3,234.7,1894,234.7z M1776.8,231.9c-20.7,0.4-26.7,10.9-28.9,15.5
		c0-7.2-5.9-13.1-13.1-13.1h-9.1v103.3h25.8v-50.3c0-3.1,0.1-6.3,0.4-9.4c0.5-5.6,2.1-10.2,5.3-13.5c9.4-9.7,24.3-8.8,29.3-7.4
		c3.7,1,9.6,3.8,10.7,6.5c2.9-2.1,4.7-5,5.4-8.6c0.7-3.6,0.6-7.3-1.1-10.7C1796.3,233.5,1782.4,231.8,1776.8,231.9z M1806.4,113.5
		c-4.4,3.1-73.3,51.3-169.9,66.6c-13,2.4-26.2,3.9-39,4.8c4.4-0.7,8.9-1.5,13.3-2.5c2.9-1.5,5.6-3,8.1-4.4v0l0,0
		c10.5-6,18-11.4,23.5-17.1c32.1-28.1,39.9-59.4,36.8-83.3c-1.3-23.5-27.2-62.4-56-68.5c-0.7-0.1-1.3,0.5-1.1,1.2
		c0.5,2.1,0.9,6.6-1.8,13.6c-6.7,17.1-39.7,24.7-47,31.3c-5.6,3.4-10.6,7.6-14.9,12.4c-12.7,14.2-16.7,31.5-16.2,50
		c0.2,6,0.9,12,1.4,18c-0.4,0.2-0.4,0.1-0.8,0.3c-2.4-3.2-4.6-6.6-7.2-9.6c-10.4-11.9-22.7-19.7-39.4-16.9
		c-23.7,3.9-38.4,25.6-32.4,49.1c2.1,8.3,6.6,15,12.7,20.5c-16.9-2.5-34.5-5.9-50.9-10.5c-28.2-7.8-56.2-20.4-59.4-21.8l0,0.1
		c-52.8-22.1-68.7,8.3-70,11.2c0.9,0.5,1.9,0.9,2.9,1.3l0.1,0c22,7.8,82.4,27.2,121.1,33.1c81.2,12.5,138.4,8.6,138.4,8.6
		c113.2-5.7,190.5-40.5,236.3-62.3c21.8-10.4,11.7-25.4,11.7-25.4L1806.4,113.5z"/>
</g>
</svg>
