<?xml version="1.0" encoding="UTF-8"?>
<svg  xmlns="http://www.w3.org/2000/svg" viewBox="0 0 1929.95 703.71">
  <g >
    <g style="isolation: isolate;">
      <g style="isolation: isolate;">
        <path d="m649.15,454.51l-11.04-13.44c-4,4.64-7.44,8.52-10.32,11.64-2.88,3.12-6.08,6.69-9.6,10.68-5.44,0-9.76-1.28-12.96-3.84-3.2-2.56-4.8-5.76-4.8-9.6,0-2.88.76-5.36,2.28-7.44,1.52-2.08,3.8-4.64,6.84-7.68l9.84-10.08c2.72-2.72,5.6-4.88,8.64-6.48,3.04-1.6,6.56-2.4,10.56-2.4s7.32.72,10.44,2.16c3.12,1.44,6.6,4.48,10.44,9.12l17.76,21.61c0,4-1.16,7.36-3.48,10.08-2.32,2.72-5.88,4.08-10.68,4.08-2.72,0-5.16-.76-7.32-2.28-2.16-1.52-4.36-3.56-6.6-6.12Zm6.72,81.15h-35.52v-58.58c1.44-.48,3.6-.92,6.48-1.32,2.88-.4,6-.6,9.36-.6,6.88,0,11.88,1.16,15,3.48,3.12,2.32,4.68,6.68,4.68,13.08v43.93Zm-35.52-11.52h35.52v66.74c-1.44.32-3.6.72-6.48,1.2s-6,.72-9.36.72c-6.88,0-11.88-1.2-15-3.6-3.12-2.4-4.68-6.8-4.68-13.2v-51.86Z" style="fill: #fff;"/>
        <path d="m789.32,511.41v27.37h-35.77v-22.81c0-5.44-1.6-9.44-4.8-12-3.2-2.56-7.2-3.84-12-3.84-3.52,0-6.68.52-9.48,1.56-2.8,1.04-5.16,2.12-7.08,3.24v33.85h-35.53v-37.45c0-4,.84-7.32,2.52-9.96,1.68-2.64,4.12-5,7.32-7.08,5.28-3.68,11.76-6.64,19.44-8.88,7.68-2.24,15.68-3.36,24-3.36,7.68,0,14.88,1.2,21.6,3.6,6.72,2.4,12.56,6.08,17.52,11.04,1.28.96,2.52,1.96,3.72,3,1.2,1.04,2.12,2.2,2.76,3.48,1.6,2.56,2.96,5.44,4.08,8.64,1.12,3.2,1.68,6.4,1.68,9.6Zm-104.66,16.33h35.53v62.9c-1.6.48-3.84.92-6.72,1.32-2.88.4-6,.6-9.36.6-6.72,0-11.64-1.2-14.76-3.6-3.12-2.4-4.68-6.72-4.68-12.96v-48.25Zm68.89,0h35.77v62.9c-1.6.48-3.84.92-6.72,1.32-2.88.4-6,.6-9.36.6-6.88,0-11.88-1.2-15-3.6-3.12-2.4-4.68-6.72-4.68-12.96v-48.25Zm104.65-12.72v23.77h-35.52v-22.81c0-5.44-1.52-9.44-4.56-12-3.04-2.56-7.04-3.84-12-3.84-3.68,0-7.16.76-10.44,2.28-3.28,1.52-6.12,3.32-8.52,5.4l-18.72-20.65c5.28-4.16,11.28-7.72,18-10.68,6.72-2.96,14.96-4.44,24.72-4.44,8.32,0,16.08,1.44,23.28,4.32s12.96,7.44,17.28,13.68c4.32,6.24,6.48,14.57,6.48,24.97Zm-35.52,12.72h35.52v62.9c-1.44.48-3.6.92-6.48,1.32-2.88.4-6,.6-9.36.6-6.88,0-11.88-1.2-15-3.6s-4.68-6.72-4.68-12.96v-48.25Z" style="fill: #fff;"/>
        <path d="m922.3,496.77h-35.53v-62.18c1.44-.48,3.6-.96,6.48-1.44,2.88-.48,6-.72,9.36-.72,6.88,0,11.88,1.2,15,3.6,3.12,2.4,4.68,6.8,4.68,13.2v47.54Zm24.96-24.73c10.4,0,19.84,2.28,28.32,6.84,8.48,4.56,15.2,11.37,20.16,20.41,4.96,9.04,7.44,20.21,7.44,33.49s-2.6,24.73-7.8,33.85c-5.2,9.12-12.52,16.05-21.96,20.77-9.44,4.72-20.48,7.08-33.12,7.08-9.92,0-18.45-1.2-25.56-3.6-7.12-2.4-13.08-5.2-17.88-8.4-3.36-2.4-5.88-5.04-7.56-7.92-1.68-2.88-2.52-6.24-2.52-10.08v-76.1h35.29v73.46c1.92,1.12,4.4,2.16,7.44,3.12,3.04.96,6.48,1.44,10.32,1.44,8.16,0,14.68-2.8,19.56-8.4,4.88-5.6,7.32-14,7.32-25.21s-2.36-19.64-7.08-24.85c-4.72-5.2-11.01-7.8-18.84-7.8-5.12,0-9.68.96-13.68,2.88-4,1.92-7.44,4.08-10.32,6.48l-.96-28.81c3.68-2.08,8.2-4.04,13.56-5.88,5.36-1.84,11.32-2.76,17.88-2.76Z" style="fill: #fff;"/>
        <path d="m1061.04,506.61v30.01h-35.53v-34.33c0-4.48,1.08-8.28,3.24-11.4,2.16-3.12,5.16-5.88,9-8.28,5.28-3.2,11.64-5.72,19.08-7.56,7.44-1.84,15.24-2.76,23.4-2.76,16.32,0,24.48,5.44,24.48,16.33,0,2.56-.36,4.96-1.08,7.2-.72,2.24-1.56,4.16-2.52,5.76-1.6-.32-3.56-.6-5.88-.84-2.32-.24-4.84-.36-7.56-.36-4.8,0-9.6.56-14.4,1.68-4.8,1.12-8.88,2.64-12.24,4.56Zm-35.53,20.89l35.53.72v62.42c-1.6.48-3.84.92-6.72,1.32-2.88.4-6,.6-9.36.6-6.72,0-11.64-1.2-14.76-3.6s-4.68-6.72-4.68-12.96v-48.5Z" style="fill: #fff;"/>
        <path d="m1165.22,472.04c16.64,0,29.92,3.48,39.85,10.44,9.92,6.96,14.88,17.73,14.88,32.29v54.5c0,4-1.04,7.24-3.12,9.72-2.08,2.48-4.72,4.6-7.92,6.36-4.8,2.88-10.76,5.16-17.88,6.84-7.12,1.68-15.24,2.52-24.36,2.52-16.32,0-29.33-3.2-39.01-9.6-9.68-6.4-14.52-15.92-14.52-28.57,0-10.88,3.36-19.24,10.08-25.09,6.72-5.84,16.72-9.4,30-10.68l31.92-3.36v-2.88c0-5.44-2.12-9.36-6.36-11.76-4.24-2.4-10.28-3.6-18.12-3.6-6.08,0-12.04.72-17.88,2.16-5.84,1.44-11.08,3.12-15.72,5.04-1.92-1.28-3.56-3.24-4.92-5.88-1.36-2.64-2.04-5.4-2.04-8.28,0-6.72,3.68-11.6,11.04-14.64,4.64-1.92,10.04-3.32,16.2-4.2,6.16-.88,12.12-1.32,17.88-1.32Zm4.32-39.37c4.96,0,9-1.24,12.12-3.72,3.12-2.48,5.16-5.64,6.12-9.48.8-.16,1.52-.28,2.16-.36.64-.08,1.36-.12,2.16-.12,5.6,0,9.76,1.6,12.48,4.8,2.72,3.2,4.08,6.72,4.08,10.56,0,6.72-3.4,12.48-10.2,17.29-6.8,4.8-16.44,7.2-28.92,7.2s-22.32-2.4-29.04-7.2c-6.72-4.8-10.08-10.56-10.08-17.29,0-3.84,1.4-7.36,4.2-10.56,2.8-3.2,6.92-4.8,12.36-4.8.8,0,1.52.04,2.16.12.64.08,1.36.2,2.16.36.8,3.84,2.8,7,6,9.48,3.2,2.48,7.28,3.72,12.24,3.72Zm-2.88,135.4c3.68,0,7.32-.36,10.92-1.08,3.6-.72,6.2-1.56,7.8-2.52v-23.05l-20.16,1.92c-5.44.32-9.76,1.44-12.96,3.36-3.2,1.92-4.8,4.8-4.8,8.64s1.52,6.92,4.56,9.24c3.04,2.32,7.92,3.48,14.64,3.48Z" style="fill: #fff;"/>
        <path d="m1282.83,533.5h-35.29v-86.19c1.6-.48,3.84-1,6.72-1.56,2.88-.56,5.92-.84,9.12-.84,6.88,0,11.84,1.2,14.88,3.6,3.04,2.4,4.56,6.8,4.56,13.21v71.78Zm-35.29-6h35.29v25.69c0,4.48,1.44,7.77,4.32,9.84,2.88,2.08,6.96,3.12,12.24,3.12,2.4,0,5-.28,7.8-.84,2.8-.56,5.16-1.24,7.08-2.04,1.28,1.44,2.44,3.2,3.48,5.28,1.04,2.08,1.56,4.48,1.56,7.2,0,5.44-2.24,9.93-6.72,13.44-4.48,3.52-12,5.28-22.56,5.28-13.44,0-23.88-3.04-31.33-9.12-7.44-6.08-11.16-16-11.16-29.77v-28.09Zm41.05,115.72c-2.24,2.56-4.76,4.36-7.56,5.4-2.8,1.04-5.8,1.56-9,1.56-5.44,0-9.92-1.6-13.44-4.8,3.04-6.56,5.44-12.96,7.2-19.21,1.76-6.24,2.96-12.24,3.6-18.01,2.4-1.12,5.08-2.12,8.04-3,2.96-.88,5.96-1.32,9-1.32,4.48,0,8.12.88,10.92,2.64,2.8,1.76,4.2,4.64,4.2,8.64,0,2.56-.68,5.64-2.04,9.24-1.36,3.6-3.04,7.08-5.04,10.44-2,3.36-3.96,6.16-5.88,8.4Zm-18.48-137.56v-27.37h46.09c.8,1.28,1.6,3.12,2.4,5.52.8,2.4,1.2,5.04,1.2,7.92,0,4.8-1.08,8.32-3.24,10.56-2.16,2.24-5.08,3.36-8.76,3.36h-37.69Z" style="fill: #fff;"/>
        <path d="m1339.96,442.51c0-5.44,1.88-10,5.64-13.68,3.76-3.68,8.52-5.52,14.28-5.52s10.72,1.84,14.4,5.52c3.68,3.68,5.52,8.24,5.52,13.68s-1.84,9.84-5.52,13.69c-3.68,3.84-8.48,5.76-14.4,5.76s-10.52-1.92-14.28-5.76c-3.76-3.84-5.64-8.4-5.64-13.69Zm37.69,103.47h-35.53v-68.9c1.44-.48,3.64-.96,6.6-1.44,2.96-.48,6.12-.72,9.48-.72,6.88,0,11.84,1.16,14.88,3.48,3.04,2.32,4.56,6.76,4.56,13.32v54.26Zm-35.53-18.49h35.53v63.14c-1.44.48-3.6.92-6.48,1.32-2.88.4-6,.6-9.36.6-6.88,0-11.88-1.2-15-3.6-3.12-2.4-4.68-6.72-4.68-12.96v-48.5Z" style="fill: #fff;"/>
        <path d="m1499.82,557.27c0,11.68-4.4,20.85-13.2,27.49-8.8,6.64-21.6,9.96-38.41,9.96-13.12,0-23.92-1.92-32.41-5.76-8.48-3.84-12.72-9.52-12.72-17.04,0-3.36.72-6.28,2.16-8.76,1.44-2.48,3.28-4.44,5.52-5.88,4.48,2.56,9.72,4.92,15.72,7.08,6,2.16,12.84,3.24,20.52,3.24,11.68,0,17.52-3.36,17.52-10.08,0-2.88-1.04-5.16-3.12-6.84-2.08-1.68-5.52-2.92-10.32-3.72l-10.08-2.4c-12.8-2.72-22.37-6.92-28.68-12.6-6.32-5.68-9.48-13.48-9.48-23.41,0-11.2,4.52-20.12,13.56-26.77,9.04-6.64,21.24-9.96,36.6-9.96,7.68,0,14.68.76,21,2.28,6.32,1.52,11.32,3.84,15,6.96,3.68,3.12,5.52,7,5.52,11.64,0,3.2-.64,6-1.92,8.4-1.28,2.4-2.96,4.4-5.04,6-1.76-1.12-4.44-2.32-8.04-3.6-3.6-1.28-7.52-2.32-11.76-3.12-4.24-.8-8.2-1.2-11.88-1.2-5.76,0-10.24.76-13.44,2.28-3.2,1.52-4.8,3.88-4.8,7.08,0,2.08.92,3.88,2.76,5.4,1.84,1.52,5.08,2.76,9.72,3.72l9.6,2.4c14.24,3.2,24.48,7.8,30.72,13.8,6.24,6,9.36,13.8,9.36,23.41Zm-42.49,85.95c-2.24,2.56-4.76,4.36-7.56,5.4-2.8,1.04-5.8,1.56-9,1.56-5.44,0-9.92-1.6-13.44-4.8,3.04-6.56,5.44-12.96,7.2-19.21,1.76-6.24,2.96-12.24,3.6-18.01,2.4-1.12,5.08-2.12,8.04-3,2.96-.88,5.96-1.32,9-1.32,4.48,0,8.12.88,10.92,2.64,2.8,1.76,4.2,4.64,4.2,8.64,0,2.56-.68,5.64-2.04,9.24-1.36,3.6-3.04,7.08-5.04,10.44-2,3.36-3.96,6.16-5.88,8.4Z" style="fill: #fff;"/>
        <path d="m1570.14,472.04c16.64,0,29.92,3.48,39.85,10.44,9.92,6.96,14.88,17.73,14.88,32.29v54.5c0,4-1.04,7.24-3.12,9.72-2.08,2.48-4.72,4.6-7.92,6.36-4.8,2.88-10.76,5.16-17.88,6.84-7.12,1.68-15.24,2.52-24.36,2.52-16.32,0-29.33-3.2-39.01-9.6-9.68-6.4-14.52-15.92-14.52-28.57,0-10.88,3.36-19.24,10.08-25.09,6.72-5.84,16.72-9.4,30-10.68l31.92-3.36v-2.88c0-5.44-2.12-9.36-6.36-11.76-4.24-2.4-10.28-3.6-18.12-3.6-6.08,0-12.04.72-17.88,2.16-5.84,1.44-11.08,3.12-15.72,5.04-1.92-1.28-3.56-3.24-4.92-5.88-1.36-2.64-2.04-5.4-2.04-8.28,0-6.72,3.68-11.6,11.04-14.64,4.64-1.92,10.04-3.32,16.2-4.2,6.16-.88,12.12-1.32,17.88-1.32Zm1.44,96.03c3.68,0,7.32-.36,10.92-1.08,3.6-.72,6.2-1.56,7.8-2.52v-23.05l-20.16,1.92c-5.44.32-9.76,1.44-12.96,3.36-3.2,1.92-4.8,4.8-4.8,8.64s1.52,6.92,4.56,9.24c3.04,2.32,7.92,3.48,14.64,3.48Z" style="fill: #fff;"/>
        <path d="m1687.76,506.61v30.01h-35.53v-34.33c0-4.48,1.08-8.28,3.24-11.4,2.16-3.12,5.16-5.88,9-8.28,5.28-3.2,11.64-5.72,19.08-7.56,7.44-1.84,15.24-2.76,23.4-2.76,16.32,0,24.48,5.44,24.48,16.33,0,2.56-.36,4.96-1.08,7.2-.72,2.24-1.56,4.16-2.52,5.76-1.6-.32-3.56-.6-5.88-.84-2.32-.24-4.84-.36-7.56-.36-4.8,0-9.6.56-14.4,1.68-4.8,1.12-8.88,2.64-12.24,4.56Zm-35.53,20.89l35.53.72v62.42c-1.6.48-3.84.92-6.72,1.32-2.88.4-6,.6-9.36.6-6.72,0-11.64-1.2-14.76-3.6s-4.68-6.72-4.68-12.96v-48.5Z" style="fill: #fff;"/>
        <path d="m1761.69,550.06l-1.44-24.01,59.53-9.36c-.32-4.48-2.24-8.64-5.76-12.48-3.52-3.84-8.72-5.76-15.6-5.76s-13.2,2.44-18,7.32c-4.8,4.88-7.36,11.81-7.68,20.77l1.2,16.57c1.44,8.8,5.2,15.09,11.28,18.85,6.08,3.76,13.28,5.64,21.6,5.64,6.72,0,13.04-.96,18.96-2.88,5.92-1.92,10.72-3.92,14.4-6,2.4,1.44,4.36,3.44,5.88,6,1.52,2.56,2.28,5.28,2.28,8.16,0,4.8-1.88,8.8-5.64,12-3.76,3.2-8.96,5.6-15.6,7.2-6.64,1.6-14.2,2.4-22.68,2.4-12.32,0-23.4-2.32-33.25-6.96-9.84-4.64-17.56-11.6-23.16-20.89-5.6-9.28-8.4-20.89-8.4-34.81,0-10.24,1.64-19.12,4.92-26.65,3.28-7.52,7.68-13.72,13.2-18.61,5.52-4.88,11.76-8.52,18.72-10.92s14.2-3.6,21.72-3.6c11.04,0,20.68,2.2,28.92,6.6,8.24,4.4,14.68,10.36,19.32,17.88,4.64,7.53,6.96,16.25,6.96,26.17,0,4.96-1.36,8.73-4.08,11.28-2.72,2.56-6.48,4.16-11.28,4.8l-76.33,11.28Z" style="fill: #fff;"/>
        <path d="m1874.74,574.31c0-5.76,1.88-10.56,5.64-14.4,3.76-3.84,8.84-5.76,15.24-5.76s11.24,1.92,15,5.76c3.76,3.84,5.64,8.64,5.64,14.4s-1.88,10.8-5.64,14.64c-3.76,3.84-8.76,5.76-15,5.76s-11.48-1.92-15.24-5.76c-3.76-3.84-5.64-8.72-5.64-14.64Zm39.12-118.84c0,4-.08,9.33-.24,15.96-.16,6.64-.44,13.97-.84,21.97-.4,8.01-.92,15.89-1.56,23.65-.64,7.76-1.44,14.76-2.4,21.01-1.12.96-3.12,1.72-6,2.28-2.88.56-5.36.84-7.44.84-3.84,0-7.16-.68-9.96-2.04-2.8-1.36-4.52-3.8-5.16-7.32-.64-4-1.24-9.56-1.8-16.68-.56-7.12-1.04-15-1.44-23.65-.4-8.64-.68-17.12-.84-25.45-.16-8.32-.24-15.6-.24-21.85,5.92-3.52,12.64-5.28,20.16-5.28,5.6,0,9.96,1.36,13.08,4.08,3.12,2.72,4.68,6.88,4.68,12.48Z" style="fill: #fff;"/>
      </g>
    </g>
    <g style="isolation: isolate;">
      <g style="isolation: isolate;">
        <path d="m66.81,560.62v-52.33h25.73v55.64c0,2.78-.58,5.13-1.74,7.04-1.16,1.91-3.01,3.62-5.56,5.13-3.13,2.09-7.21,3.91-12.26,5.48-5.04,1.57-10.86,2.35-17.47,2.35-9.62,0-17.94-1.62-24.95-4.87-7.01-3.24-12.4-8.14-16.17-14.69-3.77-6.55-5.65-14.69-5.65-24.43s1.94-18.57,5.82-25.12c3.88-6.55,9.13-11.45,15.73-14.69,6.61-3.24,13.91-4.87,21.9-4.87,4.17,0,7.88.46,11.13,1.39,3.24.93,5.91,2.03,8,3.3v21.21c-1.62-1.39-3.77-2.67-6.43-3.83-2.67-1.16-5.74-1.74-9.21-1.74-4.06,0-7.65.87-10.78,2.61-3.13,1.74-5.56,4.41-7.3,8-1.74,3.59-2.61,8.17-2.61,13.74,0,8.12,1.83,14.08,5.48,17.91,3.65,3.83,8.6,5.74,14.86,5.74,2.55,0,4.81-.32,6.78-.96,1.97-.63,3.53-1.3,4.69-2Zm25.73-47.29l-25.73.17v-45.38c1.04-.35,2.61-.7,4.69-1.04s4.35-.52,6.78-.52c5.1,0,8.75.87,10.95,2.61,2.2,1.74,3.3,4.93,3.3,9.56v34.6Z" style="fill: #fff;"/>
        <path d="m112.18,473.86c0-3.94,1.36-7.24,4.09-9.91,2.72-2.67,6.17-4,10.34-4s7.76,1.33,10.43,4c2.66,2.67,4,5.97,4,9.91s-1.33,7.13-4,9.91c-2.67,2.78-6.14,4.17-10.43,4.17s-7.62-1.39-10.34-4.17c-2.72-2.78-4.09-6.08-4.09-9.91Zm27.29,74.94h-25.73v-49.9c1.04-.35,2.63-.7,4.78-1.04,2.14-.35,4.43-.52,6.87-.52,4.98,0,8.57.84,10.78,2.52,2.2,1.68,3.3,4.9,3.3,9.65v39.29Zm-25.73-13.39h25.73v45.73c-1.04.35-2.61.67-4.69.96-2.09.29-4.35.43-6.78.43-4.98,0-8.6-.87-10.86-2.61-2.26-1.74-3.39-4.87-3.39-9.39v-35.12Z" style="fill: #fff;"/>
        <path d="m240.12,527.24v16.34h-25.9v-15.47c0-4.29-1.25-7.45-3.74-9.48-2.49-2.03-5.77-3.04-9.82-3.04-2.9,0-5.56.38-8,1.13-2.43.75-4.64,1.65-6.61,2.69v24.17h-25.73v-27.12c0-2.9.61-5.3,1.83-7.21,1.22-1.91,2.98-3.62,5.3-5.13,3.71-2.55,8.46-4.67,14.25-6.35,5.79-1.68,12.17-2.52,19.12-2.52,12.52,0,22.19,2.75,29.03,8.26,6.84,5.51,10.26,13.42,10.26,23.73Zm-79.79,8.35h25.73v45.55c-1.16.35-2.78.67-4.87.96-2.09.29-4.35.43-6.78.43-4.87,0-8.43-.87-10.69-2.61-2.26-1.74-3.39-4.87-3.39-9.39v-34.95Zm53.89,0h25.9v45.55c-1.16.35-2.78.67-4.87.96-2.09.29-4.35.43-6.78.43-4.87,0-8.46-.87-10.78-2.61-2.32-1.74-3.48-4.87-3.48-9.39v-34.95Z" style="fill: #fff;"/>
        <path d="m286.01,539.76h-25.55v-62.42c1.16-.35,2.78-.72,4.87-1.13,2.09-.41,4.29-.61,6.61-.61,4.98,0,8.57.87,10.78,2.61,2.2,1.74,3.3,4.93,3.3,9.56v51.99Zm-25.55-4.35h25.55v18.6c0,3.25,1.04,5.62,3.13,7.13,2.09,1.51,5.04,2.26,8.87,2.26,1.74,0,3.62-.2,5.65-.61,2.03-.4,3.74-.9,5.13-1.48.93,1.04,1.77,2.32,2.52,3.83.75,1.51,1.13,3.25,1.13,5.22,0,3.94-1.62,7.19-4.87,9.74-3.25,2.55-8.69,3.82-16.34,3.82-9.73,0-17.3-2.2-22.69-6.61-5.39-4.4-8.08-11.59-8.08-21.56v-20.34Zm16.34-15.82v-19.82h33.38c.58.93,1.16,2.26,1.74,4,.58,1.74.87,3.65.87,5.74,0,3.48-.78,6.03-2.35,7.65-1.56,1.62-3.68,2.43-6.35,2.43h-27.29Z" style="fill: #fff;"/>
        <path d="m353.98,520.29v21.73h-25.73v-24.86c0-3.24.78-6,2.35-8.26,1.56-2.26,3.74-4.26,6.52-6,3.82-2.32,8.43-4.14,13.82-5.48,5.39-1.33,11.04-2,16.95-2,11.82,0,17.73,3.94,17.73,11.82,0,1.86-.26,3.59-.78,5.22-.52,1.62-1.13,3.02-1.83,4.17-1.16-.23-2.58-.43-4.26-.61-1.68-.17-3.51-.26-5.48-.26-3.48,0-6.95.41-10.43,1.22-3.48.81-6.43,1.91-8.87,3.3Zm-25.73,15.13l25.73.52v45.21c-1.16.35-2.78.67-4.87.96-2.09.29-4.35.43-6.78.43-4.87,0-8.43-.87-10.69-2.61-2.26-1.74-3.39-4.87-3.39-9.39v-35.12Z" style="fill: #fff;"/>
        <path d="m433.08,547.24h-38.24c-.7-1.16-1.33-2.63-1.91-4.43-.58-1.8-.87-3.74-.87-5.82,0-3.71.87-6.4,2.61-8.09,1.74-1.68,4.06-2.52,6.95-2.52h38.24c.58,1.04,1.19,2.49,1.83,4.35.64,1.86.96,3.77.96,5.74,0,3.71-.9,6.43-2.69,8.17-1.8,1.74-4.08,2.61-6.87,2.61Z" style="fill: #fff;"/>
        <path d="m543.64,539.59c0,9.04-1.83,16.89-5.48,23.56-3.65,6.67-8.78,11.8-15.38,15.39-6.61,3.59-14.37,5.39-23.29,5.39s-16.69-1.77-23.29-5.3c-6.61-3.53-11.73-8.63-15.38-15.3-3.65-6.66-5.48-14.57-5.48-23.73s1.85-16.87,5.56-23.47c3.71-6.61,8.89-11.74,15.56-15.39,6.66-3.65,14.4-5.48,23.21-5.48s16.48,1.82,23.03,5.48c6.55,3.65,11.67,8.81,15.38,15.47,3.71,6.67,5.56,14.46,5.56,23.38Zm-44.15-23.99c-5.45,0-9.76,2.09-12.95,6.26-3.19,4.17-4.78,10.08-4.78,17.73s1.56,13.71,4.69,17.82c3.13,4.12,7.48,6.17,13.04,6.17s9.91-2.09,13.04-6.26c3.13-4.17,4.69-10.08,4.69-17.73s-1.56-13.42-4.69-17.65c-3.13-4.23-7.47-6.35-13.04-6.35Z" style="fill: #fff;"/>
      </g>
    </g>
    <g style="isolation: isolate;">
      <g style="isolation: isolate;">
        <path d="m157.15,212.92c0,4.47-1.17,8.36-3.5,11.66-2.33,3.31-4.96,5.93-7.87,7.87-4.86-3.3-10.35-6.22-16.47-8.75-6.12-2.52-13.37-3.79-21.72-3.79-10.3,0-19.24,2.24-26.82,6.71-7.58,4.47-13.37,10.99-17.35,19.54-3.99,8.56-5.98,18.96-5.98,31.2,0,18.66,4.67,32.86,14,42.58,9.33,9.72,22.16,14.58,38.49,14.58,8.35,0,15.55-1.17,21.58-3.5,6.02-2.33,11.56-4.96,16.62-7.87,2.92,2.14,5.29,4.91,7.14,8.31,1.84,3.4,2.77,7.34,2.77,11.81,0,3.89-1.02,7.49-3.06,10.79-2.04,3.31-5.49,6.12-10.35,8.46-3.69,1.95-8.94,3.79-15.74,5.54-6.81,1.75-15.07,2.62-24.78,2.62-17.11,0-32.71-3.35-46.8-10.06-14.1-6.71-25.22-16.91-33.38-30.62-8.16-13.71-12.25-31.25-12.25-52.64,0-20.22,4.03-37.28,12.1-51.18,8.06-13.9,18.9-24.45,32.51-31.64,13.6-7.19,28.67-10.79,45.19-10.79,11.47,0,21.38,1.31,29.74,3.94,8.35,2.62,14.77,6.12,19.24,10.5,4.47,4.37,6.71,9.29,6.71,14.73Z" style="fill: #fff;"/>
        <path d="m240.25,221.38c20.21,0,36.35,4.23,48.4,12.69,12.05,8.46,18.08,21.53,18.08,39.22v66.2c0,4.86-1.27,8.8-3.79,11.81-2.53,3.02-5.74,5.59-9.62,7.73-5.83,3.5-13.07,6.27-21.72,8.31-8.65,2.04-18.51,3.06-29.59,3.06-19.83,0-35.62-3.89-47.38-11.66-11.76-7.77-17.64-19.34-17.64-34.7,0-13.22,4.08-23.37,12.25-30.47,8.16-7.09,20.31-11.42,36.45-12.98l38.78-4.08v-3.5c0-6.61-2.58-11.37-7.73-14.29-5.15-2.92-12.49-4.37-22.01-4.37-7.39,0-14.63.87-21.72,2.62-7.1,1.75-13.46,3.79-19.1,6.12-2.33-1.55-4.33-3.94-5.98-7.15-1.65-3.21-2.48-6.56-2.48-10.06,0-8.17,4.47-14.09,13.41-17.79,5.64-2.33,12.2-4.03,19.68-5.1,7.48-1.07,14.72-1.6,21.72-1.6Zm17.49-21.29l-13.41-16.33c-4.86,5.64-9.04,10.35-12.54,14.14-3.5,3.79-7.29,8.12-11.37,12.98-6.61,0-11.91-1.55-15.89-4.67-3.99-3.11-5.98-7-5.98-11.66,0-3.5.97-6.51,2.92-9.04,1.94-2.52,4.76-5.64,8.46-9.33l11.66-12.25c3.5-3.3,7.04-5.93,10.64-7.87,3.59-1.94,7.82-2.92,12.68-2.92s8.89.88,12.68,2.62c3.79,1.75,8.02,5.45,12.68,11.08l21.58,26.25c0,4.86-1.41,8.94-4.23,12.25-2.82,3.31-7.05,4.96-12.68,4.96-3.5,0-6.56-.92-9.18-2.77-2.62-1.85-5.3-4.32-8.02-7.44Zm-15.74,137.93c4.47,0,8.89-.44,13.27-1.31,4.37-.88,7.53-1.9,9.48-3.06v-28l-24.49,2.33c-6.61.39-11.86,1.75-15.74,4.08-3.89,2.33-5.83,5.83-5.83,10.5s1.85,8.41,5.54,11.23c3.69,2.82,9.62,4.23,17.79,4.23Z" style="fill: #fff;"/>
        <path d="m453.38,324.9c0,14.19-5.35,25.33-16.04,33.39-10.69,8.06-26.24,12.1-46.65,12.1-15.94,0-29.06-2.33-39.36-7-10.31-4.67-15.45-11.56-15.45-20.7,0-4.08.88-7.63,2.62-10.64,1.75-3.01,3.98-5.4,6.71-7.14,5.44,3.11,11.81,5.98,19.1,8.6s15.6,3.94,24.93,3.94c14.19,0,21.28-4.08,21.28-12.25,0-3.5-1.27-6.27-3.79-8.31-2.53-2.04-6.71-3.54-12.54-4.52l-12.25-2.92c-15.55-3.3-27.17-8.41-34.84-15.31-7.68-6.9-11.52-16.38-11.52-28.43,0-13.61,5.49-24.45,16.47-32.52,10.98-8.06,25.8-12.1,44.46-12.1,9.33,0,17.83.92,25.51,2.77,7.68,1.85,13.75,4.67,18.22,8.46,4.47,3.79,6.71,8.51,6.71,14.14,0,3.89-.78,7.29-2.33,10.21-1.56,2.92-3.6,5.35-6.12,7.29-2.14-1.36-5.39-2.82-9.77-4.37-4.37-1.55-9.14-2.82-14.29-3.79-5.15-.97-9.96-1.46-14.43-1.46-7,0-12.44.92-16.33,2.77-3.89,1.85-5.83,4.72-5.83,8.6,0,2.53,1.12,4.72,3.35,6.56,2.23,1.85,6.17,3.35,11.81,4.52l11.66,2.92c17.3,3.89,29.74,9.48,37.32,16.77,7.58,7.29,11.37,16.77,11.37,28.43Zm-51.61,104.4c-2.72,3.11-5.79,5.29-9.18,6.56-3.4,1.26-7.05,1.9-10.93,1.9-6.61,0-12.05-1.95-16.33-5.83,3.69-7.97,6.61-15.75,8.75-23.33,2.14-7.58,3.59-14.87,4.37-21.87,2.92-1.36,6.17-2.58,9.77-3.65,3.59-1.07,7.24-1.6,10.93-1.6,5.44,0,9.86,1.07,13.27,3.21,3.4,2.14,5.1,5.64,5.1,10.5,0,3.11-.83,6.85-2.48,11.23-1.65,4.37-3.69,8.6-6.12,12.69-2.43,4.08-4.81,7.48-7.14,10.21Z" style="fill: #fff;"/>
        <path d="m523.35,296.03h-42.86v-104.69c1.94-.58,4.67-1.21,8.16-1.9,3.5-.68,7.19-1.02,11.08-1.02,8.36,0,14.38,1.46,18.08,4.37,3.69,2.92,5.54,8.27,5.54,16.04v87.19Zm-42.86-7.29h42.86v31.2c0,5.44,1.75,9.43,5.25,11.96,3.5,2.53,8.46,3.79,14.87,3.79,2.92,0,6.07-.34,9.48-1.02,3.4-.68,6.27-1.5,8.6-2.48,1.55,1.75,2.96,3.89,4.23,6.42,1.26,2.53,1.9,5.44,1.9,8.75,0,6.61-2.72,12.06-8.16,16.33-5.44,4.27-14.58,6.42-27.41,6.42-16.33,0-29.01-3.7-38.05-11.08-9.04-7.39-13.56-19.44-13.56-36.16v-34.12Zm27.41-26.54v-33.24h55.98c.97,1.56,1.94,3.79,2.92,6.71.97,2.92,1.46,6.12,1.46,9.62,0,5.83-1.31,10.11-3.94,12.83-2.62,2.72-6.17,4.08-10.64,4.08h-45.78Z" style="fill: #fff;"/>
        <path d="m592.74,185.51c0-6.61,2.28-12.15,6.85-16.62,4.56-4.47,10.35-6.71,17.35-6.71s13.02,2.24,17.49,6.71c4.47,4.47,6.71,10.02,6.71,16.62s-2.24,11.96-6.71,16.62c-4.47,4.67-10.31,7-17.49,7s-12.78-2.33-17.35-7c-4.57-4.67-6.85-10.21-6.85-16.62Zm45.78,125.69h-43.15v-83.69c1.75-.58,4.42-1.17,8.02-1.75,3.59-.58,7.44-.87,11.52-.87,8.35,0,14.38,1.41,18.08,4.23,3.69,2.82,5.54,8.22,5.54,16.19v65.9Zm-43.15-22.45h43.15v76.69c-1.75.58-4.37,1.12-7.87,1.6-3.5.48-7.29.73-11.37.73-8.36,0-14.43-1.46-18.22-4.37-3.79-2.92-5.69-8.17-5.69-15.75v-58.91Z" style="fill: #fff;"/>
        <path d="m731.23,360.19c-11.47,0-22.11-2.19-31.93-6.56-9.82-4.37-17.69-11.66-23.62-21.87-5.93-10.21-8.89-23.57-8.89-40.1,0-15.36,3.06-28.24,9.18-38.64,6.12-10.4,14.72-18.27,25.8-23.62,11.08-5.34,23.91-8.02,38.49-8.02,10.5,0,20.26,1.41,29.3,4.23,9.04,2.82,16.08,5.88,21.14,9.19,3.5,2.33,6.31,5.1,8.46,8.31,2.14,3.21,3.21,7.25,3.21,12.1v91.57h-41.69v-86.61c-2.14-1.17-4.72-2.23-7.73-3.21-3.02-.97-6.76-1.46-11.23-1.46-9.33,0-16.96,2.92-22.89,8.75-5.93,5.83-8.89,14.97-8.89,27.41,0,13.61,2.77,22.99,8.31,28.14,5.54,5.15,12.49,7.73,20.85,7.73,6.41,0,11.76-1.12,16.04-3.35,4.27-2.23,7.97-4.71,11.08-7.44l1.17,34.41c-4.08,2.53-9.04,4.67-14.87,6.42-5.83,1.75-12.93,2.62-21.28,2.62Zm30.32,4.08v-27.12h40.82v28.29c0,13.61-3.16,24.69-9.48,33.24-6.32,8.55-14.87,14.87-25.66,18.96-10.79,4.08-22.89,6.12-36.3,6.12-10.11,0-19.1-.87-26.97-2.62-7.87-1.75-13.85-3.99-17.93-6.71-6.61-4.28-9.91-10.31-9.91-18.08,0-4.08.82-7.73,2.48-10.94,1.65-3.21,3.64-5.59,5.98-7.14,5.25,3.11,11.47,5.78,18.66,8.02,7.19,2.23,14.77,3.35,22.74,3.35,10.88,0,19.53-2,25.95-5.98,6.41-3.99,9.62-10.45,9.62-19.39Z" style="fill: #fff;"/>
        <path d="m891.88,221.38c20.21,0,36.34,4.23,48.4,12.69,12.05,8.46,18.08,21.53,18.08,39.22v66.2c0,4.86-1.27,8.8-3.79,11.81-2.53,3.02-5.74,5.59-9.62,7.73-5.83,3.5-13.08,6.27-21.72,8.31-8.65,2.04-18.51,3.06-29.59,3.06-19.83,0-35.62-3.89-47.38-11.66-11.76-7.77-17.64-19.34-17.64-34.7,0-13.22,4.08-23.37,12.25-30.47,8.16-7.09,20.31-11.42,36.45-12.98l38.78-4.08v-3.5c0-6.61-2.58-11.37-7.73-14.29-5.15-2.92-12.49-4.37-22.01-4.37-7.39,0-14.63.87-21.72,2.62-7.1,1.75-13.46,3.79-19.1,6.12-2.33-1.55-4.33-3.94-5.98-7.15-1.65-3.21-2.48-6.56-2.48-10.06,0-8.17,4.47-14.09,13.41-17.79,5.64-2.33,12.2-4.03,19.68-5.1,7.48-1.07,14.72-1.6,21.72-1.6Zm5.25-47.83c6.02,0,10.93-1.5,14.72-4.52,3.79-3.01,6.27-6.85,7.44-11.52.97-.19,1.84-.34,2.62-.44.77-.1,1.65-.15,2.62-.15,6.8,0,11.85,1.95,15.16,5.83,3.3,3.89,4.96,8.17,4.96,12.83,0,8.17-4.13,15.16-12.39,21-8.26,5.83-19.97,8.75-35.13,8.75s-27.12-2.92-35.28-8.75c-8.16-5.83-12.25-12.83-12.25-21,0-4.67,1.7-8.94,5.1-12.83,3.4-3.89,8.41-5.83,15.02-5.83.97,0,1.85.05,2.62.15.77.1,1.65.25,2.62.44.97,4.67,3.4,8.51,7.29,11.52,3.89,3.02,8.84,4.52,14.87,4.52Zm-3.5,164.47c4.47,0,8.89-.44,13.27-1.31,4.37-.88,7.53-1.9,9.48-3.06v-28l-24.49,2.33c-6.61.39-11.86,1.75-15.74,4.08-3.89,2.33-5.83,5.83-5.83,10.5s1.85,8.41,5.54,11.23c3.69,2.82,9.62,4.23,17.79,4.23Z" style="fill: #fff;"/>
      </g>
    </g>
    <g style="isolation: isolate;">
      <g style="isolation: isolate;">
        <path d="m1061.09,281.3c-4.21,0-7.82,1.39-10.82,4.15-3,2.77-4.5,6.8-4.5,12.11s1.44,9.16,4.33,11.81c2.88,2.65,6.51,3.98,10.88,3.98,2.57,0,4.81-.33,6.72-.99,1.91-.66,3.57-1.38,4.97-2.16,1.32.94,2.34,1.97,3.04,3.1.7,1.13,1.05,2.52,1.05,4.15,0,2.89-1.56,5.23-4.68,7.02-3.12,1.79-7.45,2.69-12.98,2.69-6.16,0-11.58-1.11-16.26-3.33-4.68-2.22-8.3-5.56-10.88-10s-3.86-9.86-3.86-16.26c0-6.78,1.4-12.38,4.21-16.79,2.81-4.4,6.53-7.72,11.17-9.94,4.64-2.22,9.69-3.33,15.15-3.33s9.61.98,12.69,2.92c3.08,1.95,4.62,4.37,4.62,7.25,0,1.4-.33,2.67-.99,3.8-.66,1.13-1.42,2.13-2.28,2.98-1.48-.78-3.18-1.5-5.09-2.16-1.91-.66-4.08-.99-6.49-.99Z" style="fill: #fff;"/>
        <path d="m1104.95,300.36h-17.31v-30.88c.7-.23,1.75-.47,3.16-.7s2.92-.35,4.56-.35c3.35,0,5.79.57,7.31,1.7,1.52,1.13,2.28,3.3,2.28,6.49v23.75Zm-17.31,3.16v-8.42h17.31v8.31c0,3.59.92,6.16,2.75,7.72,1.83,1.56,4.42,2.34,7.78,2.34,2.11,0,3.86-.19,5.26-.58,1.4-.39,2.46-.78,3.16-1.17v-16.61h17.43v18.72c0,1.87-.37,3.47-1.11,4.8-.74,1.33-1.93,2.5-3.57,3.51-2.5,1.56-5.55,2.79-9.18,3.68-3.63.9-7.66,1.35-12.1,1.35-5.54,0-10.39-.82-14.56-2.46-4.17-1.64-7.41-4.19-9.71-7.66-2.3-3.47-3.45-7.97-3.45-13.51Zm53.68-3.16h-17.43v-30.88c.78-.23,1.87-.47,3.28-.7,1.4-.23,2.92-.35,4.56-.35,3.35,0,5.79.57,7.31,1.7,1.52,1.13,2.28,3.3,2.28,6.49v23.75Z" style="fill: #fff;"/>
      </g>
    </g>
    <g id="c">
      <g>
        <g id="d">
          <g>
            <path d="m1443.95,235.94v41.58c0,4.56-.42,9.14-1.27,13.76-.85,4.62-2.28,8.78-4.29,12.49-2.02,3.71-4.72,6.73-8.1,9.08-3.38,2.34-7.68,3.51-12.89,3.51-6.12,0-11.22-1.47-15.33-4.4-4.1-2.94-7.16-6.63-9.17-11.07-2.02-4.44-2.99-9.24-2.93-14.4.06-5.16,1.14-9.95,3.22-14.39,2.08-4.44,5.14-8.13,9.17-11.07,4.03-2.94,9.04-4.41,15.03-4.41,3.77,0,7.68.57,11.71,1.7,4.03,1.14,7.15,3.36,9.37,6.69,1.17-2.08,1.72-4.85,1.66-8.3-.07-3.45-.97-6.86-2.73-10.25-1.75-3.38-4.52-6.34-8.3-8.88-3.78-2.54-8.78-3.93-15.03-4.2-6.38-.26-12.53.88-18.45,3.41-5.92,2.54-11.19,6.15-15.81,10.84-4.62,4.68-8.3,10.35-11.03,16.99-2.73,6.64-4.1,13.86-4.1,21.67,0,8.2,1.27,15.52,3.81,21.96,2.54,6.44,5.92,11.98,10.15,16.59,4.23,4.62,9.11,8.17,14.64,10.64,5.53,2.47,11.22,3.81,17.08,4,5.86.19,11.68-.81,17.47-3.02,5.79-2.21,11.16-5.72,16.11-10.54v11.13h25.38v-75.74c0-14.02-11.36-25.38-25.38-25.38h0Z" style="fill: #fff;"/>
            <path d="m1566.15,235.94v41.58c0,4.56-.42,9.01-1.27,13.37-.85,4.36-2.28,8.27-4.29,11.71-2.02,3.45-4.72,6.22-8.1,8.3-3.38,2.08-7.68,3.12-12.89,3.12-6.12,0-11.23-1.43-15.33-4.29-4.1-2.86-7.16-6.41-9.17-10.64-2.02-4.23-2.99-8.81-2.93-13.76.07-4.94,1.14-9.53,3.22-13.76,2.08-4.23,5.14-7.77,9.17-10.64,4.03-2.86,9.04-4.29,15.03-4.29,1.82,0,3.74.13,5.76.39,2.01.26,3.97.71,5.86,1.36,1.88.65,3.64,1.53,5.27,2.63,1.62,1.11,3.02,2.44,4.2,4,1.17-2.08,1.72-4.88,1.66-8.39-.07-3.51-.97-6.93-2.73-10.25s-4.52-6.25-8.3-8.79c-3.78-2.54-8.78-3.93-15.03-4.2-6.38-.26-12.53.78-18.45,3.12-5.92,2.34-11.19,5.73-15.81,10.15-4.62,4.43-8.3,9.83-11.03,16.21-2.73,6.38-4.1,13.47-4.1,21.28s1.27,15.36,3.8,21.86c2.54,6.51,5.92,12.04,10.15,16.59,4.23,4.56,9.11,8.1,14.64,10.64,5.53,2.54,11.23,3.9,17.08,4.1,5.86.19,11.68-.78,17.47-2.93s11.16-5.69,16.11-10.64c0,3.67,1.65,19.91-5.56,28.27-2.24,2.6-5.11,4.88-8.88,6.59-3.78,1.7-8.66,2.68-14.64,2.95-3.25.13-6.8-.2-10.64-.99-3.84-.79-7.61-1.88-11.32-3.26-3.71-1.39-7.22-3.06-10.54-5.04-3.32-1.98-6.02-4.15-8.1-6.52-1.95,6.76-2.02,12.59-.19,17.47,1.82,4.88,4.88,8.91,9.17,12.1,4.29,3.19,9.47,5.56,15.52,7.12,6.05,1.56,12.33,2.34,18.84,2.34,8.46,0,15.91-1.17,22.35-3.51,6.44-2.34,11.84-5.73,16.21-10.15,4.36-4.42,7.64-9.76,9.86-16.01,2.21-6.25,3.32-21.73,3.32-29.41v-64.42c0-14.02-11.36-25.38-25.38-25.38h0Z" style="fill: #fff;"/>
            <path d="m1694.54,241c-4.76-3.5-10.96-5.12-18.63-4.86h-.02s0,48.4,0,48.4c0,2.34-.03,4.85-.1,7.51-.07,2.67-.32,5.27-.78,7.81-.45,2.54-1.23,4.91-2.34,7.12-1.1,2.21-2.76,4.1-4.98,5.66-1.43,1.04-3.09,1.82-4.98,2.34-1.88.52-3.81.78-5.76.78s-3.84-.26-5.66-.78c-1.82-.52-3.51-1.3-5.07-2.34-2.21-1.43-3.87-3.22-4.98-5.37-1.1-2.15-1.88-4.45-2.34-6.93-.45-2.47-.68-5.01-.68-7.61v-36.51c.13-7.03-2.15-12.26-6.83-15.72-4.68-3.45-10.8-5.04-18.35-4.78v42.95c-.13,8.85.16,16.24.88,22.16.71,5.92,1.79,10.58,3.22,13.96,3.78,8.72,9.11,14.97,16.01,18.74,6.9,3.77,14.97,5.66,24.2,5.66,10.02,0,18.61-2.21,25.77-6.64,7.16-4.42,12.3-11.52,15.42-21.28.91-2.99,1.63-7.06,2.15-12.2.52-5.14.78-10.77.78-16.89v-24.27s.01-.98.01-.98c.13-7.14-2.18-12.46-6.94-15.96h0Z" style="fill: #fff;"/>
            <path d="m1888.62,235.94v41.58c0,4.56-.42,9.14-1.27,13.76-.85,4.62-2.28,8.78-4.29,12.49-2.02,3.71-4.72,6.73-8.1,9.08-3.38,2.34-7.68,3.51-12.89,3.51-6.12,0-11.23-1.47-15.33-4.4-4.1-2.94-7.16-6.63-9.17-11.07-2.02-4.44-2.99-9.24-2.93-14.4.07-5.16,1.14-9.95,3.22-14.39,2.08-4.44,5.14-8.13,9.18-11.07,4.03-2.94,9.04-4.41,15.03-4.41,3.77,0,7.68.57,11.71,1.7,4.03,1.14,7.16,3.36,9.37,6.69,1.17-2.08,1.72-4.85,1.66-8.3-.07-3.45-.98-6.86-2.73-10.25-1.76-3.38-4.52-6.34-8.3-8.88-3.77-2.54-8.78-3.93-15.03-4.2-6.38-.26-12.53.88-18.45,3.41-5.92,2.54-11.19,6.15-15.81,10.84-4.62,4.68-8.3,10.35-11.03,16.99-2.73,6.64-4.1,13.86-4.1,21.67,0,8.2,1.27,15.52,3.8,21.96,2.54,6.44,5.92,11.98,10.15,16.59,4.23,4.62,9.11,8.17,14.64,10.64,5.53,2.47,11.23,3.81,17.08,4,5.86.19,11.68-.81,17.47-3.02,5.79-2.21,11.16-5.72,16.11-10.54v11.13h25.38v-75.74c0-14.02-11.36-25.38-25.38-25.38h0Z" style="fill: #fff;"/>
            <path d="m1344.81,261.51c-3.12-9.76-8.26-16.86-15.42-21.28-7.16-4.43-15.75-6.64-25.77-6.64h-.24c-9.6.03-19.57,2.12-29.45,12.63l-.11.1c-2.09-2.35-4.35-4.46-6.98-6.09-7.15-4.43-15.75-6.64-25.77-6.64h-.24c-9.01.03-17.73,2.98-25.08,8.15-.3-.26-.54-.57-.86-.81-4.68-3.45-10.8-5.04-18.35-4.78v100.9h25.35l.08-59.46.03.16c.1-1.8.3-3.57.62-5.31.46-2.47,1.24-4.78,2.34-6.93,1.11-2.15,2.76-3.94,4.98-5.37,1.56-1.04,3.25-1.82,5.07-2.34,1.82-.52,3.71-.78,5.66-.78s3.87.26,5.76.78c1.89.52,3.55,1.3,4.98,2.34,2.21,1.56,3.87,3.45,4.98,5.66,1.11,2.21,1.89,4.59,2.34,7.12.46,2.54.71,5.14.78,7.81.06,2.66.1,5.17.1,7.51v48.8h25.57v-46.46c0-4.87-.21-9.33-.54-13.58.11-1.55.26-3.08.53-4.58.46-2.47,1.24-4.78,2.34-6.93,1.11-2.15,2.76-3.94,4.98-5.37,1.56-1.04,3.25-1.82,5.07-2.34,1.82-.52,3.71-.78,5.66-.78s3.87.26,5.76.78c1.89.52,3.55,1.3,4.98,2.34,2.21,1.56,3.87,3.45,4.98,5.66,1.11,2.21,1.89,4.59,2.34,7.12.46,2.54.72,5.14.78,7.81.06,2.66.1,5.17.1,7.51v48.8h25.57v-46.46c0-6.12-.26-11.75-.78-16.89-.52-5.14-1.23-9.21-2.15-12.2h-.01Z" style="fill: #fff;"/>
            <path d="m1773.4,233.16c-20.36.39-26.22,10.67-28.43,15.23,0-7.11-5.77-12.88-12.88-12.88h-8.98v101.51h25.38v-49.49c0-3.05.13-6.15.39-9.27.52-5.46,2.05-10.07,5.17-13.28,9.25-9.49,23.86-8.64,28.82-7.32,3.63.97,9.39,3.7,10.52,6.34,2.86-2.08,4.62-4.91,5.27-8.49.65-3.58.56-7.21-1.07-10.54-5.03-10.24-18.71-11.92-24.19-11.81h0Z" style="fill: #fff;"/>
          </g>
        </g>
        <g>
          <path d="m1482.22,186.36c9.35.25,18.46.28,26.99.16,0,0,49.92.54,102.55-10.91,4.53-2.92,9.28-5.93,11.6-7.65h0s.02-.01.03-.02c9.71-7.23,16.48-13.5,21.2-19.81,28.43-31.74,32.3-63.78,26.37-87.06-4.11-23.12-34.59-58.59-63.93-61.06-.71-.06-1.24.64-.99,1.31.77,2.07,1.69,6.47-.16,13.72-4.55,17.8-36.34,29.34-42.81,36.74-5.12,4.02-9.6,8.84-13.28,14.13-10.84,15.62-12.69,33.26-9.92,51.59.9,5.94,2.35,11.79,3.55,17.67-.4.21-.37.19-.77.4-2.76-2.9-5.33-6.01-8.29-8.68-11.75-10.54-24.94-16.74-41.09-11.98-23.03,6.79-34.97,30.04-26.12,52.61,3.12,7.94,8.43,14.1,15.08,18.83h0Z" style="fill: #fff;"/>
          <g>
            <path d="m1531.18,114.06c-2.28-20.69,1.63-37.99,11.9-52.79,4.09-5.89,8.94-11.1,14.42-15.49,3.03-3.15,7.93-6.05,14.01-9.66,2.73-1.62,5.85-3.49,8.98-5.52-10.28-16.18-41.14-33.93-63.37-28.5-.56.14-.78.81-.42,1.26,1.12,1.38,2.95,4.51,3.39,10.52,1.08,14.77-20.25,31.73-23.3,39.03-2.88,4.38-5.07,9.22-6.53,14.2-3.98,13.67-1.54,26.69,4.29,39.14,12.61-2.73,24.69-.21,36.63,7.82h0Z" style="fill: #fff;"/>
            <path d="m1459.55,170.52c-5.06-12.88-4.63-26.54,1.2-38.44,3.7-7.57,9.29-13.88,16.27-18.52-5.9-.07-11.73,1.49-17.41,5.47-15.86,11.09-19.03,31.9-6.49,46.88,2.13,2.54,4.58,4.56,7.21,6.27-.25-.56-.57-1.07-.79-1.65h0Z" style="fill: #fff;"/>
          </g>
          <path d="m1801.57,81l-.15.14c-4.03,3.62-66.42,59.84-160.3,86.74-61.7,19.4-131.91,18.64-131.91,18.64-24.08.35-52.72-.45-78.75-4.33-28.94-4.32-58.17-13.37-61.51-14.32l.02.14c-55.01-15.46-67.09,16.65-68.08,19.62.96.37,1.95.67,2.98.9l.07.02c22.77,5,85,16.9,124.1,18.08,82.04,2.47,138.32-8.32,138.32-8.32,111.59-19.44,183.92-63.39,226.67-90.67,20.35-12.99,8.53-26.62,8.53-26.62h0Z" style="fill: #fff;"/>
        </g>
      </g>
    </g>
  </g>
</svg>