<?xml version="1.0" encoding="UTF-8"?>
<svg id="Layer_2" data-name="Layer 2" xmlns="http://www.w3.org/2000/svg" viewBox="0 0 2097.4 1495.07">
  <g id="Layer_1-2" data-name="Layer 1">
    <g id="Layer_1-3" data-name="Layer 1">
      <g>
        <path d="m448.79,231.48c3.7,7.6.8,15.9,6.9,20.6,3.7,2.9,6.7,1.2,9,4.2,3.8,5.1-2.8,12.3.5,16.9,2.3,3.2,6.8,1.4,17.5,2.6,10,1.1,18.8,2.1,23.3,7.9,5.5,7.2-.3,16,4.8,19.6,4.1,2.9,12.3.1,17.5-4.2,9.7-8.2,7.6-20.9,13.8-22.2,4.8-1,7.9,6.5,14.3,5.3,4.4-.8,4.3-4.6,8.5-5.8,3.8-1.1,7.4,1.1,23.8,13.2,9.1,6.7,10,7.5,12.7,8.5,1.5.5,16.3,5.3,23.3-3.7,5.7-7.4,3.9-20.1-1.1-22.2-5.8-2.5-13.4,10.6-19.6,7.9-4.3-1.9-6.3-10.7-3.2-14.8,3.3-4.3,10.1-.3,14.8-4.8,4.4-4.2.5-9.9,3.7-19s12-17.7,18-16.4c7.4,1.7,8.3,18.2,12.7,18,3.1-.2,2.5-8.4,9-12.7,6-3.9,12.9-1.2,13.8-3.7.9-2.8-8.1-5.8-7.9-11.1.1-4,5.4-4.6,9.5-11.1,2.7-4.2,5.5-12.1,2.6-16.4-4.6-6.9-19.9.9-24.3-5.3-4.4-6.2,4.8-23.1,11.6-22.7,3.2.1,3.3,3.9,8.5,7.4,7.1,4.8,18.3,5.5,25.9,1.1,7.1-4.1,6.5-10.1,13.2-11.6,5.5-1.3,8.3,2.2,11.6,0,4.6-3,1.3-11.2,5.8-14.3,4-2.7,9.4,2,11.1,0,2.7-3.1-8.2-17.6-17.5-27.5-2.7-2.9-5.2-5.4-7.5-7.5-.2.4-.5.7-.8.9-2.3,1.8-7.7-.5-18.3-5.3-16.9-7.6-25.4-11.5-26.8-17.1-.7-3.1.5-3.9-.7-6.6-2.1-4.9-7.8-5.9-17.6-9.2-15.6-5.3-17.1-8.2-19.6-6.6-6.7,4.3,5.2,24.9-4.6,35.5-4,4.4-10,5-11.8,5.3-13.3,1.5-23.2-10.5-26.1-7.9-2.1,1.9,3.7,7.5,2,14.5-1.6,6.3-8.4,9.9-18.3,15.1-11,5.8-15,5.4-17,9.9-2.6,5.8,1.9,11.3-1.3,14.5-2.5,2.5-5.8-.4-10.4,1.3-8,2.9-5.7,14.1-13.7,19.1-6.2,3.9-14.5,1.4-21.5-.7-12.5-3.7-16.4-10-20.9-7.9-5.5,2.6-2,13.3-8.5,17.1-4.5,2.6-8.1-1.3-16.3,0-6.6,1-11.1,4.6-14.4,7.2-11.4,9.1-10.7,19.9-16.1,32.5,10,3.5,14.2,8.3,16.1,12.2h0Z" style="fill: #db0632;"/>
        <path d="m650.19,274.48c6.2,1.6,5.8,3.5,13,6,7,2.3,9,1.1,16.2,3.2,6.8,2,8.1,4,13,6,17.9,7.2,31.6-7.2,42.6,1.1,4,3,5,7,9.9,7.8,4.8.7,8.5-2.5,11.6-.3,1.8,1.2,1.4,2.8,2.8,4.9,4.2,6.1,18.2,7.2,23.3,1.4,3.5-4,1.1-9.3,3.9-10.6,3.3-1.5,6.5,6.2,14.1,7,6.5.8,8.2-4.4,18.3-4.9,4.9-.3,5.2.9,9.2.3,2.2-.3,6.4-1.3,14.8-8.8,10.2-9.1,16.1-14.3,17.3-22.6.9-5.9-1.2-9.6,1.4-12,3.2-2.8,7.4,1.3,12.3-.7,8.4-3.4,6.5-19.1,12.7-20.4,3.9-.8,5.3,5.4,10.9,6,8.9.9,12.6-13.6,22.9-13.8,5.2-.1,4.9,3.6,13.8,6.3,7,2.2,12.9,1.7,23.6.7,7.9-.7,12.3-1.7,16.9-2.5,28.3-4.5,42.3,3.9,47.9-3.9,3.4-4.8-1.2-8.7,3.2-17.3,3.3-6.6,7.3-7,11.3-13,1.5-2.3,3.1-5.6,3.8-10.1-11.3,3-23.8,1.7-31.8-4.1-9.3-6.9-5.1-14.5-15.7-23-13-10.4-28-5.7-32-15.1-2.1-5.1,1.9-7.2,0-13.8-3-10.2-15.9-14.8-24.2-17.8-8.6-3-15.9-5.6-24.2-3.3-10.9,3.1-10.5,11.2-21.5,17.8-16.5,9.8-37.6,3.4-42.4,2-18.2-5.5-20.1-15.1-32-13.8-12.4,1.4-19.6,12.8-26.1,9.2-2.7-1.5-1.8-3.6-5.9-9.2-1-1.4-6.8-9.5-14.4-11.8-9.1-2.9-12.3,5.2-23.5,5.3-15.8.1-25.9-16-30.7-12.5-3.2,2.3.6,9.8-1.8,13.5,2.3,2.1,4.8,4.6,7.5,7.5,9.2,9.9,20.2,24.4,17.4,27.5-1.7,2-7.1-2.7-11.1,0-4.6,3-1.2,11.2-5.8,14.3-3.3,2.2-6.1-1.3-11.6,0-6.7,1.6-6.2,7.5-13.2,11.6-7.6,4.4-18.8,3.7-25.9-1.1-5.2-3.5-5.3-7.2-8.5-7.4-6.9-.3-16,16.5-11.6,22.7s19.7-1.6,24.3,5.3c2.9,4.3,0,12.2-2.6,16.4-4.1,6.5-9.4,7-9.5,11.1-.1,5.3,8.8,8.3,7.9,11.1-.8,2.5-7.8-.2-13.8,3.7-6.5,4.3-5.9,12.5-9,12.7-4.4.3-5.3-16.3-12.7-18-6-1.3-14.8,7.3-18,16.4s.7,14.8-3.7,19c-4.7,4.4-11.5.4-14.8,4.8-3.1,4.1-1.2,12.9,3.2,14.8,6.2,2.7,13.8-10.4,19.6-7.9,1.7.7,3.1,2.8,3.8,5.4,1.8-1,3.8-2,6.2-2.7,2-.5,9-2.5,17.4-.4h0Z" style="fill: #db0632;"/>
        <path d="m1040.29,228.88c.8,2.4-6.6,5.2-6.1,8.7.5,3.3,7.5,6.6,13.2,4.5,4.3-1.6,4.8-7.6,6.9-7.4,1.7.2,2.6,4.1,2.6,4.5,1.7,8.2-5.9,11.9-5,19.6.7,6.2,6.3,8.1,5,11.4-1.7,4.4-11.8,1.7-14,6.1-2.5,5.2,9.7,12.2,7.7,20.9-1,4.1-3.9,3.4-7.9,9.8-3.8,6.1-6.8,15.8-2.9,20.6,2.4,2.9,5.1,1.3,7.4,4.2,2.6,3.3.5,7-.5,18-.7,8.1-1.1,12.2,1.1,16.1,2.9,5.3,8.3,7.5,9.5,7.9,9.4,3.5,15.1-3.2,21.7.8,5.1,3.1,4,8.5,8.5,9.8,4.9,1.4,11.1-3.9,14.3-7.9,7.6-9.7,2.8-17.7,9-22.5,6-4.7,17.3-2.3,23.8,2.6,5.9,4.5,4,8.3,10.3,12.7,6.9,4.7,11.4,1.7,17.2,6.9,4.7,4.2,3.3,7.6,7.4,9.8,5.1,2.7,13,.4,17.2-4.2,4.6-5,1.8-9.6,4.2-17.5,5-16.5,23.2-16.6,24.1-27.8.8-11-16.6-17.1-14-26.7,1.1-4,5.3-7.7,9.5-7.9,9.5-.6,13.2,16.8,26.4,18,3.2.3,4.3-.6,9.2,0,7.3.9,9.2,3.4,13.5,4.2,9.7,1.9,12.3-8.6,26.2-11.1,10.7-2,12.8,3.6,23.5.8,5.9-1.6,5.7-3.4,17.4-9.5,10.9-5.7,16.4-8.5,21.2-8.2,11.4.9,15.1,12.4,23,10.6,4.8-1.1,9.1-6.7,8.7-11.4-.7-8-15.2-9.8-15.1-16.7.1-3.6,4.1-7.2,7.7-7.4,4-.3,5.2,3.8,11.9,7.7.8.5,11.8,6.8,15.9,3.4,4.2-3.5-1.9-14.8,1.8-17.2,3.2-2.1,9.5,5.2,13.8,2.6,2.5-1.5,2.6-5.4,2.6-6.1.3-8.5-10.7-15.1-12.9-16.4-12.7-7.5-19.3-2.2-25.9-7.7-8.8-7.2.1-18.9-5.3-38.9-5.6-21-22.8-35.5-37.5-48.1-9-7.7-8.9-5.8-15.6-12.2-16.4-15.6-18.7-28.3-31.2-30.9-6.6-1.4-9.6,1.4-12.9-1.3-2.8-2.2-3.5-6.5-3.2-11.5-8.4,1.5-20.1,1.1-35.2,2-31.1,1.9-22.7,6.1-86.2,15.1-7.5,1.1-21.5,3-39.8,7.9-16.7,4.5-25,6.7-30.7,11.2-18.3,14.4-9.9,33.6-26.8,46.7-4,3.1-8.9,5.4-13.9,6.8-.8,4.5-2.3,7.8-3.8,10.1-3.9,6-8,6.5-11.3,13-3.7,7.4-.9,11.4-2.2,15.3,1.4,1.2,3.1,2.3,5,3.1,5.5,2.4,10.9,1,11.5,3.1h0Z" style="fill: #db0632;"/>
        <path d="m1407.59,241.38c3.2-1.8,5.7-1.4,10.6-1.8,11.9-.9,12.2-4.8,18.3-3.9,8.2,1.2,7.7,8.2,17.6,11.3,5.5,1.7,6-.3,17.3.4,13.4.8,16.3,3.9,19.7,1.4,6.4-4.6-.3-17.5,6-22.2,5.4-4,12.3,4.3,21.5.4,7.5-3.2,7.2-10.7,15.2-12.7,5.3-1.4,7.5,1.5,12,0,3.5-1.1,6.1-4.1,8-7.8-2.5-2.2-5.4-2.7-9.3-5.2-4.2-2.7-3.5-4.1-13.7-19.1-6.7-9.8-8.7-11.8-9.8-17.1-1-4.9-.2-7.7,0-11.2.5-12.2-7.9-20.1-15-30.9-11.8-17.9-4.4-20.2-16.3-42.1-5.5-10-13-18.7-28.1-36.1-12.8-14.8-19.2-22.2-27.4-28.3-9.9-7.3-24.1-17.5-41.8-16.4-3.5.2-8.9,1.9-19.6,5.3-22.5,7.1-21,9.7-35.2,13.1-12.7,3.1-20.1,2.5-23.5,8.5-2,3.5-.2,5.1-1.3,10.5-2.4,11.8-12.8,13.2-19.6,25-6.5,11.2-.9,16.6-5.9,24.3-2.9,4.5-7.5,6.7-13.8,7.8-.4,5,.4,9.2,3.2,11.5,3.3,2.7,6.4-.1,12.9,1.3,12.5,2.6,14.8,15.3,31.2,30.9,6.7,6.4,6.6,4.5,15.6,12.2,14.8,12.6,31.9,27.1,37.5,48.1,5.3,20-3.5,31.6,5.3,38.9,6.4,5.2,12.8.5,24.7,7,1-1.1,2.2-2.2,3.7-3.1h0Z" style="fill: #db0632;"/>
        <path d="m1396.69,332.48c1.3,4.1-.2,4.5-.5,16.9-.3,12.7-.4,19.1,3.2,21.7,2.9,2,7.2,1,15.9-1.1,9.3-2.2,10.2-4.2,13.2-3.2,6.2,2.1,4.1,11.3,12.2,17.5,3.8,2.9,10.2,5.4,15.9,3.7,8.2-2.4,9.6-12,14.8-11.6,4.7.3,5.3,8.5,9.5,9,7.9.9,14.4-26.2,21.7-25.4,4.3.5,3,10.3,12.7,19.6,4.9,4.7,7.1,3.9,12.7,9.5.9.9,11.5,11.6,9,15.9-2.9,4.9-19.3-4.5-25.9,2.6-3.7,4-2.8,11.3-1.6,15.3.5,1.6,1.6,5.1,4.8,7.4,2.7,2,4.2,1.2,9,2.6,8,2.4,8.7,6.3,13.2,5.8,3.5-.4,3.4-2.8,8.5-4.2,5.2-1.5,7,.5,9.5-1.1,4.8-3,1.4-12,4.8-13.8,4.2-2.1,10.6,11.3,20.6,11.1,6.7-.1,7.1-6.2,16.9-10.6,13.5-6,26.1-.2,27.5-4.2.9-2.6-3.6-7-6.3-9-4.7-3.4-8-2.4-9.5-5.3-1.8-3.4.3-9.3,3.2-10,2.6-.7,4,3.4,11.1,9,7.1,5.5,9.6,4.5,12.7,9,2.7,3.8,1.3,5.3,4.2,11.1,3.2,6.4,8.4,11.9,10,11.1,1.8-.9-2.9-8.7.5-16.9,1.8-4.2,5.5-8.1,7.4-7.4,3.2,1.2-2.3,14.1,4.2,27,1.4,2.8,3.6,7,7.9,8.5,6.4,2.1,13.9-2.9,18-7.4,5.9-6.6,5.8-13.7,8.5-13.8,2.7,0,3,7.5,6.9,11.6,3.3,3.6,10.2,5.6,24.9,1.9-.2-1.7-.3-3.4-.5-5.1-1.5-11.6-10.3-19.6-12.3-27.8-2.4-9.8-8.6-15.8-17-23.7-9.3-8.8-13.4-9.5-36.6-25.6-9.7-6.7-14.5-10.2-16.3-12.5-11.1-14.4-3.7-27.2-13.7-36.2-8.4-7.5-16.2-.9-25.4-9.2-5.7-5.1-7.5-12.2-11.1-26.3-3.9-15.3-2.9-22.7-9.1-27-4.2-2.8-5.6-.2-11.8-3.3-7.2-3.6-13.4-11.4-15.7-19.7-1.4-5.1-.3-7.1-2.6-10.5-.6-.9-1.2-1.5-1.8-2.1-1.9,3.7-4.5,6.6-8,7.8-4.5,1.5-6.7-1.4-12,0-8,2-7.6,9.5-15.2,12.7-9.2,3.9-16.1-4.4-21.5-.4-6.3,4.7.4,17.6-6,22.2-3.4,2.5-6.3-.6-19.7-1.4-11.3-.7-11.8,1.4-17.3-.4-9.9-3.1-9.4-10.1-17.6-11.3-6.1-.9-6.4,3-18.3,3.9-4.8.4-7.4-.1-10.6,1.8-1.5.9-2.7,2-3.7,3.2.4.2.8.4,1.2.7,2.2,1.3,13.2,7.8,12.9,16.4,0,.7-.1,4.6-2.6,6.1-4.2,2.5-10.5-4.7-13.8-2.6-3.7,2.4,2.4,13.7-1.8,17.2-4.1,3.4-15.1-3-15.9-3.4-6.6-3.9-7.9-7.9-11.9-7.7-3.6.2-7.6,3.8-7.7,7.4-.2,6.8,14.3,8.6,15.1,16.7.4,4.2-3.1,9.2-7.4,10.9,1.9,2.6,4.2,5.5,7.1,8.4,8.9,9.3,14.8,10.5,17.3,18h0Z" style="fill: #db0632;"/>
        <path d="m1196.79,385.88c1,4.4-.5,7.3,1.8,9.9,4.1,4.5,12.9-.2,15.5,3.5,2.5,3.7-4.1,10.6-1.1,14.5,1.5,1.9,3.6.8,4.9,2.5,3.1,3.8-6,11.5-6.3,23.6-.2,7.3,3,7.1,2.8,15.9-.2,9.2-3.9,12.9-1.4,16.6,3.1,4.6,10.8,2,12.3,5.6,1.7,3.8-6.2,7.5-8.5,15.5-3.2,11.4,6,28,16.9,29.6,5.8.9,10.7-2.8,16.9-7.4,15.3-11.4,19.4-24.8,23.6-23.6,4.7,1.3.1,17.7,9.5,24.7,3.9,2.9,9.4,3.6,13.8,2.5,8.5-2.2,8.2-10.4,15.2-12.3,7.9-2.2,11.1,7.5,26.1,10.6,3.5.7,16.6,3.4,25-3.5,4.8-3.9,4.5-7.9,9.2-9.5,6.3-2.2,9.6,4.3,16.2,3.2,6.8-1.2,6.6-8.5,18.7-19.7,5.7-5.3,11.1-10.2,16.9-9.2,5.2.9,7.3,6,10.2,4.9,2.9-1.1,1.2-6.2,5.3-12.3,3.2-4.8,5.6-3.8,7.8-8.1,2.6-5.3.2-9.3,2.8-11.3,2-1.5,6.1-1.1,8.1,1.1,4.6,4.8-4.5,14.7-.3,21.2,3.4,5.3,14.5,6.4,20.4,2.1,4.9-3.5,3.6-8.7,7.1-9.9,6.7-2.3,13.2,15.7,26.4,16.6,6.6.4,14.1-3.5,16.9-9.2,2.2-4.5,1.2-9.1-7.8-32.1-1.3-3.5-2.6-6.7-3.8-9.7-1.4-.2-2.5-.5-3.9-1.6-3.2-2.3-4.2-5.8-4.8-7.4-1.3-4-2.1-11.4,1.6-15.3,6.6-7.1,23,2.2,25.9-2.6,2.5-4.3-8.1-14.9-9-15.9-5.6-5.6-7.8-4.9-12.7-9.5-9.7-9.2-8.4-19.1-12.7-19.6-7.2-.8-13.8,26.3-21.7,25.4-4.2-.5-4.8-8.6-9.5-9-5.2-.4-6.6,9.2-14.8,11.6-5.7,1.7-12-.8-15.9-3.7-8.1-6.2-5.9-15.4-12.2-17.5-3-1-3.9,1-13.2,3.2-8.7,2-13,3.1-15.9,1.1-3.6-2.5-3.5-9-3.2-21.7.3-12.4,1.9-12.8.5-16.9-2.4-7.5-8.4-8.8-17.4-18-2.9-2.9-5.2-5.8-7.1-8.4-.4.2-.9.3-1.3.5-7.9,1.8-11.6-9.7-23-10.6-4.8-.4-10.2,2.5-21.2,8.2-11.8,6.2-11.5,8-17.4,9.5-10.7,2.8-12.8-2.8-23.5-.8-13.8,2.5-16.5,13-26.2,11.1-4.3-.8-6.2-3.3-13.5-4.2-4.9-.6-6.1.3-9.2,0-13.2-1.1-17-18.6-26.4-18-4.2.3-8.4,4-9.5,7.9-2.6,9.6,14.8,15.7,14,26.7-.8,11.1-19.1,11.2-24.1,27.8-1.4,4.7-1,8.2-1.4,11.4,5,3.4,6.9,7,7.6,10h0Z" style="fill: #db0632;"/>
        <path d="m828.49,314.68c-3.1,1.6-8.7-6.3-13-4.2-3.4,1.6-1.3,6.9-5.6,18-2.1,5.3-3.6,6.6-4.2,11.3-.4,2.7-.9,6.8,1.1,10.9.9,1.9,2.1,3.1,10.2,9.2,4.1,3,6.2,4.6,7.8,5.6,18.2,12.2,23.7,11.5,26.4,17.6,1.2,2.7.1,2.8-2.1,20.8-1.9,15.8-1.5,18.9-.7,21.5,2.5,8.3,7.3,7.8,12,15.5,10.4,17.3-3.7,36.6,7.1,45.8.8.7,3.7,1.8,9.5,3.9,12.5,4.6,18.8,6.9,24.7,5.3,6.7-1.8,10.6-7.2,12.7-5.6,1.6,1.2-.5,4.3,1.1,6,3,3.2,18.2-1.3,22.9-11.6,2.7-5.9-.9-7.3,1.4-15.5,2.9-10.2,9.2-10.5,11.6-21.2,1.2-5.2.2-7.2,2.5-10.9,2.9-4.7,8.9-8.3,12-6.7s.5,6.9,4.2,13.4c2.7,4.8,8.5,9.6,12.7,8.1,2.9-1,4.8-5,4.6-8.5-.4-5.4-5.9-6.6-7.8-12.7-1.5-5,.6-9.7,1.4-11.6,5.2-11.9,18.1-9.2,24-20.1,4.7-8.6-1.4-14.2,3.5-19.7,5.8-6.5,15.8-.6,27.8-5.3,3.6-1.4,7.6-3.9,11.6-8.2-2.1-3.9-1.7-8-1-16,1-11,3.1-14.7.5-18-2.3-2.9-5-1.3-7.4-4.2-3.9-4.8-.9-14.6,2.9-20.6,4-6.3,6.9-5.7,7.9-9.8,2.1-8.6-10.2-15.7-7.7-20.9,2.2-4.4,12.4-1.7,14-6.1,1.2-3.2-4.3-5.2-5-11.4-.9-7.6,6.7-11.3,5-19.6-.1-.4-.9-4.3-2.6-4.5-2.1-.2-2.6,5.8-6.9,7.4-5.7,2.1-12.8-1.2-13.2-4.5-.5-3.6,6.9-6.3,6.1-8.7-.7-2-6.1-.7-11.6-2.9-1.9-.8-3.6-1.9-5-3.1-.2.6-.5,1.3-1,1.9-5.7,7.8-19.6-.6-47.9,3.9-4.7.7-9,1.7-16.9,2.5-10.7,1-16.6,1.5-23.6-.7-8.8-2.8-8.6-6.4-13.8-6.3-10.3.2-14,14.7-22.9,13.8-5.7-.6-7-6.8-10.9-6-6.2,1.3-4.3,17-12.7,20.4-5,2-9.2-2.1-12.3.7-2.7,2.3-.6,6-1.4,12-1.2,8.2-7,13.4-17.3,22.6-8.4,7.5-12.7,8.5-14.8,8.8,2.7,12.4,2.2,17.2.1,18.2h0Z" style="fill: #db0632;"/>
        <path d="m1085.79,394.88c2.9,3.2,6.4,1.1,10.6,4.2,3.5,2.6,3.2,5.8,5.3,29.6.7,7.7,1.1,11.9-1.6,15.9-2.8,4-6,3.5-6.9,6.3-2.1,6.9,14.7,14.1,13.2,23.3-.7,4.5-5,4.3-6.9,10.6-1.7,5.6.7,9.3,1.6,15.3.8,4.9-.9,11.1-4.2,23.3-8.4,30.8-8.9,32-11.1,33.3-7.7,4.5-14-3.3-30.7,1.1-5.6,1.5-10.5,2.7-12.7,6.9-4.3,8.1,6.7,18.2,2.6,23.8-3.9,5.5-16.9,0-19,4.2-2.5,5.1,14.7,16.1,12.2,21.7-2.3,5.1-18-1.1-22.2,5.3-4.3,6.5,6.8,21.2,11.6,27.5,6.3,8.3,9.5,12.5,14.8,14.3,10.6,3.6,17.4-4.5,29.1.5,2.4,1,7.3,3.1,8.5,7.4,1.4,5.4-4.2,10.2-2.1,13.2,1.2,1.7,3.5.8,7.4,1.6,9.6,2,11.9,10.9,16.4,10,4.9-1,3.7-12.2,9-13.8,4-1.2,7.2,4.4,19,12.7,7.2,5.1,13.3,9.3,16.4,7.4,3-1.9-.1-7.5,2.1-18,.9-4.4,3-14.2,9.5-16.9,5-2.1,7.8,2.1,13.8,0,4.1-1.4,4.8-4.1,10.6-10.6,7.6-8.6,11.8-13.3,15.9-12.7,5.1.8,3.6,9.2,13.2,19.6,5.2,5.7,7.8,5.4,10.6,10.6,4,7.5.6,11.2,4.2,15.3,4.4,5,10.1.1,22.2,5.3,5.7,2.5,7.7,4.9,11.6,4.2,4.2-.7,5.8-4.2,9-7.4,7.9-8.1,14.1-4,25.9-10.6,4-2.2,9.9-8.8,21.7-21.7,5.7-6.3,12.4-8.7,12.2-13.8-.2-4-3.9-4.8-4.2-9-.6-7.4,10.2-12.5,9-14.8-.7-1.3-4.6-.5-16.4,2.1-13.4,3-15.7,3.6-17.4,2.1-4.7-3.9,3.1-15.3-1.6-20.1-5.1-5.2-17,5.4-28,0-7.6-3.7-12.7-14-10.6-21.2,2.4-7.9,12.1-6.3,18-16.4,3.6-6.2,5.2-15.9,1.1-22.2-4.9-7.5-14.5-4.8-17.4-11.6-2.7-6.1,4-10.9,2.1-18-.5-1.9-1.7-4.1-4.2-6.3-2.3,2.3-4.9,4.7-7.9,7-6.2,4.7-11.1,8.3-16.9,7.4-10.9-1.6-20.1-18.2-16.9-29.6,2.2-8,10.1-11.7,8.5-15.5-1.6-3.6-9.3-1.1-12.3-5.6-2.5-3.7,1.2-7.4,1.4-16.6.2-8.7-3-8.5-2.8-15.9.4-12.1,9.5-19.8,6.3-23.6-1.4-1.7-3.4-.5-4.9-2.5-3-3.9,3.6-10.8,1.1-14.5-2.6-3.8-11.4,1-15.5-3.5-2.3-2.5-.7-5.5-1.8-9.9-.7-3-2.7-6.6-7.5-10.3-.3,2.1-.9,4-2.8,6.1-4.2,4.6-12.1,6.9-17.2,4.2-4.1-2.2-2.7-5.6-7.4-9.8-5.8-5.2-10.3-2.2-17.2-6.9-6.3-4.3-4.4-8.2-10.3-12.7-6.5-5-17.8-7.3-23.8-2.6-6.2,4.8-1.3,12.8-9,22.5-3.2,4-9.3,9.3-14.3,7.9-1.3-.4-2.1-1.1-2.8-2-1.6,5.2-1.8,10,.8,12.9h0Z" style="fill: #db0632;"/>
        <path d="m841.59,503.78c1.4,4,4.9,3.4,6.9,7.9,2.8,6.6-.9,16.5-6.9,19-4,1.7-6.4-1.1-8.5.5-5.2,4.1,8.4,22.9,1.6,31.7-3.2,4.2-7.4,1.5-11.6,6.3-5.3,6-5.1,17.4-1.1,25.4,4,7.9,10.5,10,9.5,14.8-.8,4.1-6.1,5.2-5.8,9,.2,2.4,2.4,2.9,4.2,5.8,4.1,6.6-.1,15.5,1.1,15.9s3.1-11.1,9-12.7c5.6-1.5,10.3,7.4,26.4,21.2,8.5,7.2,12.8,10.8,18.5,13.2,2.8,1.2,21.2,8.7,34.9,2.1,2.2-1,5.9-3.3,11.6-3.7,4.5-.3,7.4.7,9.5,1.1,13.3,2.6,20.8-12.4,29.6-10,9.5,2.5,13.7,23,14.3,34.9.6,12.8-2.9,20,2.1,24.8,3.7,3.5,10.5,4.3,15.3,2.1,7.8-3.6,7.3-13.7,12.7-14.3,4.2-.5,5.3,5.7,13.8,8.5,1.4.5,8.6,2.8,12.7-.5,3.2-2.7,1.7-6.7,3.7-10,4.1-6.9,17.8,1.9,28-3.7,2.6-1.4,5.6-4,8.1-9.4-1.6-.1-2.6-.2-3.3-1.2-2.1-3,3.6-7.8,2.1-13.2-1.2-4.3-6.1-6.4-8.5-7.4-11.7-5-18.5,3.1-29.1-.5-5.3-1.8-8.5-6-14.8-14.3-4.8-6.3-15.9-21-11.6-27.5,4.2-6.4,19.9-.2,22.2-5.3,2.5-5.6-14.7-16.6-12.2-21.7,2.1-4.2,15.2,1.2,19-4.2,4-5.6-6.9-15.7-2.6-23.8,2.2-4.1,7.1-5.4,12.7-6.9,16.7-4.3,23,3.4,30.7-1.1,2.2-1.3,2.7-2.5,11.1-33.3,3.3-12.1,5-18.3,4.2-23.3-.9-6.1-3.3-9.7-1.6-15.3,1.9-6.3,6.2-6.1,6.9-10.6,1.4-9.2-15.3-16.4-13.2-23.3.9-2.9,4.1-2.3,6.9-6.3,2.7-3.9,2.3-8.1,1.6-15.9-2.1-23.8-1.8-27-5.3-29.6-4.1-3.1-7.7-1-10.6-4.2-2.6-2.9-2.4-7.7-1.2-12.6-1.6-2.2-2.1-5.6-5.7-7.8-6.6-3.9-12.3,2.8-21.7-.8-1.2-.5-6.7-2.7-9.5-7.9,0,0,0-.1-.1-.1-3.9,4.4-8,6.8-11.6,8.2-12.1,4.7-22.1-1.2-27.8,5.3-4.9,5.5,1.1,11.1-3.5,19.7-5.8,10.8-18.8,8.2-24,20.1-.8,2-2.9,6.6-1.4,11.6,1.8,6.1,7.4,7.2,7.8,12.7.2,3.5-1.7,7.4-4.6,8.5-4.2,1.5-10-3.3-12.7-8.1-3.7-6.5-1.2-11.8-4.2-13.4-3.1-1.6-9.1,2-12,6.7-2.3,3.7-1.3,5.7-2.5,10.9-2.4,10.7-8.7,11-11.6,21.2-2.3,8.2,1.3,9.6-1.4,15.5-4.7,10.3-19.9,14.9-22.9,11.6-1.5-1.6.5-4.8-1.1-6-2.1-1.5-5.9,3.8-12.7,5.6-5.9,1.6-12.1-.7-24.7-5.3-5.8-2.1-8.7-3.2-9.5-3.9-2.3-2-3.5-4.5-4-7.4-3.1.5-6.6,1.6-10.1,3.8-7.1,4.9-14,14.3-11.5,20.9h0Z" style="fill: #db0632;"/>
        <path d="m505.99,323.88c.3,3.8,2.6,4.5,2.5,7-.3,5.2-9.8,5-13,11.3-3.5,7,2.2,18.7,8.8,25,5,4.8,8.5,4.7,9.5,8.5,1.9,7.1-9,12.9-7,17.6,2.2,5.4,17.6,0,23.3,7.8,3.9,5.3.4,13.2,3.5,14.5,2.8,1.1,5.3-5,10.2-4.9,6.3.1,6.9,10.3,15.5,13.4,7.1,2.6,10.5-3,16.6-.3,7.7,3.4,4.3,13.3,12.3,20.1,8.2,6.9,15.5-.1,28.2,6.7,10.8,5.7,11,13.7,18,13.8,7.6.1,14.8-9.3,17.6-17.3,4.1-11.8-.9-22.1,2.1-23.3,1.9-.7,6,2.9,7.4,7,1.9,5.5-1.8,9,.7,12.7,2.1,3.2,6.6,3.5,7.8,3.5,5.2.3,9-2.8,10.2-3.9,5.6-4.9,4-10,7.4-16.2,6.9-12.8,24.3-10.5,25.4-18,1-7.4-15.3-14.3-13.4-19.4,1.2-3.3,8.4-1.6,10.2-5.6,1.9-4.2-4.9-8.2-3.9-14.1,1.2-6.8,11.5-10.1,12-10.2,11.5-3.5,18.4,4.9,23.3,1.4,7.5-5.4-4.9-28.9,2.8-34.2,2.5-1.7,4.4.3,18.3,1.1,7.7.4,11.6.6,13.8-.3,6.2-2.8,7.7-13.9,7.6-24.3-.2.5-.6.9-.9,1.3-5.1,5.8-19.1,4.7-23.3-1.4-1.4-2.1-1-3.7-2.8-4.9-3.2-2.2-6.8,1.1-11.6.3-4.9-.7-5.8-4.7-9.9-7.8-11.1-8.3-24.7,6.1-42.7-1.1-4.9-2-6.2-4-13-6-7.2-2.1-9.2-.8-16.2-3.2-7.3-2.4-6.9-4.4-13-6-8.4-2.2-15.3-.1-16.9.3-2.4.7-4.4,1.7-6.2,2.7,1.5,4.9,1,12-2.8,16.8-7,9-21.7,4.2-23.3,3.7-2.7-.9-3.6-1.7-12.7-8.5-16.4-12.1-20-14.3-23.8-13.2-4.2,1.2-4,5-8.5,5.8-6.4,1.2-9.5-6.3-14.3-5.3-6.2,1.3-4.1,14-13.8,22.2-4.3,3.7-10.9,6.2-15.3,5.2-.9,4.5-2.3,7.9-3.5,10.3-1.6,3.3-3.5,5.7-3.2,9.4h0Z" style="fill: #db0632;"/>
        <path d="m283.79,532.58c3,2.8,8.1,2,8.7,1.8,6.7-1.3,6.7-7.2,14.5-11.1,1.3-.6,7.5-3.6,14.3-1.8,5.3,1.4,5.3,4.2,9.8,5.8,9.3,3.3,15.3-6.9,24-4.5,8.3,2.3,7,12.6,14.8,14.5,9.2,2.3,15.2-11.1,25.1-8.7,6.7,1.6,7.1,8.5,14.3,9.2,6.5.7,9.2-4.8,13.8-3.2,4.9,1.8,7.5,10,7.1,16.4-.4,7.5-4.7,10-3.4,16.9.2.9,1.2,6.5,4.5,7.4,3.8,1,5.8-5.6,11.1-6.3,9.3-1.3,19.3,17,20.3,19,5.3,9.9,2.8,12.2,7.4,16.9,3.6,3.7,5.4,2.5,26.2,8.5,11.2,3.2,15,4.8,19.3,2.6,3.6-1.8,4.9-4.8,9.2-5.3,3.8-.4,4.8,1.7,8.7,1.6,5.3-.1,11.2-4.1,11.1-7.4-.1-4.5-10.8-5.8-10.8-10.6,0-2.4,2.7-2.7,4.2-5.8,3.3-6.9-6.2-13.3-4-20.6,1.9-6,10.9-9.7,17.7-9.5,6,.1,8.2,3.3,10.3,1.8,4-2.7,1.4-17.9-6.3-29.6-4.8-7.3-9.8-10.3-11.4-18.8-1-5.5.8-5.9-.5-9.5-3.3-9-14.7-7.5-19.6-17.5-1.5-3.1-2.7-7.9-.8-9.5,3.5-3,13.4,8.9,21.9,5.8,6.3-2.3,8.4-11.3,9.2-15.1.6-2.5,2.5-10.7-1.6-18.2-4.9-9-13.3-7.7-18-15.1-2.1-3.3-3.5-8.6-1.4-17.4-.1,0-.2,0-.3-.1-3.1-1.3.4-9.1-3.5-14.5-5.7-7.8-21-2.3-23.3-7.8-2-4.7,8.9-10.5,7-17.6-1-3.8-4.5-3.7-9.5-8.5-6.6-6.4-12.4-18.1-8.8-25,3.2-6.3,12.8-6.1,13-11.3.1-2.5-2.2-3.3-2.5-7s1.6-6.2,3.2-9.2c1.3-2.4,2.7-5.8,3.5-10.3-.8-.2-1.5-.5-2.1-.9-5-3.6.7-12.4-4.8-19.6-4.4-5.8-13.2-6.8-23.3-7.9-10.7-1.2-15.2.6-17.5-2.6-3.3-4.6,3.3-11.8-.5-16.9-2.3-3-5.2-1.4-9-4.2-6.1-4.7-3.2-13-6.9-20.6-1.9-4-6.1-8.7-16.2-12.2-1.3,3.1-3,6.3-5.4,9.6-13.6,19-32.1,18.8-32.6,32.2-.3,6.7,4.2,9.4,3.3,19.7-.1,1.5-1.4,13.7-7.8,15.8-3.3,1-4.7-1.6-7.8-1.3-7.8.6-11.3,17.3-20.9,43.4-5.4,14.8-8.1,22.2-11.8,27.6-3.9,5.8-10.6,13-24.2,27.6-9.4,10.1-10.6,11-11.8,14.5-3.8,11.3,3.1,20.3-2.6,27-3,3.5-5.5,1.6-9.1,5.3-6.3,6.3-.9,14.3-4.6,25-5,14.6-20.7,15.7-20.2,25.6.3,6.3,6.7,7.6,6.5,15.1-.1,4.3-2.3,9.3-5.9,12,1.5,1.6,2.5,3.1,3,4.5,2.2,4.3,1,7.5,3.7,9.9h0Z" style="fill: #db0632;"/>
        <path d="m572.59,567.78c1.1,1.6,1.5,2.5,2.8,3.2,7,4,17.8-8.8,22.9-5.6,3.1,2-.1,7.3,3.2,14.5,2.7,5.8,9.4,12.1,16.2,12,11.2-.2,17.7-17.7,24-15.5,2.4.8,1.6,3.5,4.9,6,5.5,4.1,15.4,2.9,20.8-2.1,5.1-4.8,2.7-9.8,6.3-11.6,7-3.4,16.6,14.5,30,12.3,4.3-.7,7.7-3.3,11.3-1.4,3.4,1.8,3,5.5,6.3,6.7,4.3,1.6,7.6-3.5,10.6-2.1,3.7,1.7.3,10.7,3.5,21.5,2.7,9.2,9.7,17.9,13.4,16.9,5.6-1.5-.2-24.1,9.2-28.9,6.4-3.3,12.2,5.8,24.3,2.8,6.1-1.5,8.4-4.7,14.4-4.2,5.5.4,9.2,3.5,10.9,4.8,3.7,2.6,9.5,4.9,19.3,4.8-1.7-1.8-3.5-3.9-5-6.9-4-7.9-4.3-19.3,1.1-25.4,4.2-4.8,8.4-2.2,11.6-6.3,6.8-8.8-6.8-27.6-1.6-31.7,2.1-1.6,4.4,1.1,8.5-.5,6-2.5,9.7-12.5,6.9-19-1.9-4.5-5.4-3.9-6.9-7.9-2.4-6.7,4.5-16,11.6-20.6,3.5-2.2,7-3.3,10.1-3.8-1.7-10.2,5.1-24.9-3.1-38.5-4.7-7.7-9.5-7.2-12-15.5-.8-2.6-1.2-5.7.7-21.5,2.2-18,3.3-18.1,2.1-20.8-2.7-6.1-8.3-5.5-26.4-17.6-1.6-1.1-3.7-2.6-7.8-5.6-8.1-6-9.3-7.3-10.2-9.2-2-4.1-1.4-8.3-1.1-10.9.7-4.7,2.1-6,4.2-11.3,4.3-11,2.2-16.4,5.6-18,4.4-2,9.9,5.8,13,4.2,2-1,2.6-5.8-.3-18.3h0c-3.9.6-4.2-.6-9.2-.3-10.1.5-11.8,5.7-18.3,4.9-7.6-.9-10.8-8.6-14.1-7-2.5,1.2-.9,5.5-2.9,9.2.1,10.3-1.4,21.4-7.6,24.3-2.2,1-6,.8-13.8.3-13.9-.8-15.8-2.8-18.3-1.1-7.7,5.3,4.7,28.8-2.8,34.2-4.8,3.5-11.8-4.9-23.3-1.4-.5.2-10.8,3.4-12,10.2-1,6,5.7,9.9,3.9,14.1-1.8,4-9,2.4-10.2,5.6-2,5.1,14.4,12,13.4,19.4-1,7.5-18.4,5.2-25.4,18-3.4,6.2-1.8,11.3-7.4,16.2-1.2,1-5,4.2-10.2,3.9-1.1-.1-5.7-.4-7.8-3.5-2.5-3.7,1.2-7.2-.7-12.7-1.4-4.2-5.5-7.8-7.4-7-3,1.1,2,11.5-2.1,23.3-2.8,8-10,17.4-17.6,17.3-7-.1-7.2-8-18-13.8-12.7-6.8-20,.2-28.2-6.7-8.1-6.8-4.6-16.7-12.3-20.1-6.1-2.7-9.5,3-16.6.3-8.6-3.1-9.2-13.3-15.5-13.4-4.8-.1-7.3,5.7-10,5-2.1,8.7-.7,14,1.4,17.4,4.7,7.4,13.1,6.1,18,15.1,4.1,7.5,2.2,15.8,1.6,18.2-.9,3.7-3,12.8-9.2,15.1-8.6,3.1-18.4-8.8-21.9-5.8-1.9,1.6-.7,6.4.8,9.5,4.8,9.9,16.2,8.5,19.6,17.5,1.4,3.6-.5,4,.5,9.5,1.5,8.4,6.5,11.5,11.4,18.8,6.4,9.6,9.2,21.7,7.8,27.1,4.4,3.2,7.2,6.6,9.1,9.4h0Z" style="fill: #db0632;"/>
        <path d="m141.59,718.98c10.9,2.1,15.8-4,23.8.5,8.2,4.6,8.1,14,14.8,14.8,5.6.7,7.5-5.7,13.2-4.8,6.8,1.1,8.3,11,14.8,11.1,2.8,0,3-1.8,6.3-2.6,8.5-2,12.9,8.7,21.2,8.5,6.5-.2,7.1-6.9,20.6-16.9,5.7-4.2,14.2-10.5,18.5-7.9,4.2,2.6-.5,11,4.8,16.9,4.8,5.3,11.4,1.3,16.9,6.9,5.6,5.6,3.2,13.8,6.9,14.8,4.1,1.1,7.9-8.7,13.2-7.9,5.2.8,4.9,10.7,10.6,12.2,5.8,1.5,8.9-7.9,17.5-8.5,9.8-.7,15.5,11.1,20.1,9,5.1-2.3-.6-17.2,4.2-20.1,8.4-5.1,32.9,35.4,56.6,31.2,4.9-.9,9.4-3.6,21.2-5.3,8.2-1.2,11-.5,13.8-3.2,5.4-5.2-.3-13.1,4.8-20.1s14.2-3.4,16.9-9c3.8-7.6-11.9-16.9-9-28,2.2-8.5,12.6-8.1,14.8-17.5,2.1-9-6.1-14.8-3.2-19,3.2-4.6,13.2,2,29.1-1.1,6.1-1.2,16.8-3.2,21.2-11.1,4.8-8.6-1.9-17.3,4.2-24.3,3.7-4.2,8.2-3.4,9-6.9.9-4-4.6-7.1-10-14.8-.9-1.2-1.7-2.5-2.4-3.7-.7.1-1.4.2-2.1.2-4,.1-4.9-2-8.7-1.6-4.3.5-5.6,3.5-9.2,5.3-4.3,2.1-8.1.6-19.3-2.6-20.8-6-22.6-4.7-26.2-8.5-4.5-4.7-2.2-7-7.4-16.9-1.1-2-11-20.3-20.3-19-5.3.7-7.3,7.4-11.1,6.3-3.3-.9-4.3-6.5-4.5-7.4-1.3-6.9,3-9.4,3.4-16.9.3-6.4-2.2-14.6-7.1-16.4-4.6-1.6-7.2,3.8-13.8,3.2-7.2-.7-7.6-7.6-14.3-9.2-9.9-2.4-15.9,11-25.1,8.7-7.8-2-6.5-12.3-14.8-14.5-8.7-2.4-14.7,7.8-24,4.5-4.5-1.6-4.5-4.4-9.8-5.8-6.8-1.8-13,1.2-14.3,1.8-7.8,3.9-7.8,9.8-14.5,11.1-.6.1-5.7,1-8.7-1.8-2.6-2.5-1.5-5.6-3.2-9.8-.6-1.4-1.5-2.9-3-4.5-.6.4-1.2.8-1.9,1.2-6.2,2.9-10.6-2.6-15,0-6.9,4.1-1.6,20.6-7.2,23-4.1,1.7-8.9-6.3-13.7-4.6-3.7,1.3-3.7,7-5.9,15.8-5,20-14.3,27-10.4,32.9,2.8,4.3,8.5,1.9,11.1,6.6,3,5.5-1.1,15.9-7.2,17.8-6,1.9-10.1-5.7-14.4-3.9-7.5,3.2,1.3,28.6-9.1,35.5-4.8,3.2-10,0-14.4,4.6-4,4.2-1.3,8.5-4.6,11.8-5.5,5.5-19.7.3-29.4-3.3-13.9-5.1-14.8-8.4-22.2-8.5-8.3-.1-17.8,3.9-23.5,11.2-7.7,9.8-2.5,18-9.8,26.9,5.9,4.9,10.8,9.2,14.5,12.8,13.6,12.7,17.1,18.9,26.7,20.8h0Z" style="fill: #db0632;"/>
        <path d="m275.29,995.48c4.6-7.4,4-14.7,3.2-24.3-.6-7.6-2-24.4-11.6-28.6-3.4-1.5-7-1-7.4-2.6-.5-2.3,6.8-3.5,9-8.5,3.9-8.9-12.6-20.8-9-27,2.2-3.7,10.4-2.8,12.2-2.6,9,1,12,6.7,15.3,5.3,5-2.1-.9-14.9,5.8-24.3,5.5-7.7,18.5-11.6,25.9-7.4,8.2,4.6,5,16.2,14.3,20.6,4.3,2.1,10,1.9,14.3,0,6.5-2.9,6.7-8.5,11.1-9,4.9-.6,6.9,6.2,14.3,11.1,10.2,6.8,25.5,6.8,28.5,1.6,3.8-6.5-13.5-18.6-9.5-26.4,3.2-6.3,17.8-5.1,22.7-4.8,17.2,1.3,23.6,9.3,30.1,5.3,5.8-3.6,2.9-11.3,10.6-16.9,5-3.6,7.5-1.4,13.8-4.2,9-4.1,8.6-11,18.5-23.3,10.8-13.3,18.7-14.3,18-19.6-1.1-8-19.1-6.2-24.8-18.5-3.8-8.2,2.1-13.5,0-23.8-1.2-5.8-4.9-13-15.1-20.3-.1.1-.1.2-.2.2-5.1,7,.6,14.9-4.8,20.1-2.7,2.6-5.6,2-13.8,3.2-11.8,1.7-16.2,4.4-21.2,5.3-23.7,4.2-48.2-36.3-56.6-31.2-4.8,2.9.8,17.8-4.2,20.1-4.6,2.1-10.3-9.6-20.1-9-8.5.6-11.7,10-17.5,8.5-5.7-1.5-5.4-11.4-10.6-12.2-5.3-.8-9.1,9.1-13.2,7.9-3.7-1-1.3-9.2-6.9-14.8-5.6-5.5-12.1-1.6-16.9-6.9-5.3-5.9-.5-14.3-4.8-16.9-4.2-2.6-12.8,3.7-18.5,7.9-13.5,10-14.2,16.7-20.6,16.9-8.3.3-12.7-10.5-21.2-8.5-3.3.8-3.5,2.7-6.3,2.6-6.5-.1-8-10-14.8-11.1-5.7-.9-7.6,5.5-13.2,4.8-6.7-.8-6.6-10.2-14.8-14.8-8-4.5-12.9,1.6-23.8-.5-9.6-1.9-13.1-8-27-21.2-3.7-3.5-8.5-7.9-14.5-12.8-.2.2-.4.5-.6.8-.5.6-8.7,9.4-18.9,8.5-14.1-1.1-18.9-19.4-28.1-17.8-7.5,1.3-8.4,14.3-15.7,14.5-5.4.1-6.7-6.8-14.4-7.9-6.5-.9-11.9,3.2-13.7,4.6-1.5,1.1-9.5,7.2-8.5,13.8,1,6.4,9.4,6,13.7,15.1,2.8,5.8-.2,7,2.6,13.8,2.5,5.9,8.6,14.4,17,15.8,3.6.6,5.6-.5,9.1,1.3,4,2.1,6,5.8,6.5,6.9,4.3,8.7-.8,17.1,2,18.7,3.2,1.9,11.5-8.5,14.4-6.6,1.8,1.2-1,5.1.3,9.9,2.2,8.1,12.8,6.6,18.6,15.1,5.8,8.5-1,15.6,5.2,23,5,6,15.1,8,18.9,4.6,3.4-3,.7-9.4,3.3-10.5,2.4-1,7.9,2.9,8.8,7.9,1.2,6.2-5.7,9.2-4.9,16.4.5,4.8,3.7,4.8,4.2,8.9,1.2,9.1-14.3,12.8-15.3,23-1.1,10.5,14.5,15.4,13,26-1.2,8.6-12.5,12.3-11.1,16.1,1.7,4.6,18.2.5,20.6,6.2,1.4,3.4-3.6,6.5-2.3,10.5,1.5,4.7,9.9,1.5,16.3,7.2,10.7,9.5,9.3,23.8,18.3,26.3,4.5,1.3,6.3-2,11.1,0,6.5,2.7,6,9.7,11.1,11.2,6.1,1.8,10.1-7.9,15.7-5.9,8.5,3,5.4,18.9,16.3,25.6,5.6,3.4,7.5,0,20.2,2.6,3,.6,14.7,3.2,26.1,11.8,1.1.8,2.5,1.9,4,3.1,4-1.6,8.4-4.8,11.5-9.9h0Z" style="fill: #db0632;"/>
        <path d="m402.19,1201.68c.9-3.5,0-7.8,2.6-9.5,3.3-2.1,7.8,3,11.1,1.1,3.1-1.8,2.6-8,2.1-15.9-.7-10.5-2.6-11.5-1.6-16.9,1.3-7.1,4.8-7,5.8-13.8,1.2-8.1-3.4-11.1-1.1-15.9,2.2-4.5,8.9-7,14.3-6.3,8.1.9,8.8,8.2,18,12.2,7.4,3.2,18.4,3.3,24.8-2.1,6.2-5.2,3.5-11.6,9.5-27.5,2.7-7.1,5.5-11.8,9.5-18.5,12.5-20.9,20.5-23.3,24.3-38.1,1.3-4.9,2.7-10.3,1.1-16.9-3.5-14.3-16.8-16.5-16.9-25.9-.1-4.9,5.8-5,18.7-22.3.2-.2.2-.3.3-.4,7.7-10.3,15.9-27.4,10.6-33.3-3.6-4-11.3-.2-13.2-3.7-2.3-4.2,9.1-10.1,13.2-22.7,5.7-17.5-6.8-34.7-8.5-37-3.7-5-8-10.8-14.8-11.6-5.7-.7-10.6,2.4-12.7,0-1.6-1.8.7-4.3,0-7.9-1.2-5.8-8.5-7.7-15.3-12.2-2.7-1.8-5.9-4.3-9.2-8.3-1.5,1.8-3.4,3.3-6.1,4.6-6.2,2.8-8.8.6-13.8,4.2-7.7,5.6-4.7,13.3-10.6,16.9-6.5,4-12.9-4-30.1-5.3-4.9-.4-19.5-1.5-22.7,4.8-4,7.8,13.3,19.9,9.5,26.4-3,5.2-18.4,5.2-28.5-1.6-7.4-4.9-9.4-11.7-14.3-11.1-4.4.5-4.6,6.1-11.1,9-4.3,1.9-10,2.1-14.3,0-9.3-4.4-6.1-16.1-14.3-20.6-7.4-4.2-20.4-.3-25.9,7.4-6.7,9.4-.9,22.2-5.8,24.3-3.3,1.4-6.3-4.3-15.3-5.3-1.8-.2-10-1.1-12.2,2.6-3.6,6.1,12.9,18.1,9,27-2.2,5-9.5,6.1-9,8.5.4,1.6,4,1.2,7.4,2.6,9.6,4.2,11,21,11.6,28.6.8,9.7,1.4,16.9-3.2,24.3-3.2,5.2-7.6,8.3-11.2,10.3,4.7,3.9,10.2,9.4,9,13.9-1.1,3.9-6,2.8-10.4,7.9-7.1,8.1-1,18.2-7.2,23.7-5.5,4.9-13.7-.2-16.3,3.9-2.5,4,2,13.5,9.1,19.1,11,8.5,21.6,2.4,29.4,11.2,2.9,3.2,5.6,8.8,3.9,13.2-2.7,6.9-15.6,8-22.2,8.6-13.3,1.1-19.2-2.4-22.2,1.3-3.2,4,.3,12.1,2.6,17.8.8,2,3.2,7.7,7.2,11.8,13.1,13.8,34.7,2.3,43.1,13.2,6.5,8.4-3.7,19.3,2.6,26.9,5.5,6.7,16.2,2.2,45,1.3,35.3-1.1,41.2,4.9,43.1,7.2,4.5,5.4,1,8.1,7.2,23,.4.9.8,1.8,1.2,2.7,9-3.4,12.3-7.4,13.2-10.9h0Z" style="fill: #db0632;"/>
        <path d="m536.49,983.28c4.4-.8,5.8-2.5,10.6-3.2,8.1-1.1,13.6,2.3,19,4.2,16.8,6,35.2-1.4,42.3-4.2,13.7-5.4,18-12.3,26.4-10,5.1,1.4,8.5,5.2,13.8,3.7,3.7-1.1,4.3-3.7,9-4.8,4.4-1,5.7.9,9,0,5.8-1.6,4.7-8.4,9.5-11.1,8.3-4.6,20.1,11,31.7,6.3,3.2-1.3,2.2-2.4,7.4-5.3,9.8-5.4,14.6-2,18-5.8,4.8-5.3-3.2-13.4,1.1-25.9,2.3-6.8,5.3-6.2,6.9-11.6,4.6-16-15.4-40.9-29.1-39.1-4.6.6-9.1,4.2-10.6,2.6s2.6-5.6,1.1-9c-2-4.7-11.6-2.1-13.8-6.3-2.3-4.5,7-9.6,5.8-17.4-1-6.6-8.2-7.1-9.5-14.3-1-5,2.3-6.2,4.2-13.8,4.1-15.7-4.4-30.8-5.8-33.3-3.1-5.4-3.8-4.3-6.9-10-6.2-11.7-2.7-15.4-7.9-22.7s-11.2-7-13.2-14.3c-1.3-4.6.6-6.3-1.1-8.5-4.5-5.7-20.5,4.5-25.9-1.1-4.2-4.3,3.9-11.9-.5-22.7-2.8-7-8.1-8.5-8.5-15.3-.2-5.4,2.9-6.4,2.1-10-1.7-7.7-16.3-5.6-22.2-14.8-5.5-8.6,3-16.6-2.1-23.3-5.5-7.1-17.7-.8-36-5.8-5.2-1.4-9.6-3.4-13.3-5.5-1,3.1-5.3,2.5-8.9,6.6-6.2,7,.5,15.7-4.2,24.3-4.3,7.9-15,9.9-21.2,11.1-15.9,3.1-25.9-3.5-29.1,1.1-2.9,4.2,5.3,10.1,3.2,19-2.2,9.4-12.6,9-14.8,17.5-2.9,11.2,12.7,20.4,9,28-2.7,5.5-11.6,2.1-16.7,8.7,10.3,7.3,14,14.5,15.1,20.3,2.1,10.3-3.8,15.6,0,23.8,5.7,12.3,23.8,10.5,24.8,18.5.7,5.3-7.2,6.3-18,19.6-6.9,8.5-8.8,14.5-12.4,18.7,3.3,3.9,6.5,6.5,9.2,8.3,6.8,4.4,14.2,6.3,15.3,12.2.7,3.7-1.6,6.1,0,7.9,2.1,2.4,7-.7,12.7,0,6.8.8,11.1,6.7,14.8,11.6,1.7,2.3,14.2,19.5,8.5,37-4.1,12.6-15.5,18.5-13.2,22.7,1.9,3.4,9.6-.3,13.2,3.7,4.8,5.3-1.4,20.1-9.1,31.2,4.3,1.1,7.7,1,10.3.5h0Z" style="fill: #db0632;"/>
        <path d="m750.29,917.08c4.2-2.1,7.9-7,7.8-12-.2-4.9-4-6.4-7.1-11.3-7.9-12.4,4.2-22.9-2.1-38.1-4.4-10.6-13.1-11.9-12-18.3,1.3-7.4,13.2-7.8,14.8-16.2,1.4-7.2-6.5-12.2-4.2-16.2,2.4-4.2,11.3,1.3,18.3-2.8,12.4-7.2,4.7-35.4,15.5-39.5,3.9-1.5,6,1.8,9.2,0,8.4-4.9-2.8-29.8,6.3-36,3.4-2.3,9-1.7,12,.7,3.7,2.9,2,7.2,5.6,10.6,3.5,3.3,10.4,4.1,14.1,1.4,6.3-4.6-2.4-15.8,2.8-26.8,6.5-13.7,26.1-9.9,34.5-24.7,3.2-5.7.7-7.9,2.8-19,1-5.5,2.6-10.3,4.3-14.7-1.9-1.6-4.1-3.4-6.6-5.6-16.2-13.7-20.8-22.7-26.4-21.2-5.8,1.6-7.8,13.1-9,12.7-1.1-.4,3.1-9.3-1.1-15.9-1.8-3-4.1-3.4-4.2-5.8-.3-3.8,5-4.9,5.8-9,.6-3-1.7-5-4.5-7.9-9.7.1-15.6-2.1-19.3-4.8-1.8-1.3-5.5-4.3-10.9-4.8-6.1-.5-8.4,2.7-14.4,4.2-12.1,3-17.9-6.1-24.3-2.8-9.3,4.8-3.6,27.5-9.2,28.9-3.7,1-10.7-7.7-13.4-16.9-3.2-10.8.2-19.8-3.5-21.5-3-1.3-6.3,3.7-10.6,2.1-3.3-1.2-2.9-4.9-6.3-6.7-3.6-1.9-7,.7-11.3,1.4-13.3,2.2-22.9-15.7-30-12.3-3.7,1.8-1.2,6.8-6.3,11.6-5.4,5-15.3,6.2-20.8,2.1-3.3-2.5-2.5-5.1-4.9-6-6.3-2.2-12.7,15.3-24,15.5-6.8.1-13.5-6.2-16.2-12-3.3-7.1-.1-12.5-3.2-14.5-5.1-3.2-15.9,9.6-22.9,5.6-1.3-.7-1.7-1.6-2.8-3.2-1.9-2.8-4.7-6.2-9-9.9-.3,1.2-.8,2-1.5,2.5-2.1,1.4-4.3-1.7-10.3-1.8-6.8-.2-15.8,3.5-17.7,9.5-2.3,7.3,7.3,13.7,4,20.6-1.5,3.2-4.2,3.4-4.2,5.8,0,4.8,10.7,6.1,10.8,10.6.1,2.9-4.4,6.2-9,7.2.7,1.2,1.5,2.4,2.4,3.7,5.5,7.7,11,10.8,10,14.8,0,.1-.1.2-.1.3,3.7,2.1,8.2,4.1,13.3,5.5,18.3,5,30.5-1.3,36,5.8,5.1,6.6-3.4,14.7,2.1,23.3,6,9.2,20.5,7.1,22.2,14.8.8,3.7-2.4,4.7-2.1,10,.3,6.8,5.6,8.3,8.5,15.3,4.4,10.8-3.7,18.4.5,22.7,5.5,5.5,21.4-4.7,25.9,1.1,1.7,2.1-.2,3.9,1.1,8.5,2,7.3,8,7,13.2,14.3,5.3,7.3,1.7,11.1,7.9,22.7,3.1,5.8,3.8,4.6,6.9,10,1.4,2.5,9.9,17.7,5.8,33.3-2,7.5-5.2,8.8-4.2,13.8,1.4,7.2,8.5,7.7,9.5,14.3,1.2,7.8-8.1,13-5.8,17.4,2.2,4.3,11.7,1.7,13.8,6.3,1.5,3.4-2.5,7.4-1.1,9,1.5,1.6,6-2.1,10.6-2.6,13.6-1.7,33.7,23.1,29.1,39.1-.3,1-.6,1.8-1,2.4,3.5,1.2,7.1.9,10.1-.6h0Z" style="fill: #db0632;"/>
        <path d="m607.19,1339.28c4.6-5.7,29.4,10.8,34.5,4.9,2.1-2.4-1.5-5.8-2.8-17.6-1.4-12.2,1.8-14-.7-21.2-3.4-9.7-11.1-11.8-9.9-16.2,1.1-4,7.8-2.7,16.2-8.5,6.3-4.3,13.8-12.9,12-19-1.8-6-11-5-12.7-11.3-1.3-4.9,2.8-11,7-14.1,6.9-5,13-1.3,17.6-6.3,3.9-4.3,1-8.4,4.2-11.3,6.5-5.9,21.5,8.4,31,2.8,6.4-3.8,8.7-15.5,4.9-21.8-3.1-5.3-8.9-4-16.9-12-4.8-4.7-3.3-5.7-7-9.2-5.6-5.1-11.7-5.7-30.3-8.5-11.7-1.7-17.6-2.6-18.3-2.8-11.1-3.6-15.6-10.3-30.3-26.1-24.2-25.9-26.4-23.2-28.2-30.3-4.5-17.7,9.7-34,1.4-42.3-2.2-2.2-3-.9-7.8-4.2-8.3-5.8-8.6-11.6-14.8-16.9-1.5-1.3-4.4-3.4-16.2-6.3-4.5-1.1-10.1-2.3-16.8-3.2.3,4.7-.7,8.8-1.7,12.6-3.8,14.7-11.8,17.2-24.3,38.1-4,6.8-6.8,11.4-9.5,18.5-6,15.9-3.3,22.3-9.5,27.5-6.4,5.4-17.4,5.3-24.8,2.1-9.2-3.9-9.8-11.2-18-12.2-5.4-.6-12.1,1.8-14.3,6.3-2.3,4.8,2.3,7.7,1.1,15.9-1,6.8-4.5,6.7-5.8,13.8-1,5.4.9,6.4,1.6,16.9.5,7.8,1,14.1-2.1,15.9-3.3,1.9-7.8-3.1-11.1-1.1-2.7,1.7-1.7,6-2.6,9.5-1,3.6-4.3,7.5-13.1,10.8,3.4,7.8,7.2,15.2,15.2,19.6,3.5,1.9,8.9,4.9,14.4,3.3,6-1.8,8.7-8.1,21.5-41.4,4.1-10.5,7.8-20.3,14.4-21,3.4-.4,6.5,1.9,10.4,0,3.3-1.6,3.4-4.2,5.9-6.6,5.1-4.9,15.6-3.7,22.2-.7,11.7,5.5,8.3,15.7,19.6,22.3,9.9,5.9,15.3-.5,26.8,5.9,8,4.5,16.5,13.9,14.4,21-1.2,4.1-5.8,6.9-9.8,7.9-13.7,3.4-25.9-13.4-32-9.2-2.2,1.5-.5,3.5-3.3,9.9-.8,1.8-4.8,11.1-13.7,15.1-5.8,2.7-9.6,1.2-10.4,3.3-1.2,3.1,6.5,6.6,12.4,14.5,10,13.4,2.4,23.2,11.1,32.2,8.7,8.9,20,3.1,25.5,11.8,4.8,7.8-2.8,14.7,2,22.3,4.9,7.9,14.8,3,29.4,11.2,13.1,7.3,10.2,14.2,22.8,21,6.1,3.3,11.7,4.4,16.4,4.9,1.3-1.8,2.6-3.9,3.2-6.5,1.6-7.1-2.5-11.5-.4-14h0Z" style="fill: #db0632;"/>
        <path d="m721.39,1199.68c2.7-4.1.6-8.7,3.5-10.6,4.1-2.6,9.9,5.1,23.3,7.8,5.3,1.1,12.1,2.4,16.9-1.4,4.4-3.5.1-10.5,4.9-15.5,3.1-3.2,6.7-2.6,7.1-4.6.8-4.4-16.1-8.9-15.5-13.4.5-3.8,13.1-1.8,20.8-9.2,7.6-7.3,6.4-20,5.6-28.6-2.7-28.7-18.9-35.9-14.4-50.8,3.8-12.6,16.9-12.1,18.3-24.7,1.4-12.3-10.1-21.4-6-27.1,3.2-4.5,11.6-.7,13.8-4.6,3.4-6-15.9-16.4-15.9-32.4.1-12.3,11.5-18.2,8.8-22.6-4.3-7.1-33.8,11.1-52.9-1.1-3.2-2.1-5.6-4.6-7.4-7.1-3.4,2.5-8.1.1-17.1,5-5.2,2.8-4.2,4-7.4,5.3-11.6,4.6-23.4-10.9-31.7-6.3-4.8,2.7-3.7,9.5-9.5,11.1-3.3.9-4.6-1-9,0-4.7,1.1-5.3,3.7-9,4.8-5.2,1.5-8.7-2.3-13.8-3.7-8.5-2.3-12.8,4.6-26.4,10-7,2.8-25.5,10.2-42.3,4.2-5.4-1.9-11-5.4-19-4.2-4.8.7-6.2,2.4-10.6,3.2-2.6.5-6,.6-10.1-.5-.5.7-1,1.4-1.5,2.1-10.6,14.2-19.1,15.2-19,22.7.1,9.4,13.4,11.6,16.9,25.9.4,1.5.6,2.9.7,4.3,6.6.9,12.3,2.1,16.8,3.2,11.8,2.9,14.7,5,16.2,6.3,6.2,5.3,6.5,11.1,14.8,16.9,4.8,3.3,5.6,2,7.8,4.2,8.3,8.3-5.9,24.6-1.4,42.3,1.8,7.1,4,4.4,28.2,30.3,14.7,15.8,19.2,22.5,30.3,26.1.7.2,6.6,1.1,18.3,2.8,18.6,2.7,24.8,3.3,30.3,8.5,3.8,3.5,2.3,4.4,7,9.2,8.1,8,13.8,6.7,16.9,12,.9,1.5,1.4,3.2,1.6,5.1,5-.3,9-1.8,11.1-4.9h0Z" style="fill: #db0632;"/>
        <path d="m779.69,898.68c5.6-3.9,13.3-5.5,49.2-1.1,31.2,3.9,39.9,6.9,49.7.5,5.2-3.4,5.2-5.8,12.2-10,9.8-5.9,15.2-4.3,29.6-7.4,26.6-5.7,31.1-16.1,47.6-13.2,5.1.9,8.3,2.5,11.1.5,4.1-3,1.7-10,1.1-29.6-.4-14,.7-13.9-.5-19.6-3.1-14.1-11.6-21.6-9.5-23.8,2.3-2.4,12.3,8.2,20.1,4.8,6.1-2.7,9.5-13.3,6.3-19.6-2.7-5.4-8.7-4.4-10.6-9.5-1.9-5.3,2-13.4,7.9-16.4,6.6-3.3,11.6,1.8,15.9-1.6,4.7-3.7.1-11.1,5.3-18.5,2.2-3.2,3.7-2.7,12.2-7.9,10.4-6.5,17.9-11.1,18-16.9,0-.9-.2-2.8-1.9-5.2-.3.9-.9,1.8-1.8,2.5-4.1,3.4-11.3,1-12.7.5-8.5-2.8-9.5-8.9-13.8-8.5-5.4.6-4.8,10.7-12.7,14.3-4.8,2.2-11.6,1.4-15.3-2.1-5-4.8-1.5-12-2.1-24.8-.6-11.9-4.8-32.4-14.3-34.9-8.9-2.3-16.3,12.6-29.6,10-2.1-.4-5.1-1.4-9.5-1.1-5.7.4-9.5,2.7-11.6,3.7-13.7,6.6-32.1-1-34.9-2.1-4-1.7-7.3-4-11.9-7.7-1.8,4.4-3.3,9.3-4.3,14.7-2.1,11.1.4,13.4-2.8,19-8.4,14.8-28.1,11-34.5,24.7-5.2,11,3.5,22.1-2.8,26.8-3.7,2.7-10.6,1.8-14.1-1.4-3.7-3.4-2-7.7-5.6-10.6-3-2.4-8.6-3-12-.7-9.1,6.2,2.1,31.1-6.3,36-3.2,1.8-5.2-1.5-9.2,0-10.8,4.1-3.1,32.3-15.5,39.5-7.1,4.1-15.9-1.4-18.3,2.8-2.3,4,5.6,9,4.2,16.2-1.6,8.4-13.5,8.8-14.8,16.2-1.1,6.4,7.6,7.8,12,18.3,6.4,15.1-5.8,25.6,2.1,38.1,3.1,4.8,6.9,6.3,7.1,11.3,0,.5,0,1-.1,1.5,2.9-.1,6.2-.5,9.6-1.5,6-1.8,9.9-4.9,11.8-6.2h0Z" style="fill: #db0632;"/>
        <path d="m791.19,1180.98c4.7,3.6,6.8,1.7,12.7,5.6,13.7,9.2,9.4,24.3,21.5,30.3,4.8,2.4,6,.3,15.2,3.9,8.1,3.2,10.2,6,13.4,4.9,5.8-2,4.7-13.5,9.9-14.4,3.5-.7,5.7,4.2,9.2,3.2,3.2-.9,2.3-5.4,6-7.8,4.9-3.1,10.7,2,13.8-.7,3.4-3-1.2-11.8,1.1-13,2.7-1.6,10.3,11.5,15.2,9.9,3.6-1.2,4.4-10,3.2-16.6-1-5-3-8.1-4.6-10.9-7.5-13.5-10.6-34-3.2-40.5,3.4-3,8-2.1,9.2-5.6,1.2-3.6-2.8-6.8-1.1-9.9,1-1.8,2.8-1.3,5.3-2.8,6.3-3.9,5.4-13.9,7.8-14.1,2-.1,2.2,7.1,5.6,8.1,4.6,1.4,15.1-8.2,16.6-19.4.9-7.2-2.3-11.9,1.1-20.1,1.3-3.2,2-2.9,3.2-5.6,4-8.9-1.5-15.3-2.5-27.5-1.2-14.2,5.5-15.1,2.8-26.1-2.4-9.8-7.9-9.9-9.5-19.7-1.5-9.2,3.2-10.1,2.1-20.8-1-10.1-5.4-11.4-4.9-20.8.2-4.7,1.3-4.4,2.8-13.8,1.6-9.8.3-9.9,1.8-15.5,2.3-8.8,5.6-9.8,6.3-16.6.6-5.8-1.4-9.5-2.8-14.1s-2.4-10.9-1.5-19.1c-6.2,2.9-13.8,6.5-26.2,9.2-14.4,3.1-19.8,1.5-29.6,7.4-7,4.2-6.9,6.7-12.2,10-9.8,6.3-18.5,3.3-49.7-.5-35.9-4.4-43.6-2.8-49.2,1.1-1.9,1.3-5.8,4.4-12.2,6.3-3.4,1-6.7,1.4-9.6,1.5-.5,4.4-3.9,8.6-7.7,10.5-3,1.5-6.6,1.8-10.1,1-1.7,3-4,3.6-5.9,9.2-4.2,12.5,3.7,20.6-1.1,25.9-.3.3-.6.6-.9.8,1.8,2.5,4.2,5.1,7.4,7.1,19.1,12.2,48.5-6.1,52.9,1.1,2.6,4.3-8.8,10.3-8.8,22.6-.1,16,19.3,26.4,15.9,32.4-2.2,3.8-10.5.1-13.8,4.6-4.1,5.7,7.4,14.8,6,27.1-1.4,12.6-14.5,12.1-18.3,24.7-4.5,14.9,11.8,22,14.4,50.8.8,8.6,2,21.2-5.6,28.6-.3.3-.7.6-1.1.9-.2,10.4,1.9,21.4,9.7,27.2h0Z" style="fill: #db0632;"/>
        <path d="m872.89,1456.78c5.2-5.5,13.7-8.3,14.1-15.3.3-5.7-5-7.6-4.1-13.2,1.1-6.7,9.2-7.9,9.2-13.4-.1-4.8-6.4-6.8-5.6-10,1-4.3,12.5-3.3,13.4-7.1,1-4.2-12.4-6.7-16.2-16.6-3.2-8.5,3.9-13.9,6.3-28.2.4-2.6,3.2-19.7-4.8-34-10.8-19.5-33.4-19.1-35.1-34.4-.4-3.6.3-8.6-2.6-15-1.2-2.5-3.3-7.1-7.8-9-4.1-1.8-5.6.6-11.4-.5-4.3-.8-10.8-3.5-11.8-7.9-.6-2.7,1.3-3.6.5-6.5-.9-3.5-3.9-3.5-5.8-7.1-1.9-3.5-1.8-8.8.7-11.8,2.6-3.2,6-1.8,9.9-4.8,1.8-1.3,3-3.1,3.9-4.9-.1-.1-.2-.1-.4-.2-12.1-6-7.8-21.1-21.5-30.3-5.9-4-8-2.1-12.7-5.6-7.8-5.8-9.8-16.8-9.9-27.3-7.8,6.3-19.3,4.6-19.7,8.2-.6,4.4,16.3,9,15.5,13.4-.4,2-3.9,1.3-7.1,4.6-4.8,5-.5,12-4.9,15.5-4.8,3.8-11.6,2.5-16.9,1.4-13.3-2.7-19.2-10.4-23.3-7.8-3,1.9-.8,6.5-3.5,10.6-2.1,3.1-6,4.6-11,5.1.8,6.3-1.7,13.9-6.6,16.8-9.5,5.6-24.5-8.7-31-2.8-3.2,2.9-.3,7-4.2,11.3-4.7,5.1-10.7,1.3-17.6,6.3-4.3,3.1-8.4,9.2-7,14.1,1.7,6.2,10.9,5.3,12.7,11.3,1.9,6.2-5.7,14.7-12,19-8.4,5.8-15.1,4.4-16.2,8.5-1.2,4.4,6.5,6.6,9.9,16.2,2.5,7.2-.7,8.9.7,21.2,1.3,11.8,5,15.2,2.8,17.6-5.2,5.8-30-10.7-34.5-4.9-2,2.6,2,6.9.2,14.1-.7,2.6-1.9,4.8-3.2,6.5,6.9.8,12,.5,14.2,4.9,2.8,5.6-.8,15-6.5,19.7-8.1,6.7-17.6,1.6-26.1,9.9-1.3,1.3-2.6,3.5-5.2,7.9-7.9,13.4-11.9,20.1-11.1,25.6,1.3,9.2,12.9,14.4,26.1,20.4,10.5,4.7,21,9.5,34.6,9.2,25.1-.5,28.8-17.4,58.7-20.4,6.4-.6,17.7-1.8,30.7,2.6,13.8,4.7,16.3,11,29.4,15.1s16.5-.5,33.3.7c10.7.7,24.2,6.2,50.9,17.1,21.5,8.8,27.5,12.2,34,13.9-2.4-16.2,1.1-24.8,5.6-29.7h0Z" style="fill: #db0632;"/>
        <path d="m995.59,1473.88c4.7-5.4,2.9-9.6,6.3-15.2,6.1-9.8,18.6-8.3,18.9-13,.2-5.2-15.1-10.2-15.9-10.4-10.6-3.3-16.8-1.3-18.3-4.6-1.9-3.9,6.4-7.6,7.4-15.5,1.7-13.4-19.5-22.9-16.6-30.5,1.8-4.7,10.2-1.4,18.5-8.5,8.6-7.3,5.2-15.5,12.3-19.4,9.3-5.1,20.8,5.8,26.3.7,3.5-3.3,1.8-10.5.9-14.3-3.3-13.9-12.8-14.6-13.9-23.6-1.6-13.3,17.8-21.8,14.3-32.1-1.9-5.6-8.4-5.4-9-10.4-.9-8.1,15.8-14.1,14.4-18.5-1.2-4.1-15.6,1.4-26.3-7.1-7.4-5.8-9.7-15.6-10.2-18-1.1-4.7-.6-6.9-.7-12.7-.1-4.6-.4-23.4-8.6-40.9-2.7-5.7-4.5-7.6-5.8-13.2-2.2-9.1.8-11.4-.3-18-2.8-16.5-24.4-19.6-24-33.1.1-4.4,2.5-8.3,0-12-1.5-2.2-4.4-3.7-7.1-3.7-10.8-.1-16.5,24-21.7,23.1-1.7-.3-3.3-3.2-4.1-12.6-.5,0-.9,0-1.4-.1-3.5-1.1-3.6-8.2-5.6-8.1-2.4.2-1.4,10.2-7.8,14.1-2.5,1.5-4.3,1-5.3,2.8-1.7,3,2.2,6.3,1.1,9.9-1.2,3.5-5.7,2.6-9.2,5.6-7.4,6.5-4.3,27,3.2,40.5,1.6,2.8,3.6,5.9,4.6,10.9,1.2,6.6.4,15.4-3.2,16.6-4.8,1.6-12.4-11.4-15.2-9.9-2.2,1.3,2.4,10-1.1,13-3.1,2.7-8.9-2.4-13.8.7-3.7,2.3-2.8,6.8-6,7.8-3.5,1-5.7-3.8-9.2-3.2-5.1,1-4.1,12.4-9.9,14.4-3.2,1.1-5.2-1.7-13.4-4.9-8.9-3.5-10.3-1.6-14.8-3.7-.9,1.9-2.1,3.6-3.9,4.9-3.9,2.9-7.3,1.6-9.9,4.8-2.4,3.1-2.6,8.3-.7,11.8,1.9,3.6,4.9,3.6,5.8,7.1.8,2.9-1.1,3.8-.5,6.5,1,4.4,7.5,7.1,11.8,7.9,5.9,1.1,7.4-1.2,11.4.5,4.5,1.9,6.6,6.4,7.8,9,3,6.4,2.2,11.3,2.6,15,1.7,15.3,24.3,14.8,35.1,34.4,7.9,14.3,5.2,31.4,4.8,34-2.4,14.3-9.6,19.7-6.3,28.2,3.8,9.9,17.2,12.4,16.2,16.6-.9,3.8-12.4,2.7-13.4,7.1-.8,3.3,5.6,5.2,5.6,10,.1,5.5-8.1,6.7-9.2,13.4-.9,5.6,4.4,7.6,4.1,13.2-.4,7-8.9,9.8-14.1,15.3-4.6,4.8-8.1,13.4-5.9,29.7,2,.5,4,.9,6.5,1.2,6.5.9,22.9,2.8,40.5-4.6,9.6-4.1,8.4-6.2,19.6-11.8,11.2-5.6,29.5-14.8,44.4-8.6,7.5,3.1,11.3,9,14.7,13.9,1.2-.4,2.2-1.3,3.2-2.4h0Z" style="fill: #db0632;"/>
        <path d="m1088.99,1250.08c4.8-4.2,7.8-9.9,12.7-9.5,4.2.3,4.9,4.7,8.5,4.9,6,.4,13.2-11.2,14.8-22.2,1.7-12-3.6-21.7-5.6-25.4-9.6-17.2-26.9-24.1-25-28.2,1.2-2.7,8.7,0,12.3-4.6,2.3-2.8,1.8-6.9,1.1-10.6-2.5-12.4-7.4-19-10.6-26.4-8.2-19.2-3-40.2-1.1-47.9,2.7-10.9,4.9-10.2,4.6-15.9-.8-14.2-14.8-20.8-13.4-35.2.3-3.5,1.2-3.2,1.4-7.1.6-10.1-5.1-13.7-4.6-22.2.3-5.9,3.5-12.1,6-12,4.6.2,4.2,21.9,10.6,22.9,4.8.8,12.8-10.3,14.4-21.2,1-6.6-1-8.8,1.4-14.8,2.6-6.5,6.5-7.9,6.3-12.7-.1-4.4-3.5-4.7-5.3-9.9-2.8-8.2,3.9-12.6,2.5-21.2-1.1-6.6-5.6-6.7-11.3-15.2-8.5-12.5-3.9-20.1-9.9-29.2-5.8-8.9-16-11.2-31-14.4-28.1-6.2-38.7,1.1-62.4-4.6-9.8-2.3-18-6-24.2-9.4.3,5.4,0,8.2-2.2,9.8-2.8,2-6,.4-11.1-.5-8.8-1.6-14.2.7-21.4,4-.9,8.2.1,14.4,1.5,19.1,1.4,4.6,3.4,8.2,2.8,14.1-.7,6.8-4.1,7.7-6.3,16.6-1.4,5.6-.2,5.7-1.8,15.5-1.5,9.4-2.6,9-2.8,13.8-.4,9.4,3.9,10.7,4.9,20.8,1.1,10.7-3.6,11.6-2.1,20.8,1.6,9.8,7.1,9.9,9.5,19.7,2.7,11-4,11.9-2.8,26.1,1,12.2,6.4,18.5,2.5,27.5-1.2,2.8-1.9,2.5-3.2,5.6-3.3,8.2-.1,12.9-1.1,20.1-1.3,10.2-10.1,19.1-15.2,19.5.8,9.3,2.4,12.3,4.1,12.6,5.2.9,10.9-23.2,21.7-23.1,2.7,0,5.5,1.5,7.1,3.7,2.5,3.6.1,7.6,0,12-.4,13.6,21.2,16.7,24,33.1,1.1,6.6-1.8,8.8.3,18,1.3,5.7,3.1,7.6,5.8,13.2,8.3,17.5,8.6,36.3,8.6,40.9.1,5.8-.4,8,.7,12.7.6,2.4,2.8,12.2,10.2,18,10.7,8.4,25,2.9,26.3,7.1.4,1.5-1.1,3.1-3.4,5,8.7-3.6,16.2-5.4,22.2-6.2,12-1.7,20.9-.4,29-7.5h0Z" style="fill: #db0632;"/>
        <path d="m1150.29,918.78c2.9-2.5,8.3-6.8,30.1-13.8,25.2-8.1,37.8-12.1,46-7.9,10.8,5.5,12,17.2,18.5,16.4,5.7-.7,10.3-10.4,11.6-17.4,1.6-8.4-1.4-12.6,1.6-15.3,4.2-3.9,14.6.8,17.4,2.1,11.5,5.2,13.2,12,17.4,11.1,8-1.7,11.8-28.1,4.2-32.8-2.4-1.5-4.9-.1-6.9-2.2-3.4-3.6.9-10.2-2.1-12.9-2-1.8-4.7.4-9.1-.7-4.6-1.1-6.9-4.6-9.4-7.6-7-8.1-9.9-5.1-23.3-15.5-11-8.6-11-12.2-16.9-13-4.7-.6-5.7,1.6-17.6,3.9-8.5,1.7-14.1,2.7-16.2,0-2.3-3,2.6-6.9,1.4-12.3-2.2-9.6-19.9-7.2-25.4-18-3.6-7.1,3.3-9.4,2.5-26.8-.6-11.5-3.8-16-.7-24,2.4-6.2,6.5-9,5.3-10.9-1-1.5-4.2-1-19,.7-7.9.9-9.2,1-10.2,0-3.6-3.7,5.1-13.3,1.4-21.5-.8-1.8-2.1-3.2-3.6-4.4.1,2.3-.1,3.8-1.4,4.5-3.1,1.9-9.2-2.3-16.4-7.4-11.8-8.3-15.1-13.9-19-12.7-5.3,1.6-4.1,12.8-9,13.8-4.4.9-6.8-8.1-16.4-10-1.6-.3-3-.4-4.1-.4-2.4,5.4-5.5,8-8.1,9.4-10.2,5.6-23.9-3.2-28,3.7-1.4,2.4-1.1,5.2-1.9,7.5,1.8,2.4,1.9,4.3,1.9,5.2-.1,5.8-7.6,10.5-18,16.9-8.4,5.2-9.9,4.7-12.2,7.9-5.2,7.4-.6,14.8-5.3,18.5-4.3,3.4-9.3-1.7-15.9,1.6-5.9,2.9-9.9,11-7.9,16.4,1.9,5.1,7.8,4.1,10.6,9.5,3.2,6.3-.3,16.9-6.3,19.6-7.8,3.4-17.8-7.2-20.1-4.8-2,2.2,6.4,9.7,9.5,23.8,1.2,5.6.1,5.5.5,19.6.3,9,.9,15.3,1.2,19.8,6.3,3.4,14.4,7.1,24.2,9.4,23.7,5.6,34.3-1.6,62.4,4.6,15,3.3,25.2,5.6,31,14.4,6,9.2,1.4,16.7,9.9,29.2,5.7,8.4,10.2,8.6,11.3,15.2.4,2.6.1,4.8-.5,6.8,5.6-.4,11.6-1.8,17-5.4,6.4-4.1,7.5-8.1,14-13.8h0Z" style="fill: #db0632;"/>
        <path d="m1313.99,855.68c4.5-.5,8.6,1.2,11.3-1.6,3.8-3.8-.6-10.7,3.5-15,2.5-2.6,7.4-3.4,9.5-1.6,4.2,3.7-4.5,16.2-.3,19.9,2.5,2.2,8.6.3,12.3-2.8,4.4-3.7,4.9-8.4,6.9-18.5,0,0,2.3-12.1,6.5-29.8,3.4-14.4,5.1-18.2,3-24.1-1.8-4.8-4.1-5.7-4.8-10.8-.8-6.7,3-8.1,3-15.9s-3.8-9.7-1.8-14.1c1.8-3.9,5.5-3.9,6.9-8.5.9-2.8-.2-3.9-.2-7-.1-8.7,7.6-10.9,7.2-16.9-.3-5.5-6.9-5.3-13.9-15-4.9-6.8-2.5-8.2-7.9-16.6-6-9.3-10-9.1-12-15.9-2.2-7.4,1.5-11.1-1.1-15-1.6-2.4-5.3-4.4-13.9-3.8.1.3.1.7.2,1,.2,5-6.4,7.4-12.2,13.8-11.7,12.9-17.7,19.4-21.7,21.7-11.8,6.6-18,2.5-25.9,10.6-3.2,3.2-4.8,6.7-9,7.4-3.9.7-5.9-1.8-11.6-4.2-12.1-5.2-17.8-.3-22.2-5.3-3.7-4.1-.2-7.9-4.2-15.3-2.8-5.2-5.3-4.9-10.6-10.6-9.6-10.3-8.1-18.7-13.2-19.6-4-.7-8.3,4.1-15.9,12.7-5.8,6.5-6.5,9.2-10.6,10.6-6,2.1-8.7-2.1-13.8,0-6.5,2.7-8.6,12.5-9.5,16.9-1.3,6-.8,10.4-.7,13.4,1.4,1.1,2.7,2.6,3.6,4.4,3.7,8.2-5,17.8-1.4,21.5,1,1,2.3.9,10.2,0,14.8-1.7,18.1-2.2,19-.7,1.2,2-2.9,4.7-5.3,10.9-3.1,8,.1,12.5.7,24,.8,17.4-6,19.7-2.5,26.8,5.5,10.8,23.2,8.4,25.4,18,1.2,5.4-3.7,9.3-1.4,12.3,2.1,2.7,7.7,1.7,16.2,0,11.9-2.3,12.9-4.5,17.6-3.9,5.9.8,5.9,4.4,16.9,13,13.3,10.4,16.3,7.4,23.3,15.5,2.5,2.9,4.8,6.5,9.4,7.6,4.5,1.1,7.1-1.1,9.1.7,3.1,2.7-1.2,9.3,2.1,12.9,2,2.2,4.5.8,6.9,2.2,1.1.7,2,1.9,2.7,3.4,5.5-6.2,10.3-8.3,14.2-8.7h0Z" style="fill: #db0632;"/>
        <path d="m1398.79,721.38c3.4,0,5.9-3,6.3-3.5,6.4-7.8-2.6-19.8,2.5-24.7,2.5-2.4,5.3-.1,17.6-1.1,7.6-.6,7.9-1.6,12-1.8,14.3-.5,16.8,11.6,28.2,11.6,12.6,0,15.2-14.8,31.7-15.5,5.2-.2,7.9,1.1,10.9-1.1,6.8-4.8,2.9-18,7.8-19.7,2.8-1,4.5,3.5,9.5,4.2,9,1.3,12.5-11.9,22.9-12.7,9.5-.8,14.2,9.7,21.2,7,5.3-2,4-8.6,9.5-11.3,8.7-4.3,20.1,8,24,4.6,2.8-2.5-3-9-3.5-22.9-.4-10.3,2.6-11.3,1.1-18.3-2.1-9.6-8.4-11.1-14.1-20.8-5.3-9.2-1.7-11.3-6-30.3-4.1-18.3-6.6-29.3-15.9-37.4-6.5-5.7-13.7-7.7-13.8-13,0-4.9,6.1-7,5.6-12.3-.3-3.5-3-4.4-7.1-9.2-6.9-8.1-5.2-12.7-9.9-18-1.8-2-4.5-4.1-8.9-5.6-.1,1.5-.4,2.7-1,3.8-2.8,5.6-10.3,9.6-16.9,9.2-13.2-.9-19.8-18.8-26.4-16.6-3.5,1.2-2.1,6.3-7.1,9.9-6,4.2-17,3.2-20.4-2.1-4.2-6.5,4.9-16.3.3-21.2-2-2.1-6.1-2.5-8.1-1.1-2.7,2-.2,6-2.8,11.3-2.1,4.3-4.6,3.3-7.8,8.1-4.1,6.2-2.4,11.3-5.3,12.3-2.9,1.1-5-4-10.2-4.9-5.8-1-11.2,3.9-16.9,9.2-12.1,11.3-11.9,18.6-18.7,19.7-6.6,1.1-9.9-5.3-16.2-3.2-4.7,1.6-4.4,5.6-9.2,9.5-8.5,6.9-21.6,4.2-25,3.5-15-3.1-18.2-12.8-26.1-10.6-6.9,2-6.7,10.1-15.2,12.3-4.3,1.1-9.8.4-13.8-2.5-9.4-7-4.8-23.4-9.5-24.7-3.4-.9-6.7,7.4-15.7,16.6,2.5,2.2,3.7,4.4,4.2,6.3,1.8,7-4.8,11.8-2.1,18,2.9,6.8,12.5,4.1,17.4,11.6,4.2,6.3,2.5,16-1.1,22.2-5.9,10.1-15.6,8.5-18,16.4-2.2,7.2,3,17.5,10.6,21.2,11,5.4,23-5.2,28,0,4.7,4.8-3.2,16.2,1.6,20.1,1.8,1.5,4.1.8,17.4-2.1,11.8-2.6,15.7-3.4,16.4-2.1,1.2,2.3-9.6,7.4-9,14.8.3,3.8,3.4,4.9,4.1,8,8.6-.5,12.3,1.4,13.9,3.8,2.6,3.9-1.2,7.6,1.1,15,2,6.7,6,6.6,12,15.9,5.4,8.4,3,9.7,7.9,16.6,7,9.7,13.6,9.4,13.9,15v.5c6.5.8,10.4,3.1,12.9,5.5,2.9,2.8,5.3,6.7,9.2,6.6h0Z" style="fill: #db0632;"/>
        <path d="m1599.69,671.38c-.6,3.3-1.8,6.7,0,8.7,2.2,2.5,6,0,9.2,1.6,7.4,3.6.4,22.1,6.9,26.4,6.8,4.5,25.9-8,24.6-15.1-1.1-5.7-15-5.3-15.9-11.6-.7-5.2,8-10,9-10.6,7.6-4.1,18.4-4.3,25.9,1.1,7.4,5.3,6.5,12.6,11.6,13.2,5.3.7,12.4-6.2,14-13.2.7-3.2-.2-4.7,1.3-6.6,2.8-3.7,10.3-4.2,14.5-1.1,3.8,2.9,3.1,7.5,4.5,10.6,2.1,4.5,9.4,7.7,27.9,6.8,1.4-13.7,6.7-15.5,4.9-30-1.6-13.7-7.3-20-3.3-27.6,4.2-7.9,13.6-7.2,15.7-15.1,1.4-5.3-2.5-6.8-3.3-13.8-1.9-16.2,16.8-25.2,13.1-36.8-1.5-4.5-4.4-3.4-7.8-9.2-5.5-9.2-1.2-17.3-.6-30.2.8-19.8-7.8-35.9-11.8-43.4-6.1-11.5-1.6-.2-8.4-13.9-3.1-6.3-3.3-16.3-4.2-26.1-14.7,3.7-21.6,1.7-24.9-1.9-3.8-4.1-4.2-11.7-6.9-11.6-2.6,0-2.5,7.2-8.5,13.8-4.1,4.5-11.6,9.5-18,7.4-4.3-1.4-6.5-5.6-7.9-8.5-6.6-12.9-1-25.8-4.2-27-1.9-.7-5.6,3.2-7.4,7.4-3.5,8.2,1.3,16-.5,16.9-1.7.8-6.9-4.7-10-11.1-2.9-5.8-1.5-7.3-4.2-11.1-3.1-4.5-5.6-3.5-12.7-9-7.1-5.6-8.5-9.6-11.1-9-2.9.7-5,6.7-3.2,10,1.6,2.9,4.8,1.9,9.5,5.3,2.8,2,7.3,6.4,6.3,9-1.4,4-14-1.8-27.5,4.2-9.8,4.3-10.2,10.5-16.9,10.6-10,.2-16.4-13.2-20.6-11.1-3.4,1.7,0,10.7-4.8,13.8-2.5,1.6-4.3-.4-9.5,1.1-5.1,1.5-4.9,3.8-8.5,4.2-4.5.5-5.2-3.4-13.2-5.8-2.2-.7-3.8-.9-5-1.1,1.2,3,2.5,6.2,3.8,9.7,6.6,17,8.9,24,8.8,28.3,4.4,1.5,7.1,3.6,8.9,5.6,4.6,5.2,3,9.9,9.9,18,4,4.7,6.8,5.7,7.1,9.2.5,5.3-5.7,7.4-5.6,12.3,0,5.3,7.3,7.4,13.8,13,9.2,8.1,11.7,19.1,15.9,37.4,4.3,19,.7,21.2,6,30.3,5.7,9.7,12,11.2,14.1,20.8,1.5,7-1.5,8-1.1,18.3.6,13.9,6.3,20.5,3.5,22.9-.8.7-1.8.7-3,.4.8,5.4.4,9.9-.2,13.2h0Z" style="fill: #db0632;"/>
        <path d="m1381.29,789.78c8.2,5.9,12.9,19.4,11.1,30.1-.7,3.8-2.4,9,0,11.1,2.1,1.8,5.3-.4,7.9,1.6,2.5,1.9.6,4.8,2.6,9.5,2.6,6.2,7.8,5.7,9.5,11.6,1.1,3.8-.3,6.1,1.1,6.9,2.4,1.4,6.1-5.4,12.7-5.3,4.1.1,6.1,2.9,8.5,1.6,2.5-1.4,1.1-5.1,3.2-6.3,3.5-2.1,14.8,4.9,17.4,14.8,1.4,5.1-.4,7.6,1.7,9.8,3.4,3.5,9.4-1.5,18.1-.5,12.9,1.4,13.2,14.1,26.7,16.4,9.3,1.6,14.2-3.6,20.9.7,4.8,3,3.6,6.5,7.8,8.7,8.9,4.7,20.1-7.7,25.9-3.4,4.5,3.2-.4,11.8,5.2,17.8,3.5,3.7,8.7,3.9,13.8,4.1,13.1.4,23-5.4,28.2-8.6,8.9-5.4,22-16.3,20.3-23.8-.2-1.1-.9-2.6-1.2-5.5-.5-4.6.7-5.9,0-9-.8-3.7-2.9-3.5-4.6-7.4-2.5-5.6.8-8.3-1.1-12.7-2.2-5.3-8-3.6-14.1-9-7-6.3-3.2-12.2-10-21.2-6.4-8.5-11.2-5.1-16.6-12.7-4.3-6.2-2.5-10.2-5.8-29.4-.6-3.4-1.8-10.4-3.3-15.9-7.5-26.5-27.1-31.8-24.5-43,2.5-11.1,22.4-9.1,29.2-26.4,2.3-6,1-8.7,4.1-12.7,4.7-6,13.9-7.3,23.1-6.7.2-1.1.5-2.3.7-3.5.7-3.3,1-7.8.1-13.3-5.2-1.2-13.9-8.5-20.9-5-5.6,2.7-4.2,9.3-9.5,11.3-7,2.6-11.6-7.8-21.2-7-10.4.8-13.9,14-22.9,12.7-5.1-.7-6.7-5.3-9.5-4.2-4.8,1.8-1,14.9-7.8,19.7-3.1,2.2-5.7.8-10.9,1.1-16.6.7-19.1,15.5-31.7,15.5-11.4,0-13.9-12.2-28.2-11.6-4.1.2-4.4,1.2-12,1.8-12.3,1-15.1-1.3-17.6,1.1-5.1,4.8,3.9,16.8-2.5,24.7-.4.5-2.9,3.5-6.3,3.5-3.9,0-6.3-3.9-8.8-6.3-2.4-2.4-6.3-4.7-12.9-5.5-.1,5.6-7.3,8-7.2,16.4,0,3.1,1,4.3.2,7-1.4,4.5-5.1,4.6-6.9,8.5-2,4.4,1.8,6.3,1.8,14.1s-3.8,9.2-3,15.9c.6,5.1,3,5.9,4.8,10.8.5,1.3.8,2.6.9,3.9,4.4-.6,9.3.2,13.5,3.2h0Z" style="fill: #db0632;"/>
        <path d="m1644.59,901.08c7,4.2,17.6,2.8,24.3.3,3.5-1.3,4.7-2.5,7.7-2.4,5.6.2,8.3,4.7,12.4,7.4,8.9,5.9,21.1,1.9,23.8,1.1,7.3-2.3,9.2-5.8,14.8-5,4.9.7,6.2,3.9,9.8,3.2,4.9-.9,4.9-7.1,9.8-8.5,4.8-1.4,7.8,3.6,12.2,4,4.2.3,10.2-3.7,18.4-21.6-5.1-1-8.4,1.8-12.1-1.1-6-4.7-.7-14.7-5.9-27.6-3.7-9.2-7.6-7.3-11.1-15.1-7.9-17.9,11.1-31.4,3.9-51.3-3.2-8.8-8.2-9.6-10.4-20.4-1.8-8.9.3-14.5,1.3-21.7,3.6-24.8-11.4-29.5-10.4-56.5.1-1.5.2-2.9.3-4.2-18.5.9-25.9-2.3-27.9-6.8-1.4-3.1-.7-7.7-4.5-10.6-4.2-3.2-11.8-2.6-14.5,1.1-1.5,1.9-.6,3.4-1.3,6.6-1.6,7-8.7,13.9-14,13.2-5.1-.6-4.2-7.9-11.6-13.2-7.5-5.3-18.3-5.2-25.9-1.1-1,.5-9.7,5.4-9,10.6.9,6.3,14.8,5.9,15.9,11.6,1.3,7.1-17.8,19.6-24.6,15.1-6.4-4.3.5-22.8-6.9-26.4-3.3-1.6-7.1.9-9.2-1.6-1.2-1.3-1.1-3.2-.7-5.2-9.2-.6-18.3.7-23.1,6.7-3.1,4-1.7,6.7-4.1,12.7-6.8,17.3-26.7,15.4-29.2,26.4-2.6,11.2,17,16.5,24.5,43,1.5,5.5,2.8,12.5,3.3,15.9,3.3,19.2,1.5,23.2,5.8,29.4,5.4,7.6,10.1,4.2,16.6,12.7,6.8,9,3,14.9,10,21.2,6.1,5.4,11.9,3.6,14.1,9,1.8,4.4-1.4,7.1,1.1,12.7,1.7,3.9,3.8,3.7,4.6,7.4.7,3.1-.5,4.4,0,9,.2,2.2.7,3.6,1,4.6,4.1.2,8.2,1.3,11.5,3.9,5.1,4,3.8,8.2,9.3,11.5h0Z" style="fill: #db0632;"/>
        <path d="m2095.29,963.18c-2.6-16.4-5-16.3-5.9-28.9-1.5-21.4,5.1-24.8,1.3-36.8-4.4-13.8-18.1-25.5-32-27.6-12.1-1.9-14.2,5.2-29.4,3.9-16.1-1.3-19.1-9.8-30-7.9-10.2,1.8-9.4,9.4-24.1,19.7-18.3,12.8-29.5,7.8-37.2,19.7-6.1,9.3-2.9,17.9-7.8,19.7-7.9,2.9-18.1-18.6-27.4-15.8-5.4,1.7-8.9,11.2-7.8,18.4,1,6.7,5.5,8.9,4.6,11.8-2.1,6.2-26,3.4-32,2.6-38.3-4.9-57.4-7.3-67.9-21-12.2-16.1-8.1-37.7-20.9-41.4-.3-.1-.6-.2-.9-.2-8.2,17.9-14.2,21.9-18.4,21.6-4.3-.3-7.4-5.3-12.2-4-4.9,1.4-4.9,7.5-9.8,8.5-2.4.5-3.7-.7-5.8-1.8-.3,4.4,0,8,.5,10.8.9,5.5,2.3,7.8,1.3,12.2-1.3,5.8-4.8,6.8-5.8,12.9-.2,1.1-1.3,8.1,2.1,10.6,3.7,2.7,8.5-3.1,18-2.9,7.7.1,16,4.1,16.4,8.2.3,3.8-6.5,4.9-8.5,12.2-.9,3.4-.8,8.4,1.9,10.3,3.2,2.2,7.9-1.6,9.8.3s-1.4,6.9-3.4,13.2c-5.1,15.7-.1,32,.8,34.9,2.7,8.4,5.9,10.9,4.2,15.6-2,5.6-8.1,6.2-9,11.9-.7,4.6,3.1,5.6,2.9,10.6-.3,6.7-7.6,7.7-9.5,15.3-1.5,5.7.8,12.1,4.2,15.9,3.1,3.4,6.2,3.6,17.7,6.6,21.6,5.6,23.1,8.1,23.5,9.5,1.8,5.7-7.6,11.1-5.3,16.7,1.5,3.6,7,5,10.6,5,7.9.1,10.5-6.5,15.6-5.3,4.8,1.1,3.6,7.1,10,12.2,6.2,4.9,16.4,6.5,23,2.9,3.8-2.1,3.7-4.4,7.9-5.8,5.1-1.7,7.6,1,12.2-.3,5-1.4,4.9-5.4,9.8-9.5,9.5-7.9,26.8-6.9,30.9-.3,1.1,1.7.4,2.4,1.6,4,3.9,5.1,15.8,4.2,23.9-.7,5.7-3.4,5.9-6.7,10.4-10.9,2.9-2.7,7.1-5.4,13.6-7.1,4.9-10.3,10.4-18.4,20.7-25.9,14.5-10.5,31.8-14.9,55.5-21,27.4-7,39.7-5.6,48.9-17.1,5.9-7.3,6.7-18.2,8.5-40.1.7-9,1.9-25-1.3-45.4h0Z" style="fill: #db0632;"/>
        <path d="m1604.79,918.68c-2.2,3.9-6,2.9-8.3,6.6-3.9,6.2,3.9,13.7.1,20.3-1.7,3-3.5,1.9-8.3,5.6-8,6.1-6.2,11.8-14.1,19.6-1.5,1.5-9.4,9.3-15.3,7.1-2.6-.9-2.4-2.8-5.9-5.6-3.2-2.4-9.9-6.1-14-3.8-4.7,2.6-.5,10-6.6,18-3,3.9-6.4,5.1-6.9,9.2-.3,2.4.5,5.6,2.1,6.1,3.4,1,7.8-10,11.9-9,2,.5,1.4,3.2,4.8,6.3,3.6,3.3,6.2,2,8.5,4.5,3,3.3.4,7.6,1.1,15.1.6,7.2,3.8,12.3,5.3,14.8,7.1,11.6,16,9.2,18.5,16.9,2.6,8.2-4.5,19.9-9.2,27.8-2.6,4.2-5.2,7.5-4.5,11.9.8,4.9,4.8,5.8,5,10.6.3,5.8-5.4,8.7-4,11.9,1.2,2.7,6.1,2.9,7.4,2.9,8.7.3,10.3-5.9,18.2-7.1,9.3-1.4,11.4,6.5,22.2,5,5.3-.7,5.6-2.8,12.9-3.7,4.9-.6,5.7.2,12.9-.3,8.2-.5,8.3-1.5,12.7-1.3,9,.4,10.2,4.9,15.3,4.2,9.3-1.2,10-16,17.7-16.7,7.5-.7,9.8,13.1,20.9,14.8,7.6,1.2,9-5,19-5.6,13.6-.8,21.9,10,26.4,6.3,2.9-2.3-.1-7.3,3.2-13.2.8-1.4,1.7-2.5,2.8-3.5-2.9-3.8-4.6-9.6-3.3-14.7,2-7.7,9.2-8.6,9.5-15.3.2-4.9-3.6-6-2.9-10.6.9-5.7,7-6.2,9-11.9,1.6-4.7-1.5-7.2-4.2-15.6-.9-2.9-5.9-19.2-.8-34.9,2.1-6.3,5.4-11.4,3.4-13.2-1.9-1.8-6.6,2-9.8-.3-2.6-1.9-2.8-6.9-1.9-10.3,2-7.3,8.8-8.3,8.5-12.2-.4-4.1-8.7-8.1-16.4-8.2-9.5-.2-14.3,5.6-18,2.9-3.4-2.5-2.3-9.5-2.1-10.6,1-6.1,4.5-7.1,5.8-12.9,1-4.4-.4-6.6-1.3-12.2-.5-2.8-.8-6.4-.5-10.8-1.1-.6-2.3-1.1-4-1.3-5.6-.8-7.4,2.7-14.8,5-2.7.8-14.9,4.9-23.8-1.1-4.1-2.7-6.9-7.2-12.4-7.4-2.9-.1-4.1,1.1-7.7,2.4-6.7,2.5-17.3,3.9-24.3-.3-5.6-3.3-4.3-7.5-9.5-11.6-3.3-2.6-7.4-3.7-11.5-3.9.1.3.2.6.2.9,1.6,7.1-10,17.1-18.7,22.8,1,3.3,1.3,6.8-.3,9.6h0Z" style="fill: #db0632;"/>
        <path d="m1305.39,899.78c1.4.4,4.1.9,5.6,3.2,2,3-.4,5.5.7,10.9,1,5,3.6,5.7,3.2,9.2-.5,3.7-3.7,4-4.2,6.7-1.1,5.9,13.3,8.6,19,20.4.8,1.6,1.6,8.1,3.2,21.2,1.3,10.7,1.4,14.4,4.6,16.6,3.7,2.6,7.9.4,12.3,4.2,2.6,2.2,2,3.7,3.9,4.6,5.6,2.7,13-9.4,18.7-7.8,7,2.1.4,21.8,12,33.8,4.9,5.1,7,2.5,20.4,11.6,9.2,6.2,14.9,10.2,15.2,15.9.3,7-8,9.2-7.1,15.9.7,5.2,6,5.2,10.6,13.8,2.8,5.3,1.5,6.7,3.9,11.6.2.5,5.8,11.8,16.2,15.2,12.3,3.9,17.7-7.8,30.3-3.5,5,1.7,9.2,5.3,15.9,4.2,3.1-.5,3.2-1.4,6.3-1.8,6.9-.8,9.5,3.4,15.9,3.9,7.3.6,8.8-4.6,14.1-4.2,12.2.8,18.9,28.7,21.8,27.8,2.9-.8-5-27.4,2.1-31.4,3.6-2,10,2.3,15.6,7.1,1.3-2.1,3.4-4.6,3.2-8.1-.2-4.7-4.3-5.6-5-10.6-.7-4.4,1.9-7.7,4.5-11.9,4.8-7.9,11.9-19.6,9.2-27.8-2.5-7.7-11.4-5.3-18.5-16.9-1.5-2.5-4.7-7.6-5.3-14.8-.7-7.5,1.9-11.8-1.1-15.1-2.3-2.5-4.9-1.2-8.5-4.5-3.3-3.1-2.8-5.9-4.8-6.3-4.1-1-8.5,10-11.9,9-1.7-.5-2.4-3.7-2.1-6.1.5-4.2,3.8-5.3,6.9-9.2,6.2-7.9,1.9-15.4,6.6-18,4.1-2.2,10.8,1.4,14,3.8,3.6,2.8,3.4,4.6,5.9,5.6,6,2.1,13.8-5.7,15.3-7.1,7.9-7.8,6.1-13.4,14.1-19.6,4.8-3.7,6.6-2.6,8.3-5.6,3.8-6.6-4-14.1-.1-20.3,2.3-3.7,6.1-2.7,8.3-6.6,1.6-2.8,1.3-6.3.3-9.5-.5.3-1,.7-1.5,1-5.2,3.2-15.1,9.1-28.2,8.6-5-.2-10.2-.4-13.8-4.1-5.6-5.9-.7-14.5-5.2-17.8-5.8-4.2-17,8.1-25.9,3.4-4.2-2.2-3-5.7-7.8-8.7-6.7-4.2-11.6.9-20.9-.7-13.5-2.3-13.8-15-26.7-16.4-8.7-.9-14.7,4.1-18.1.5-2.2-2.2-.3-4.7-1.7-9.8-2.7-9.9-13.9-16.9-17.4-14.8-2,1.2-.7,5-3.2,6.3-2.3,1.3-4.3-1.5-8.5-1.6-6.6-.1-10.3,6.7-12.7,5.3-1.4-.8.1-3.1-1.1-6.9-1.8-5.9-6.9-5.5-9.5-11.6-2-4.7-.1-7.6-2.6-9.5-2.6-2-5.8.2-7.9-1.6-2.4-2.1-.7-7.3,0-11.1,1.8-10.7-2.9-24.3-11.1-30.1-4.2-3-9.2-3.8-13.7-3.7.4,4.3-1.2,9.2-3.9,20.3-4.2,17.7-6.5,29.8-6.5,29.8-1.9,10.1-2.5,14.8-6.9,18.5-3.8,3.2-9.8,5-12.3,2.8-4.2-3.7,4.6-16.2.3-19.9-2.1-1.8-7-1-9.5,1.6-4.1,4.2.3,11.1-3.5,15-2.7,2.7-6.8,1.1-11.3,1.6-3.8.4-8.7,2.4-14.1,8.9,3.1,7.4.8,22.5-4.1,27.7,3.7,4.8,7,6.8,9.8,7.5h0Z" style="fill: #db0632;"/>
        <path d="m1153.49,937.08c1.2,12.8,18,13.9,21.9,28,2.8,10.2-5.3,12-2.6,22.5,3.8,15,22.3,17.3,23.5,32,.2,3.1-.3,6.5,2.1,10,3.2,4.7,7.6,3.6,10.8,6.6,8.6,7.8-5.8,29.4,1.8,36.7,4.8,4.6,12.3-2.2,22.5,3.2,6,3.1,12.3,10.1,11.4,16.4-1.4,8.7-15.7,8.4-17.7,17.2-2.1,9.2,10.4,22.7,18.5,21.2,7.1-1.3,7.9-13.7,13.8-13.8,5-.1,5.4,9.1,13.8,15.9,9.8,8,26.1,9.3,36.7,3.4,8.1-4.5,7.8-10.3,14-10.8,7.4-.6,10.3,7.8,22.5,9,2.4.2,7.5.7,9.5-2.1,1.8-2.5-.3-5.4,0-9.2.5-7,8.4-12.6,13.5-14.8,14.2-6.1,25.5,6.2,34.6-.5,4.5-3.3,2.9-7.1,7.7-12.4,3.8-4.2,9-6.4,14.3-7.5-.6-2.5-.6-4.2-2.6-8-4.6-8.5-9.8-8.6-10.6-13.8-.9-6.6,7.4-8.9,7.1-15.9-.3-5.6-6-9.6-15.2-15.9-13.4-9.1-15.5-6.6-20.4-11.6-11.6-12-5-31.8-12-33.8-5.7-1.7-13.1,10.5-18.7,7.8-1.8-.9-1.3-2.3-3.9-4.6-4.5-3.8-8.6-1.7-12.3-4.2-3.1-2.2-3.3-5.9-4.6-16.6-1.6-13-2.4-19.6-3.2-21.2-5.8-11.9-20.2-14.5-19-20.4.5-2.7,3.7-3,4.2-6.7.5-3.4-2.1-4.2-3.2-9.2-1.1-5.5,1.3-7.9-.7-10.9-1.5-2.3-4.3-2.8-5.6-3.2-2.7-.8-6-2.7-9.6-7.5-.8.9-1.8,1.5-2.8,1.7-4.2.9-5.9-5.9-17.4-11.1-2.9-1.3-13.2-6-17.4-2.1-2.9,2.7,0,7-1.6,15.3-1.4,7-5.9,16.7-11.6,17.4-6.5.8-7.7-10.9-18.5-16.4-8.2-4.2-20.8-.1-46,7.9-14.4,4.6-21.7,8-25.8,10.5.6,1.9,1,3.9,1.2,6.1.6,7.9-3,9.4-2.4,15.4h0Z" style="fill: #db0632;"/>
        <path d="m1121.19,1255.58c3.6,0,7.7-2.8,15.9-8.5,6.1-4.2,9.1-6.3,10-9.5,2.1-6.9-4.8-13.1-2.6-15.3,1.8-1.9,6.6,2.7,14.8,2.1,2.9-.2,3.2-.8,10-3.2,14.4-4.9,17.3-3.6,19.8-7.1,3.6-5-.6-10.1,3.2-13.5,3.4-3.1,10.6-2.3,14.5,1.1,3.1,2.6,1.9,4.7,4.2,6.6,6.1,5,16.6-7.2,29.9-4,5.5,1.4,5.8,4,15.1,6.6,5.1,1.4,10.9,3.1,13.2.5,3-3.3-3.4-10.1,0-16.1,1.7-3,3.8-2,7.9-6.1,1-1,7.4-7.3,6.3-14-.7-4.4-3.9-4.3-4.5-8.2-1-6.7,7.9-9.9,7.1-16.7-.4-3.6-3.1-4.2-6.3-9.5-1.1-1.7-1.9-3.5-2.5-5.2-1.5-.8-2.8-1.7-4.1-2.8-8.3-6.8-8.8-15.9-13.8-15.9-5.8.1-6.6,12.4-13.8,13.8-8.1,1.5-20.7-11.9-18.5-21.2,2.1-8.8,16.3-8.5,17.7-17.2,1-6.2-5.4-13.3-11.4-16.4-10.2-5.3-17.7,1.4-22.5-3.2-7.6-7.3,6.8-28.9-1.8-36.7-3.3-3-7.6-1.9-10.8-6.6-2.4-3.5-1.9-7-2.1-10-1.2-14.7-19.7-16.9-23.5-32-2.7-10.4,5.5-12.3,2.6-22.5-3.9-14.1-20.7-15.2-21.9-28-.6-6,3-7.5,2.4-15.3-.2-2.2-.6-4.2-1.2-6.1-2.1,1.3-3.4,2.3-4.3,3.2-6.5,5.8-7.6,9.7-13.8,13.8-5.4,3.6-11.4,5.1-17,5.4-1.3,4.7-4,8.6-2,14.3,1.8,5.1,5.2,5.5,5.3,9.9.2,4.8-3.8,6.2-6.3,12.7-2.4,6-.4,8.2-1.4,14.8-1.7,10.8-9.6,21.9-14.4,21.2-6.4-1.1-6-22.8-10.6-22.9-2.5-.1-5.7,6.1-6,12-.5,8.5,5.2,12.1,4.6,22.2-.2,3.9-1.1,3.5-1.4,7.1-1.3,14.4,12.6,21.1,13.4,35.2.3,5.6-1.9,4.9-4.6,15.9-1.9,7.7-7.1,28.7,1.1,47.9,3.2,7.4,8.1,14.1,10.6,26.4.7,3.7,1.2,7.7-1.1,10.6-3.7,4.6-11.1,1.9-12.3,4.6-1.8,4.1,15.4,11,25,28.2,2.1,3.7,7.3,13.4,5.6,25.4-1.6,11.1-8.8,22.6-14.8,22.2-2.1-.1-3.2-1.7-4.6-3,4.4,7.9,10,13,15.7,13h0Z" style="fill: #db0632;"/>
        <path d="m1223.59,1450.98c-4.3-19.2-12.2-21.1-12.7-33.8-.3-8.8,3.3-12.4,0-18-2.8-4.9-7.2-5.1-8.1-9.5s3.1-6,4.9-12.7c2.5-9.3-3.2-12.8-.3-18,4.1-7.4,18.1-3.6,20.8-10.6.6-1.6.4-3.1-2.1-9.9-4.1-11.1-6.4-15-7.8-18.7-5.7-15.8,5.9-31.6,2.5-33.5-3-1.6-11.5,10.7-14.8,8.8-3-1.7,2.7-12.2-1.4-16.2-4.8-4.7-16.4,6.5-27.8,1.8-8.1-3.4-11.4-12.8-12.3-15.5-.7-2.1-3.4-10.1-.3-18.7,2.5-7.1,6.6-7.8,7.4-12.3.6-2.9-.4-6.8-5-12-4.1,1.5-4.7,2-7.1,2.1-8.2.6-13-4-14.8-2.1-2.2,2.2,4.7,8.4,2.6,15.3-.9,3.2-4,5.3-10,9.5-8.2,5.6-12.3,8.5-15.9,8.5-5.7,0-11.4-5.1-15.7-13-1-1-2.1-1.8-3.9-2-4.9-.4-7.9,5.3-12.7,9.5-8.1,7.1-17,5.7-28.9,7.4-6,.9-13.6,2.6-22.2,6.2-4.5,3.7-11.7,8.1-11.1,13.5.6,5,7.1,4.8,9,10.4,3.5,10.2-15.9,18.8-14.3,32.1,1.1,9,10.6,9.7,13.9,23.6.9,3.8,2.6,11-.9,14.3-5.5,5.2-17-5.8-26.3-.7-7.1,3.9-3.8,12.1-12.3,19.4-8.3,7.1-16.7,3.7-18.5,8.5-2.9,7.6,18.2,17,16.6,30.5-1,8-9.3,11.6-7.4,15.5,1.6,3.3,7.7,1.3,18.3,4.6.7.2,16.1,5.2,15.9,10.4-.2,4.7-12.8,3.3-18.9,13-3.4,5.5-1.7,9.7-6.3,15.2-.9,1.1-1.9,2-2.9,2.7,3.3,4.7,6.1,8.6,11.4,8.5,7.1-.2,8.4-7.3,20.2-9.9,7-1.5,7.6.8,17,0,13.9-1.2,15.8-6.6,24.8-5.9,10.1.8,10.2,7.7,21.5,11.2,14.5,4.5,18.7-5.4,33.9-2.6,16.6,3.1,16.9,15.8,33.3,17.1,8.5.7,8.4-2.8,25.4-3.9,14.2-1,15.9,1.3,22.2-1.3,10.5-4.4,9.4-12.4,19.6-15.8,1.7-.6,3.2-.8,4.6-.9-.3-3.3-.7-6.8-1.2-10.4-.9-6-1.2-9-1.9-11.7h0Z" style="fill: #db0632;"/>
        <path d="m1383.29,1333.28c4.5-4.8,15-5.4,14.8-8.1-.2-2.3-7.3-1.4-11.3-6.3-4.5-5.6,1.1-11.2-2.5-17.3-4.7-8.1-16.5-1.9-31.4-12-2.3-1.6-4.6-3.5-7.8-3.2-5.3.6-5.8,7.1-11.6,9.5-6.4,2.6-14-1.8-18.7-4.6-6.6-3.8-6.6-6.3-13.8-10.9-4.8-3.1-6.2-2.9-14.8-6.7-10.3-4.6-25-11.1-24.3-16.6.3-1.9,2.2-1.7,4.6-4.9,5.2-7.2,2.1-17.4,1.8-18.3-1.9-5.8-4.7-6.3-7.4-11.3-1.4-2.6-2.6-6.2-2.7-11.1-.7-.2-1.5-.4-2.2-.6-9.3-2.6-9.6-5.2-15.1-6.6-13.3-3.3-23.8,8.9-29.9,4-2.3-1.9-1.1-4-4.2-6.6-4-3.3-11.1-4.1-14.5-1.1-3.8,3.4.4,8.5-3.2,13.5-2.5,3.5-5.5,2.2-19.8,7.1-1.2.4-2.1.7-2.9,1,4.7,5.2,5.6,9.1,5,12-.8,4.5-4.9,5.2-7.4,12.3-3.1,8.6-.4,16.6.3,18.7,1,2.8,4.2,12.1,12.3,15.5,11.5,4.8,23-6.5,27.8-1.8,4.1,4-1.6,14.6,1.4,16.2,3.3,1.8,11.8-10.4,14.8-8.8,3.4,1.9-8.1,17.7-2.5,33.5,1.3,3.7,3.6,7.5,7.8,18.7,2.5,6.8,2.8,8.3,2.1,9.9-2.7,6.9-16.7,3.1-20.8,10.6-2.8,5.2,2.9,8.7.3,18-1.8,6.7-5.8,8.3-4.9,12.7.9,4.4,5.3,4.7,8.1,9.5,3.3,5.6-.3,9.2,0,18,.4,12.8,8.3,14.6,12.7,33.8.6,2.7,1,5.7,1.8,11.6.5,3.7.9,7.1,1.2,10.4,5.3-.3,8.6,1.9,14.4-1.1,5.2-2.6,5-5.6,11.8-12.5,7.9-8,11.1-6.9,17.6-13.2,9.3-8.8,5.1-13.1,13.7-23.7,10-12.3,17.8-9,26.8-21.7,6.4-8.9,3.4-11.9,9.1-19.1,6.7-8.4,15-9.7,34.6-15.1,18.1-5,22.1-7,29-9.4-4.7-13.6-3.4-20.4-.1-23.9h0Z" style="fill: #db0632;"/>
        <path d="m1616.59,1321.28c10.5-1.2,29.5-3.5,33.8-14.4,1.9-4.8.4-9.6,4.2-12.3,2.6-1.9,5.7-1.3,10.6-.7,10.3,1.2,16.3,1.9,20.8,1.1,12.2-2.4,10.7-16,22.9-19.4,10.8-3,23.2,4.7,25.7.3.9-1.5,0-3.7,1.8-5.3,1.7-1.6,3.5-.4,5.3-1.8,2.2-1.7.7-4.4,2.5-9.2,1.5-4.1,3.3-3.9,4.2-7.1,1-3.4.3-8.3-2.5-11.3-4.7-5-11.2-.2-20.8-5.3-4.9-2.6-4.2-4.5-8.8-6.3-6.4-2.6-9.3.4-17.6,0-12-.6-22.3-7.7-25.4-9.9-6.1-4.2-9.1-8.2-11.3-7.1-2.8,1.5.8,9-3.2,13.4-3.8,4.1-12.8,3.8-14.8.3-1.9-3.2,3.8-6.8,6-16.6,1.7-7.8,1-18.9-4.6-21.5-2.1-1-5.3-.9-7.4.7-4.9,3.7-.7,13-5.6,16.9-2.1,1.7-4.7,1.5-6.3,1.4-15.4-.7-30.8,2.4-46.2,2.5-33.3.1-37.3,2.8-45.1-2.5-3.4-2.3-7.2-5.9-13.8-6.7-9.5-1.2-11.8,5.1-22.2,5.6-10.1.6-9.9-5.2-27.5-8.5-9.8-1.8-13-.6-17.6-4.2-5.9-4.7-7.2-12-10.2-11.6-1.6.2-2.6,2.3-3.9,5.6-6,15.2-4.7,19.2-8.1,21.5-5.3,3.5-17.1-.7-21.2-7.8-2.1-3.7-1.3-6.7-4.6-9.9-2.2-2.1-6.6-4.6-9.5-3.2-6.1,2.9-1.3,19.8-6,21.5-2.5.9-4.9-3.4-10.2-6.3-3.1-1.7-6.4-2.5-9.6-2.7.4,2.2,1.7,4.8,2.8,10.4,1.8,9.1-.1,10.3,1.9,12.7,4.4,5.2,13.5,0,18,5.3,2.8,3.2,2.8,9.2.2,12.3-3.6,4.3-9.5.2-15.5,4.2-5.6,3.8-3,9.4-9.2,17.8-4.8,6.5-8.4,5.9-13.8,11.4-2.4,2.5-5.1,6.2-7,11.6,1.9.6,3.5,1.8,5.1,2.9,14.8,10.1,26.7,3.9,31.4,12,3.6,6.1-2.1,11.7,2.5,17.3,4,4.9,11.1,4.1,11.3,6.3.2,2.7-10.3,3.3-14.8,8.1-3.2,3.4-4.5,10.3.3,24.1,3.9-1.3,8.9.5,17.5-1.7,22.1-5.7,32.9-8.5,44.8-9.2,6.5-.3,11.7-1,18.5-2.8,13.5-3.6,17.8-12.9,26.6-18.3,9.2-5.7,10.8-2.8,57.4-7.9,22.5-2.4,36.1-4.6,39.8,2,.1.2.2.5.3.7,12,2.8,21.8,2.4,28.1,1.6h0Z" style="fill: #db0632;"/>
        <path d="m1935.89,1163.28c19.9-10.3,20.6-37.2,27-50.7-6.5,1.6-10.8,4.4-13.6,7.1-4.5,4.2-4.7,7.5-10.4,10.9-8.1,4.9-20,5.8-23.9.7-1.2-1.6-.5-2.3-1.6-4-4.1-6.6-21.5-7.6-30.9.3-4.9,4.1-4.8,8.1-9.8,9.5-4.6,1.3-7-1.4-12.2.3-4.2,1.4-4.1,3.7-7.9,5.8-6.6,3.6-16.8,2-23-2.9-6.4-5.1-5.2-11.1-10-12.2-5.1-1.2-7.7,5.4-15.6,5.3-3.6,0-9.1-1.4-10.6-5-2.4-5.6,7.1-10.9,5.3-16.7-.5-1.5-2-3.9-23.5-9.5-11.5-3-14.6-3.2-17.7-6.6-.3-.3-.6-.7-.9-1.1-1.1,1-2,2.2-2.8,3.5-3.3,5.9-.2,10.9-3.2,13.2-4.5,3.6-12.8-7.1-26.4-6.3-7.8.4-10.3,4.2-14.7,5.4-.5,3.3-.6,6.3-.6,8.7,0,7,0,11.7,3.2,14.5,3.8,3.4,8.1.6,15.9,2.1,7.4,1.5,15.6,6.5,19.8,14,4.9,8.7,5.7,22.5-.3,29.6-1.4,1.7-4.1,4.1-3.7,7.1.2,2.2,2.1,4.7,4.2,5,3.7.6,5.3-5.3,9.2-5.8,7.9-1.1,20.4,19.7,15.3,26.7-2.5,3.5-7.5,1.2-12.2,6.1-3.1,3.3-3.1,6.7-4.5,11.4-1.2,3.9-3.5,8.8-8.3,14.1,1.3,2.8,1.6,6.2.8,8.8-.9,3.2-2.7,3-4.2,7.1-1.8,4.7-.3,7.5-2.5,9.2-1.8,1.4-3.6.2-5.3,1.8-1.8,1.6-.9,3.8-1.8,5.3-2.5,4.3-14.9-3.4-25.7-.3-12.2,3.4-10.7,17-22.9,19.4-4.5.9-10.5.2-20.8-1.1-4.9-.6-7.9-1.2-10.6.7-3.8,2.7-2.3,7.6-4.2,12.3-4.4,10.9-23.3,13.2-33.8,14.4-6.3.8-16.1,1.2-28.1-1.1,1.6,3.9-1.4,7.8,1.6,13.1.9,1.6,3.5,5.3,17,9.2,6.3,1.8,10.3,2.3,24.2,3.9,20.6,2.5,24.3,2.9,28.1,0,5.1-4,4.6-10,8.5-10.5,4.7-.6,9.5,7.7,11.1,10.5,5.3,9.3,2.7,13.1,6.5,16.4,8.2,7.3,29-2.8,31.3-3.9,11.8-5.9,15.3-12.2,19.6-10.5,4.5,1.8,3.3,9.8,7.2,23.7,2.4,8.5,6.1,17.3,9.8,23,13.3,20.6,41.4,25.4,58.1,28.3,5.9,1,13.7,1.3,29.4,2,38.5,1.6,49.8,6.8,52.1,4.2,4.7-5.2-5.4-17.1-1.2-41.7.3-1.7,6.6,8.7,12.3-18.1,3.4-15.7-1.4-33.2-3.2-37.8-3-8-3.9-9.2-2.1-15.1,1-3.4,8.3-19,9-23.3.6-4.1-15.3-41.3-15.9-42.3-4.9-9.1,5.6-11.1,27.8-42.3,9.5-13.5,1.5-38.1,16.3-45.8h0Z" style="fill: #db0632;"/>
        <path d="m1760.39,1218.28c4.6-4.8,9.7-2.6,12.2-6.1,5.1-7.1-7.5-27.8-15.3-26.7-3.9.6-5.5,6.4-9.2,5.8-2.2-.4-4-2.8-4.2-5-.3-3.1,2.3-5.5,3.7-7.1,6-7.1,5.2-20.9.3-29.6-4.3-7.5-12.4-12.5-19.8-14-7.8-1.5-12.1,1.3-15.9-2.1-3.2-2.8-3.2-7.6-3.2-14.5,0-2.4.2-5.3.6-8.7-1.2.3-2.6.4-4.3.2-11.1-1.7-13.4-15.5-20.9-14.8-7.7.7-8.4,15.5-17.7,16.7-5.2.7-6.3-3.8-15.3-4.2-4.4-.2-4.5.8-12.7,1.3-7.3.4-8.1-.3-12.9.3-7.3.9-7.7,3-12.9,3.7-10.8,1.5-12.9-6.4-22.2-5-7.9,1.2-9.6,7.5-18.2,7.1-1.3-.1-6.2-.2-7.4-2.9-.6-1.2,0-2.4.8-3.8-5.6-4.8-12-9.1-15.6-7.1-7.1,4,.8,30.6-2.1,31.4-3,.8-9.6-27.1-21.8-27.8-5.3-.3-6.8,4.8-14.1,4.2-6.3-.5-8.9-4.7-15.9-3.9-3.1.4-3.2,1.3-6.3,1.8-6.7,1-10.9-2.5-15.9-4.2-12.6-4.3-18,7.4-30.3,3.5-10.5-3.3-16-14.7-16.2-15.2-.7-1.5-1.1-2.6-1.3-3.7-5.3,1.1-10.4,3.3-14.3,7.5-4.8,5.3-3.2,9.1-7.7,12.4-9.1,6.8-20.4-5.6-34.6.5-5.1,2.2-13,7.8-13.5,14.8-.3,3.9,1.8,6.8,0,9.2-.3.4-.7.7-1.1,1,.5,2.8,1.4,5.8,3.2,8.7,5,8.1,11.9,7.9,13.6,14.3,2.1,7.9-7.5,12.7-5.1,20.4,2.1,6.8,11.1,8,10.6,12.9-.3,3.4-4.7,3.3-6.3,7.9-.4,1.2-.5,2.2-.3,3.3,3.3.2,6.5,1,9.6,2.7,5.3,2.9,7.7,7.2,10.2,6.3,4.7-1.7-.1-18.6,6-21.5,2.9-1.4,7.3,1.1,9.5,3.2,3.3,3.2,2.5,6.2,4.6,9.9,4.1,7.1,15.9,11.3,21.2,7.8,3.4-2.2,2.2-6.3,8.1-21.5,1.3-3.3,2.3-5.5,3.9-5.6,3.1-.3,4.3,6.9,10.2,11.6,4.6,3.6,7.8,2.4,17.6,4.2,17.6,3.3,17.4,9,27.5,8.5,10.4-.6,12.7-6.9,22.2-5.6,6.5.8,10.3,4.4,13.8,6.7,7.8,5.2,11.8,2.6,45.1,2.5,15.4,0,30.8-3.2,46.2-2.5,1.6.1,4.2.2,6.3-1.4,5-3.9.7-13.2,5.6-16.9,2.1-1.6,5.3-1.7,7.4-.7,5.6,2.6,6.3,13.7,4.6,21.5-2.2,9.8-7.9,13.3-6,16.6,2,3.4,11,3.7,14.8-.3,4-4.4.3-11.9,3.2-13.4,2.2-1.1,5.2,2.8,11.3,7.1,3.1,2.2,13.4,9.3,25.4,9.9,8.3.4,11.2-2.6,17.6,0,4.6,1.9,3.9,3.7,8.8,6.3,9.5,5.1,16.1.3,20.8,5.3.7.7,1.2,1.6,1.7,2.5,4.8-5.3,7.1-10.2,8.3-14.1.9-4.9.8-8.3,4-11.6h0Z" style="fill: #db0632;"/>
        <path d="m1393.09,1229.28c-4.5-5.2-13.6-.1-18-5.3-2-2.4-.2-3.6-1.9-12.7-1.6-8.3-3.7-10.1-2.5-13.8,1.6-4.6,6-4.6,6.3-7.9.5-4.8-8.5-6-10.6-12.9-2.4-7.8,7.2-12.5,5.1-20.4-1.7-6.4-8.6-6.1-13.6-14.3-1.8-2.9-2.7-5.9-3.2-8.7-2.4,1.7-6.4,1.3-8.4,1.1-12.1-1.2-15-9.6-22.5-9-6.2.5-5.9,6.4-14,10.8-9.3,5.1-22.8,4.8-32.6-.7.6,1.7,1.4,3.4,2.5,5.2,3.2,5.3,5.9,5.9,6.3,9.5.8,6.8-8.1,9.9-7.1,16.7.6,3.9,3.8,3.8,4.5,8.2,1.1,6.7-5.3,13-6.3,14-4.2,4.1-6.2,3-7.9,6.1-3.4,6,3,12.8,0,16.1-2,2.2-6.5,1.3-11,.1.1,4.9,1.3,8.5,2.7,11.1,2.7,5,5.5,5.5,7.4,11.3.3.9,3.5,11.1-1.8,18.3-2.4,3.3-4.3,3-4.6,4.9-.7,5.5,14,12,24.3,16.6,8.6,3.8,10,3.6,14.8,6.7,7.2,4.6,7.2,7.1,13.8,10.9,4.7,2.7,12.3,7.2,18.7,4.6,5.8-2.4,6.3-8.9,11.6-9.5,1-.1,1.8,0,2.7.3,1.9-5.4,4.6-9,7-11.6,5.3-5.5,9-4.9,13.8-11.4,6.2-8.4,3.5-13.9,9.2-17.8,6-4.1,11.9.1,15.5-4.2,2.6-3.1,2.6-9-.2-12.3h0Zm-58.6,17.8c-3.2,1.3-5.1-.3-6.3,1.1-3,3.1,6,13.5,3,17.3-2.2,2.7-9.4.3-10.8-.2-9.8-3.3-9.2-9.7-19-14.1-5.9-2.6-10.1-2-12.3-6-1.1-2-1.7-5-.3-6.7,2.2-2.7,7.9.3,9.3-1.8,1.4-2-3.4-5.4-4.1-10.4-1.2-9.4,12.4-21,17.4-18.7,3.7,1.7.5,9.7,5.6,13.4,5.2,3.8,13.2-.8,15.2,2.5,1.4,2.3-2.4,5.5-.9,8.3,1.7,3.2,7.4,1.1,9.2,4.1,1.7,2.9-1.4,9.3-6,11.2h0Z" style="fill: #db0632;"/>
        <path d="m1331.29,1231.78c-1.5-2.8,2.3-5.9.9-8.3-1.9-3.2-10,1.3-15.2-2.5-5.2-3.7-1.9-11.7-5.6-13.4-5.1-2.3-18.7,9.2-17.4,18.7.7,5,5.4,8.4,4.1,10.4-1.4,2.1-7.1-.9-9.3,1.8-1.4,1.7-.8,4.7.3,6.7,2.2,3.9,6.4,3.4,12.3,6,9.9,4.4,9.3,10.8,19,14.1,1.3.4,8.6,2.9,10.8.2,3-3.7-6-14.1-3-17.3,1.3-1.3,3.2.3,6.3-1.1,4.6-1.9,7.7-8.3,6-11.3-1.8-2.9-7.5-.8-9.2-4h0Z" style="fill: #db0632;"/>
      </g>
    </g>
    <g id="Layer_1_copy" data-name="Layer 1 copy">
      <g style="opacity: .41;">
        <path d="m1118.74,470.22c-12.46-31.54-65.82-72.94-108.05-67.95-1.05.11-1.59,1.26-1.01,2.13,1.7,2.71,4.26,8.67,3.72,19.47-1.3,26.52-42.99,51.98-50,64.34h0c-6.07,7.15-11.05,15.28-14.7,23.84-10.84,25.22-8.38,50.72.83,75.86,2.96,8.13,6.72,16,10.11,23.99-.51.4-.47.36-.98.79-4.73-3.32-9.28-6.97-14.23-9.9-19.65-11.52-40.1-16.51-61.59-5.09-30.63,16.26-40.86,52.6-21.82,81.97,14.88,22.98,42.55,30.56,70.91,30.16,0,0,71.24,8.02,140.56-64.12,3.5-3.65,6.72-7.12,9.72-10.44h0c11.67-13.04,19.44-23.84,24.28-34.14,31.1-53.1,27.35-99.56,12.25-130.77v-.14Z" style="fill: #fff;"/>
      </g>
      <path d="m1068.56,822.08v75.72c0,8.31-.76,16.4-2.31,24.35-1.55,7.95-4.15,15.06-7.8,21.35-3.68,6.29-8.6,11.31-14.74,15.1-6.18,3.79-13.98,5.71-23.48,5.71-11.13,0-20.45-2.6-27.92-7.8-7.48-5.2-13.04-11.67-16.69-19.36-3.68-7.69-5.45-16.04-5.35-25.07.11-9,2.06-17.34,5.85-25.07,3.79-7.69,9.36-14.16,16.73-19.36,7.33-5.2,16.47-7.84,27.38-7.84,3.32,0,6.83.25,10.48.72,3.68.47,7.22,1.3,10.66,2.49s6.65,2.78,9.61,4.8,5.53,4.44,7.66,7.3c2.13-3.79,3.14-8.89,3.03-15.28-.11-6.39-1.77-12.61-4.99-18.68-3.22-6.03-8.24-11.38-15.1-16s-16-7.15-27.38-7.66c-11.6-.47-22.83,1.41-33.6,5.71-10.8,4.26-20.37,10.44-28.79,18.5-8.42,8.06-15.1,17.92-20.09,29.51-4.99,11.63-7.48,24.53-7.48,38.76s2.31,27.96,6.94,39.81,10.77,21.93,18.5,30.24c7.69,8.31,16.58,14.74,26.66,19.36,10.08,4.62,20.45,7.12,31.1,7.48s21.28-1.41,31.83-5.35c10.55-3.9,20.3-10.37,29.33-19.36,0,6.68,3,36.27-10.11,51.48-4.08,4.73-9.32,8.89-16.18,11.99s-15.75,4.88-26.66,5.38c-5.92.22-12.39-.36-19.36-1.81-7.01-1.44-13.87-3.43-20.63-5.92-6.76-2.53-13.15-5.56-19.18-9.18s-10.98-7.55-14.74-11.89c-3.54,12.32-3.68,22.94-.36,31.83,3.32,8.89,8.89,16.22,16.73,22.04,7.84,5.82,17.23,10.11,28.25,12.97s22.47,4.26,34.32,4.26c15.39,0,28.97-2.13,40.71-6.39,11.74-4.26,21.57-10.44,29.51-18.5,7.95-8.06,13.91-17.77,17.95-29.15s6.03-39.56,6.03-53.57v-117.33c0-25.54-20.7-46.2-46.2-46.2l-.11-.07Zm233.84,9.21c-8.67-6.36-19.98-9.32-33.92-8.85h0v88.14c0,4.26-.07,8.85-.18,13.69-.11,4.88-.58,9.61-1.41,14.23s-2.24,8.96-4.26,12.97c-2.02,4.05-5.02,7.48-9.07,10.3-2.6,1.91-5.64,3.32-9.07,4.26s-6.94,1.41-10.48,1.41-6.97-.47-10.3-1.41c-3.32-.94-6.39-2.38-9.25-4.26-4.01-2.6-7.04-5.85-9.07-9.79-2.02-3.9-3.43-8.13-4.26-12.61-.83-4.52-1.23-9.1-1.23-13.87v-66.47c.25-12.79-3.9-22.33-12.43-28.61-8.53-6.29-19.69-9.18-33.42-8.71v78.21c-.22,16.11.29,29.59,1.59,40.35,1.3,10.8,3.25,19.25,5.85,25.43,6.86,15.89,16.58,27.27,29.15,34.14,12.57,6.86,27.27,10.3,44.07,10.3,18.24,0,33.88-4.01,46.93-12.1,13.04-8.06,22.4-20.99,28.07-38.76,1.66-5.45,2.96-12.86,3.9-22.22.94-9.36,1.41-19.62,1.41-30.74v-45.95c.25-13-3.97-22.69-12.64-29.08h0Zm-456.36-9.21v75.72c0,8.31-.76,16.65-2.31,25.07s-4.15,16-7.8,22.76c-3.68,6.76-8.6,12.28-14.74,16.55-6.18,4.26-13.98,6.39-23.48,6.39-11.13,0-20.45-2.67-27.92-8.02-7.48-5.35-13.04-12.07-16.73-20.16s-5.45-16.83-5.35-26.23c.11-9.39,2.06-18.13,5.85-26.23,3.79-8.09,9.36-14.81,16.73-20.16,7.33-5.35,16.47-8.02,27.38-8.02,6.86,0,13.98,1.05,21.31,3.11,7.33,2.06,13.04,6.14,17.05,12.21,2.13-3.79,3.14-8.81,3.03-15.1-.11-6.29-1.77-12.5-4.99-18.68s-8.24-11.56-15.1-16.18c-6.86-4.62-16-7.15-27.38-7.66-11.6-.47-22.83,1.59-33.6,6.21-10.8,4.62-20.37,11.2-28.79,19.72-8.42,8.53-15.1,18.86-20.09,30.92-4.99,12.1-7.48,25.25-7.48,39.45,0,14.92,2.31,28.25,6.94,39.99,4.62,11.74,10.77,21.82,18.5,30.24,7.69,8.42,16.58,14.88,26.66,19.36,10.08,4.52,20.45,6.94,31.1,7.3,10.66.36,21.28-1.48,31.83-5.53,10.55-4.01,20.3-10.44,29.33-19.18v20.27h46.2v-137.96c0-25.54-20.7-46.2-46.2-46.2l.04.04Zm-180.55,46.56c-5.67-17.77-15.06-30.71-28.07-38.76-13.04-8.06-28.68-12.1-46.93-12.1h-.43c-17.48.07-35.66,3.87-53.65,23.01l-.22.18c-3.79-4.26-7.91-8.13-12.72-11.09-13.04-8.06-28.68-12.1-46.93-12.1h-.43c-16.4.07-32.3,5.42-45.66,14.85-.54-.47-.98-1.05-1.59-1.48-8.53-6.29-19.69-9.18-33.42-8.71v183.77h46.17l.14-108.3.07.29c.18-3.29.54-6.5,1.12-9.68.83-4.52,2.24-8.71,4.26-12.61s5.02-7.19,9.07-9.79c2.85-1.91,5.92-3.32,9.25-4.26s6.76-1.41,10.3-1.41,7.04.47,10.48,1.41c3.43.94,6.47,2.35,9.07,4.26,4.05,2.85,7.04,6.29,9.07,10.3,2.02,4.05,3.43,8.34,4.26,12.97s1.3,9.36,1.41,14.23c.11,4.84.18,9.43.18,13.69v88.87h46.56v-84.6c0-8.85-.4-17.01-.98-24.75.18-2.82.47-5.6.98-8.34.83-4.52,2.24-8.71,4.26-12.61s5.02-7.19,9.07-9.79c2.85-1.91,5.92-3.32,9.25-4.26,3.32-.94,6.76-1.41,10.3-1.41s7.04.47,10.48,1.41,6.47,2.35,9.07,4.26c4.05,2.85,7.04,6.29,9.07,10.3,2.02,4.05,3.43,8.34,4.26,12.97s1.3,9.36,1.41,14.23c.11,4.84.18,9.43.18,13.69v88.87h46.56v-84.6c0-11.13-.47-21.39-1.41-30.74s-2.24-16.76-3.9-22.22l.04.07Zm990.39-46.56v75.72c0,8.31-.76,16.65-2.31,25.07-1.55,8.42-4.15,16-7.8,22.76-3.68,6.76-8.6,12.28-14.74,16.55-6.18,4.26-13.98,6.39-23.48,6.39-11.13,0-20.45-2.67-27.92-8.02-7.48-5.35-13.04-12.07-16.69-20.16-3.68-8.09-5.45-16.83-5.35-26.23.11-9.39,2.06-18.13,5.85-26.23,3.79-8.09,9.36-14.81,16.73-20.16,7.33-5.35,16.47-8.02,27.38-8.02,6.86,0,13.98,1.05,21.35,3.11,7.33,2.06,13.04,6.14,17.05,12.21,2.13-3.79,3.14-8.81,3.03-15.1-.11-6.29-1.77-12.5-4.99-18.68-3.22-6.18-8.24-11.56-15.1-16.18-6.86-4.62-16-7.15-27.38-7.66-11.6-.47-22.83,1.59-33.6,6.21-10.8,4.62-20.37,11.2-28.79,19.72s-15.1,18.86-20.09,30.92c-4.99,12.1-7.48,25.25-7.48,39.45,0,14.92,2.31,28.25,6.94,39.99s10.8,21.82,18.5,30.24c7.69,8.42,16.58,14.88,26.66,19.36,10.08,4.52,20.45,6.94,31.1,7.3,10.66.36,21.28-1.48,31.83-5.53,10.55-4.01,20.3-10.44,29.33-19.18v20.27h46.2v-137.96c0-25.54-20.7-46.2-46.2-46.2l-.04.04Zm-209.85-5.06c-37.1.72-47.76,19.44-51.77,27.74,0-12.97-10.51-23.48-23.48-23.48h-16.36v184.89h46.2v-90.13c0-5.56.25-11.2.72-16.87.94-9.93,3.72-18.35,9.43-24.17,16.83-17.3,43.46-15.75,52.49-13.33,6.61,1.77,17.12,6.76,19.15,11.56,5.2-3.79,8.42-8.96,9.61-15.46,1.19-6.5,1.01-13.15-1.95-19.18-9.18-18.64-34.07-21.71-44.04-21.49v-.07Zm53.07-211.91c-7.95,5.56-131.24,91.9-304.1,119.18-23.23,4.26-46.93,6.97-69.9,8.56,7.98-1.3,15.93-2.78,23.81-4.44,5.13-2.71,9.97-5.35,14.49-7.91h.04c18.86-10.73,32.3-20.41,42.05-30.6,57.51-50.21,71.42-106.39,65.96-149.09-2.24-42.01-48.7-111.77-100.35-122.61-1.26-.25-2.35.87-2.06,2.13.9,3.83,1.59,11.89-3.29,24.38-11.99,30.67-71.06,44.25-84.21,55.96-9.97,6.03-19,13.62-26.7,22.25-22.69,25.4-29.84,56.35-28.94,89.59.29,10.77,1.59,21.49,2.46,32.22-.76.29-.69.25-1.44.54-4.26-5.78-8.16-11.85-12.86-17.27-18.6-21.31-40.71-35.22-70.44-30.31-42.45,7.04-68.78,45.77-57.98,87.86,3.79,14.81,11.89,26.91,22.65,36.77-30.24-4.55-61.77-10.62-91.11-18.75-50.54-14.02-100.54-36.52-106.28-38.94v.25c-94.47-39.56-122.97,14.92-125.39,19.98,1.63.87,3.32,1.63,5.09,2.24h.11c39.41,13.91,147.5,48.73,216.78,59.39,145.37,22.36,247.85,15.5,247.85,15.5,202.73-10.11,341.02-72.47,423.02-111.63,39.05-18.64,20.99-45.48,20.99-45.48l-.29.22h.04Z" style="fill: #fff;"/>
    </g>
  </g>
</svg>