<?xml version="1.0" encoding="UTF-8"?>
<svg id="Layer_2" data-name="Layer 2" xmlns="http://www.w3.org/2000/svg" viewBox="0 0 755.51 238">
  <g id="Layer_1-2" data-name="Layer 1">
    <g>
      <polyline points="79.01 69.5 709.01 69.5 753.01 148.5 708.01 226.5 601.26 226.25" style="fill: none; stroke: #231f20; stroke-linecap: round; stroke-linejoin: round; stroke-width: 5px;"/>
      <g>
        <circle cx="40.15" cy="82.18" r="6.82" style="fill: #231f20;"/>
        <circle cx="42.8" cy="44.82" r="3.28" style="fill: #231f20;"/>
        <circle cx="56.18" cy="44.82" r="3.28" style="fill: #231f20;"/>
        <circle cx="69.56" cy="44.82" r="3.28" style="fill: #231f20;"/>
        <circle cx="71.71" cy="82.18" r="6.82" style="fill: #231f20;"/>
        <path d="m54.08,37.5c.45.68,1.22,1.13,2.1,1.13.01,0,.03,0,.04,0,.01,0,.03,0,.04,0,.61,0,1.22-.22,1.7-.66l13.55-12.37c1.03-.94,1.1-2.54.16-3.57-.94-1.03-2.54-1.1-3.57-.16l-9.41,8.59V2.52c0-1.39-1.13-2.52-2.52-2.52s-2.52,1.13-2.52,2.52v27.52l-8.34-8.12c-1-.97-2.6-.95-3.57.05-.97,1-.95,2.6.05,3.57l12.28,11.96h0Z" style="fill: #231f20;"/>
        <path d="m90.52,22.85h-12.5c-1.39,0-2.52,1.13-2.52,2.52s1.13,2.52,2.52,2.52h9.31l-7.38,31.06h-47.38l-8.05-31.06h11.47c1.39,0,2.52-1.13,2.52-2.52s-1.13-2.52-2.52-2.52h-12.78l-.43-1.66c-1.48-5.71-6.63-9.7-12.53-9.7H2.52c-1.39,0-2.52,1.13-2.52,2.52s1.13,2.52,2.52,2.52h7.72c3.6,0,6.74,2.43,7.64,5.91l10.35,39.93c1.48,5.71,6.63,9.7,12.53,9.7h37.51c1.39,0,2.52-1.13,2.52-2.52s-1.13-2.52-2.52-2.52h-37.51c-2.49,0-4.75-1.16-6.22-3.03h47.39c1.17,0,2.19-.8,2.46-1.94l8.58-36.11c.18-.75,0-1.54-.47-2.15s-1.21-.96-1.98-.96h0Z" style="fill: #231f20;"/>
      </g>
      <g>
        <path d="m691.55,201.16c-.32-.73-.78-1.36-1.33-1.89.44-.87.69-1.86.69-2.9v-47.9c0-3.57-2.91-6.48-6.48-6.48h-82.58c-3.57,0-6.48,2.9-6.48,6.48v47.9c0,1.04.25,2.03.69,2.9-.55.53-1.01,1.16-1.33,1.89l-11.58,26.36c-1.07,2.45-.29,5.79,1.04,7.82,1.12,1.71,2.67,2.66,4.36,2.66h109.19c1.69,0,3.24-.94,4.36-2.66,1.33-2.04,2.11-5.38,1.04-7.82l-11.58-26.36h0Zm-90.97-52.69c0-.7.57-1.27,1.27-1.27h82.58c.7,0,1.27.57,1.27,1.27v47.9c0,.7-.57,1.27-1.27,1.27h-82.58c-.7,0-1.27-.57-1.27-1.27v-47.9h0Zm-1.08,54.78c.11-.25.36-.41.63-.41h86.03c.27,0,.52.16.63.41l9.08,20.68h-105.45l9.08-20.68h0Zm49.65,25.88v3.65h-11.51v-3.65h11.51Zm-61.24.47l.21-.47h44.31v3.65h-43.67c-.58-.53-1.13-2.51-.85-3.17h0Zm109.6,3.17h-43.15v-3.65h43.79l.21.47c.28.66-.27,2.64-.85,3.17h0Z" style="fill: #231f20;"/>
        <path d="m610.95,186.13h36.38c1.44,0,2.6-1.17,2.6-2.6s-1.17-2.6-2.6-2.6h-33.77v-11.76h59.17v11.76h-3.67c-1.44,0-2.6,1.17-2.6,2.6s1.17,2.6,2.6,2.6h6.28c1.44,0,2.6-1.17,2.6-2.6v-16.97c0-1.44-1.17-2.6-2.6-2.6h-64.37c-1.44,0-2.6,1.17-2.6,2.6v16.97c0,1.44,1.17,2.6,2.6,2.6h0Z" style="fill: #231f20;"/>
        <polygon points="653.37 173.55 653.87 190.27 657.86 186.77 662.72 195.38 664.6 194.51 660.1 186.27 665.72 185.4 653.37 173.55" style="fill: #231f20;"/>
        <path d="m596.7,219.81c.49.71,1.29,1.13,2.15,1.13h55.32c1.44,0,2.6-1.17,2.6-2.6s-1.17-2.6-2.6-2.6h-51.54l1.92-5.02h77.17l2.14,5.41h-20.97c-1.44,0-2.6,1.17-2.6,2.6s1.17,2.6,2.6,2.6h24.8c.86,0,1.67-.43,2.15-1.14.48-.71.59-1.62.27-2.42l-4.19-10.62c-.39-.99-1.35-1.65-2.42-1.65h-80.74c-1.08,0-2.05.67-2.43,1.67l-3.92,10.23c-.31.8-.2,1.7.29,2.41h0Z" style="fill: #231f20;"/>
      </g>
    </g>
  </g>
</svg>