<?xml version="1.0" encoding="UTF-8"?>
<svg id="Layer_2" data-name="Layer 2" xmlns="http://www.w3.org/2000/svg" viewBox="0 0 534.11 497.97">
  <g id="Layer_1-2" data-name="Layer 1">
    <g>
      <path d="m335.68,390.05c-139.43,38.35-249.67-75.7-270.54-168.3C46.19,137.64,39.75,53.46,165.06,14.04c155.39-48.88,337.53,39.8,366.2,113.41,20.11,51.65-68.75,227.71-195.58,262.59Z" style="fill: #fff; opacity: .45;"/>
      <path d="m465.43,393.16c-20,41.16-37.76,60.55-56.72,74.22-33.74,24.32-73.14,30.98-107.92,30.57-93.66-1.12-193.63-50.5-274.14-212.4C-11.58,208.66-15.96,53.47,62.44,24.55c74.4-27.43,205.99,80.88,255.65,118.51,93.8,71.08,198.12,145.58,147.34,250.1Z" style="fill: #fff; opacity: .45;"/>
    </g>
  </g>
</svg>