<?xml version="1.0" encoding="UTF-8"?>
<svg id="Layer_2" data-name="Layer 2" xmlns="http://www.w3.org/2000/svg" viewBox="0 0 579.62 471.21">
  <g id="Layer_1-2" data-name="Layer 1">
    <g>
      <path d="m544.69,361.42c-18.74,41.75-35.89,61.67-54.43,75.91-32.98,25.34-72.17,33.2-106.94,33.84-93.65,1.74-195.08-44.58-280.48-203.95C62.28,191.52,53.18,36.54,130.66,5.25c73.53-29.69,208.36,74.57,259.14,110.66,95.92,68.19,202.46,139.48,154.89,245.5Z" style="fill: #fff; opacity: .45;"/>
      <path d="m0,243.53C0,168.35,80.4,87.11,245.09,88.92c149.68,1.64,305.95,34.54,332.27,126.66,21.71,75.98-115.14,184.23-294.43,180.94C151.9,394.1,0,342.23,0,243.53Z" style="fill: #fff; opacity: .45;"/>
    </g>
  </g>
</svg>