<?xml version="1.0" encoding="UTF-8"?>
<svg id="Layer_2" data-name="Layer 2" xmlns="http://www.w3.org/2000/svg" viewBox="0 0 475.24 480.88">
  <g id="Layer_1-2" data-name="Layer 1">
    <g>
      <path d="m245.72,469.78c-120.53-4.38-179.69-122.72-173.12-201.61,5.97-71.67,21.91-140.25,131.48-140.25,135.87,0,258.58,116.14,262.97,181.89,3.07,46.12-111.69,163.96-221.33,159.97Z" style="fill: #fff; opacity: .45;"/>
      <path d="m368.51,12.68c41.4,19.51,60.99,37.03,74.89,55.83,24.72,33.45,31.85,72.77,31.85,107.55,0,93.67-48.19,194.22-209.12,276.65-76.43,39.15-231.56,45.38-261.4-32.68-28.32-74.06,78.42-206.94,115.45-257.04C190.13,68.34,263.39-36.86,368.51,12.68Z" style="fill: #fff; opacity: .45;"/>
    </g>
  </g>
</svg>